<svg width="142" height="139" viewBox="0 0 142 139" xmlns="http://www.w3.org/2000/svg" xmlns:xlink="http://www.w3.org/1999/xlink"><title>payment copy 2</title><defs><path d="M22.6 38.094l-21.775-.07s4.356-9.767 5.083-21.37C6.634 5.051 8.162.064 12.627.064c4.464 0 6.173 3.51 6.173 5.02 0 1.51-1.594 18.618-1.594 18.618s.091 5.004 5.19 4.162c5.1-.842 13.843-4.637 13.843-4.637s3.619-1.538 3.619 2.71-10.357 4.77-10.357 4.77l-6.217.579s-3.231 1.093-3.231 2.804c0 1.712 2.546 4.004 2.546 4.004z" id="a"/><path d="M.918 57.76l25.731.413s-5.72-5.68-4.967-13.174c.753-7.494 4.956-29.944 4.956-29.944S30.92 6.736 25.2 2.391c-5.722-4.346-11.503 2.206-11.503 2.206s-2 2.289-2.683 8.123c-.682 5.835-3.144 34.177-3.144 34.177L.918 57.759z" id="c"/><path d="M.328.656S-1.36 11.89 8.251 13.053h36.433s-7.991.172-7.991-12.34L.328.656z" id="e"/></defs><g fill="none" fill-rule="evenodd"><g transform="translate(10.812 5.335)" fill="#DDECEA"><circle opacity=".383" cx="56.192" cy="66.749" r="56.192"/><ellipse opacity=".336" cx="71.779" cy="56.488" rx="56.192" ry="56.192"/></g><g transform="translate(1.38 1.123)" stroke="#C5D7E0" stroke-width="1.2" stroke-linecap="round"><path d="M24.471 5.896l-2.474-2.474m108.633 111.6l-2.475-2.474M2.807 35.668l3.03-1.75M9.39 68.581l3.03-1.75" fill="#DAE2E6"/><path d="M136.24 28.135a1.785 1.785 0 1 0 1.785-1.785M83.579 1.804A1.785 1.785 0 1 0 85.364.02" stroke-linejoin="round"/><ellipse stroke-linejoin="round" cx="134.61" cy="81.557" rx="1.241" ry="1.241"/><circle stroke-linejoin="round" cx="53.903" cy="135.362" r="1.241"/><ellipse stroke-linejoin="round" cx="1.242" cy="89.284" rx="1.241" ry="1.241"/><ellipse stroke-linejoin="round" cx="89.773" cy="126.395" rx="1.241" ry="1.241"/><ellipse stroke-linejoin="round" cx="67.354" cy="45.687" rx="1.241" ry="1.241"/></g><g transform="translate(87.283 80.534)"><mask id="b" fill="#fff"><use xlink:href="#a"/></mask><use fill="#E0EAEF" xlink:href="#a"/><path d="M6.173 39.756l6.25-29.343s1.46-6.382 6.818 0c5.357 6.382-6.296-15.087-6.296-15.087L1.583 2.646l-3.464 27.85-1.97 7.627 10.024 1.633z" fill="#BACED7" mask="url(#b)"/><path d="M4.663 27.858s13.717 1.906 18.738.426c5.02-1.479 15.36-11.465 15.36-11.465l8.123 11.4-2.125 12.673-33.56 4.826-12.807-2.663 6.271-15.197z" fill="#BACED7" mask="url(#b)"/><path d="M4.663 27.858s13.717 1.906 18.738.426c5.02-1.479 15.36-11.465 15.36-11.465l8.123 11.4-2.125 12.673-17.542-9.623H4.663v-3.41z" fill="#849FAA" mask="url(#b)"/></g><g transform="translate(53.79 60.199)"><mask id="d" fill="#fff"><use xlink:href="#c"/></mask><use fill="#E0EAEF" xlink:href="#c"/><path d="M11.263 59.236l4.294-41.17s1.13-10.505 11.663-2.547c10.533 7.957-9.862-25.262-9.862-25.262L6.174.138l-4.415 55.25-3.558 2.77 1.727 4.387 11.335-3.31z" fill="#BACED7" mask="url(#d)"/></g><path fill="#FFF" d="M23.884 103.605l3.3-34.438 2.018-4.845 4.322-2.728 3.75-.441H70.48l-3.368 4.103-1.522 3.708-4.266 37.423-.254 2.772-1.805 4.378-2.743 2.46-3.42.76-3.126.227-3.425-1.026-1.883-2.685-1.496-5.037v-3.94z"/><path d="M5.068 104.79s-1.48 12.374 7.42 12.374 11.068-8.068 11.068-12.059c0-3.99 3.452-35.311 3.452-35.311s1.098-8.52 10.154-8.52h36.239" stroke="#404F54" stroke-width="1.5" stroke-linecap="round"/><g transform="translate(5.942 104.458)"><mask id="f" fill="#fff"><use xlink:href="#e"/></mask><use fill="#E0EAEF" xlink:href="#e"/><path fill="#BACED8" mask="url(#f)" d="M-3.589 7.697H56.22v11.962H-3.589z"/></g><path d="M106.968 107.747H92.463m16.897 3.589H91.268" stroke="#404F54" stroke-width="1.5" stroke-linecap="round"/><path d="M34.058 72.351h15.805" stroke="#CDDDE1" stroke-width="2" stroke-linecap="round"/><path d="M58.646 71.122a2.92 2.92 0 0 0-.344-.186 2.95 2.95 0 0 0-.754-.251v.646c.043.01.088.022.136.04.048.016.098.031.151.046.234.071.446.15.635.237.19.086.35.187.485.305.134.117.236.26.308.427.072.167.108.37.108.61 0 .282-.05.522-.147.721a1.404 1.404 0 0 1-.388.488c-.16.127-.343.223-.549.287a2.714 2.714 0 0 1-.639.119v.868h-.574v-.883a4.706 4.706 0 0 1-.983-.194 4.062 4.062 0 0 1-.876-.38l.603-1.227a4.433 4.433 0 0 0 .851.412c.165.06.333.102.506.126v-.632a5.263 5.263 0 0 1-.445-.136 3.754 3.754 0 0 1-.582-.248 1.577 1.577 0 0 1-.402-.301 1.077 1.077 0 0 1-.233-.384 1.496 1.496 0 0 1-.075-.495c0-.259.043-.487.13-.686a1.58 1.58 0 0 1 .35-.513 1.73 1.73 0 0 1 .521-.344 2.16 2.16 0 0 1 .635-.165v-.725h.574v.732c.158.019.311.048.46.086.148.038.29.083.427.133.136.05.264.103.384.158.12.055.23.106.33.154l-.603 1.155zm-.782 2.01a.228.228 0 0 0-.086-.176.796.796 0 0 0-.23-.133v.532a.467.467 0 0 0 .244-.072.184.184 0 0 0 .072-.15zm-.976-2.225c0 .072.024.13.071.176a.68.68 0 0 0 .216.126v-.546c-.192.024-.287.105-.287.244zm-.634 14.57a2.92 2.92 0 0 0-.345-.187 2.95 2.95 0 0 0-.753-.251v.646c.043.01.088.023.136.04.048.016.098.032.15.046.235.072.447.15.636.237.189.086.35.188.484.305.134.117.237.26.309.427.072.167.108.37.108.61 0 .282-.05.523-.148.721a1.404 1.404 0 0 1-.387.488c-.16.127-.343.223-.55.287a2.714 2.714 0 0 1-.638.119v.868h-.574v-.883a4.706 4.706 0 0 1-.983-.193 4.062 4.062 0 0 1-.876-.38l.603-1.228a4.543 4.543 0 0 0 .85.413c.165.06.334.101.506.125v-.631a5.263 5.263 0 0 1-.445-.137 3.754 3.754 0 0 1-.581-.247 1.577 1.577 0 0 1-.402-.302 1.077 1.077 0 0 1-.233-.384 1.496 1.496 0 0 1-.076-.495c0-.258.044-.487.13-.685a1.58 1.58 0 0 1 .351-.514 1.73 1.73 0 0 1 .52-.344 2.16 2.16 0 0 1 .636-.165v-.725h.574v.732a3.776 3.776 0 0 1 .886.219c.137.05.265.103.384.158.12.055.23.106.33.154l-.602 1.156zm-.783 2.01a.228.228 0 0 0-.086-.177.796.796 0 0 0-.23-.132v.53a.463.463 0 0 0 .245-.071.184.184 0 0 0 .071-.15zm-.976-2.226c0 .072.024.13.072.176a.68.68 0 0 0 .215.126v-.546c-.191.024-.287.106-.287.244zm.562 10.981a2.92 2.92 0 0 0-.344-.186 2.95 2.95 0 0 0-.754-.251v.646c.043.01.089.022.137.039.048.017.098.032.15.047.235.071.447.15.636.236.189.087.35.188.484.306.134.117.237.26.309.427.071.167.107.37.107.61 0 .282-.049.522-.147.72a1.404 1.404 0 0 1-.387.489c-.16.127-.344.222-.55.287a2.714 2.714 0 0 1-.638.118v.869h-.574v-.883a4.706 4.706 0 0 1-.984-.194 4.062 4.062 0 0 1-.875-.38l.603-1.227a4.414 4.414 0 0 0 .85.412c.165.06.334.102.506.126v-.632a5.263 5.263 0 0 1-.445-.136 3.754 3.754 0 0 1-.581-.248 1.577 1.577 0 0 1-.402-.301 1.077 1.077 0 0 1-.233-.384 1.496 1.496 0 0 1-.076-.495c0-.259.043-.487.13-.686a1.58 1.58 0 0 1 .351-.513 1.73 1.73 0 0 1 .52-.344 2.16 2.16 0 0 1 .636-.165v-.725h.574v.732c.158.019.31.048.46.086a5.008 5.008 0 0 1 .81.291c.12.055.23.106.33.154l-.603 1.155zm-.782 2.01a.228.228 0 0 0-.086-.176.796.796 0 0 0-.23-.133v.531c.115-.01.197-.033.244-.071a.184.184 0 0 0 .072-.151zm-.976-2.225c0 .072.024.13.072.176a.68.68 0 0 0 .215.125v-.545c-.191.024-.287.105-.287.244z" fill="#2FC3B6"/><path d="M32.483 86.705h3.844m5.726 0H44.7m-13.645 9.95h11.02" stroke="#CDDDE1" stroke-width="2" stroke-linecap="round"/><path fill="#FFF" d="M79.69 80.828h17.873l-2.835 4.387-1.742 13.832-1.865 10.775-2.228 6.864-2.289.826-5.32.407-3.472-2.531-1.75-5.271.788-10.184z"/><path d="M79.69 80.828l6.914.178s-7.866 30.846-3.698 37.188l-5.094-2.806-1.75-5.271.788-10.184 2.84-19.105z" fill="#EBF2F4"/><path d="M43.346 104.79s-1.48 12.374 7.42 12.374 11.068-8.068 11.068-12.059c0-3.99 3.452-35.311 3.452-35.311s2.193-10.385 10.6-8.175c8.405 2.21 4.818 12.482 4.818 12.482s-7.085 35.963-3.615 40.469c3.47 4.505 7.69 3.592 9.299 3.093 1.608-.499 5.652-.499 8.12-30.944 0 0 .286-6.04 6.175-6.04s5.391 6.43 5.391 6.43l-1.431 13.257s-1.563 8.564 4.341 7.858c5.904-.707 11.494-3.434 11.494-3.434s6.633-2.512 6.633.89-4.416 4.46-4.416 4.46c-4.217 1.65-11.637.635-13.71 2.04-2.818 1.909-1.407 4.263.708 4.984 2.116.721 11.377-2.595 15.641-1.298" stroke="#404F54" stroke-width="1.5" stroke-linecap="round"/><path d="M5.427 104.159h37.486" stroke="#404F54" stroke-width="1.5" stroke-linecap="round" fill="#404F54"/><path d="M100.314 80.534H80.51M3.118 118.513h133.224" stroke="#404F54" stroke-width="1.5" stroke-linecap="round"/><g transform="translate(1.157 45.845)"><ellipse fill="#FFAF8B" cx="22.643" cy="21.862" rx="20.3" ry="20.3"/><ellipse fill="#FF8F5C" cx="25.182" cy="23.621" rx="16.199" ry="16.199"/><path d="M4.502 7.804a20.735 20.735 0 0 0-1.711 2.502M.87 14.736A20.692 20.692 0 0 0 0 20.691c0 11.427 9.264 20.69 20.69 20.69 11.428 0 20.691-9.263 20.691-20.69C41.381 9.264 32.118 0 20.691 0c-3.704 0-7.18.973-10.188 2.678" stroke="#404F54" stroke-width="1.5" stroke-linecap="round"/><path d="M24.926 18.5c-.071-.085-.206-.186-.404-.306a7.396 7.396 0 0 0-1.589-.71 5.081 5.081 0 0 0-1.006-.206v3.107l.45.107a18.44 18.44 0 0 1 1.696.54c.51.19.94.43 1.293.717.354.288.626.632.818 1.033.191.401.287.895.287 1.482 0 .658-.117 1.22-.35 1.688a3.19 3.19 0 0 1-.952 1.149c-.401.3-.868.524-1.4.673a7.288 7.288 0 0 1-1.68.26v1.976h-1.077v-1.993a9.317 9.317 0 0 1-2.452-.512 8.876 8.876 0 0 1-2.164-1.104l1.096-2.137c.096.095.26.221.494.377.233.155.515.308.844.458.329.15.694.29 1.095.422.401.131.817.221 1.248.269v-3.089a6.373 6.373 0 0 1-.646-.18c-.61-.167-1.14-.35-1.59-.547a4.178 4.178 0 0 1-1.122-.7c-.3-.27-.524-.581-.673-.934-.15-.353-.225-.775-.225-1.266 0-.599.105-1.135.314-1.608.21-.472.497-.876.862-1.212.366-.335.8-.598 1.302-.79a5.891 5.891 0 0 1 1.617-.359v-1.832h1.077v1.814c.79.06 1.518.222 2.182.485a8.74 8.74 0 0 1 1.75.916l-1.095 2.011zm-1.095 6.015c0-.407-.168-.724-.503-.952-.335-.227-.802-.437-1.4-.628v2.89c1.269-.035 1.903-.472 1.903-1.31zm-4.364-5.836c0 .407.14.715.422.924.282.21.71.399 1.284.566V17.26c-1.137.072-1.706.545-1.706 1.419z" fill="#FFF"/><path d="M35.22 43.133a20.79 20.79 0 0 0 7.595-7.945" stroke="#404F54" stroke-width="1.5" stroke-linecap="round"/></g><path d="M60.931 61.993a2.126 2.126 0 0 1 2.064-2.028l53.01-.93A1.956 1.956 0 0 1 118 60.992v26.016A1.99 1.99 0 0 1 116.004 89H61.996c-1.102 0-1.965-.9-1.927-1.993l.862-25.014z" fill="#404F54" opacity=".113"/><g transform="translate(65.912 13.402)"><path d="M1.598 30.513c-1.23-1.104-1.233-2.89 0-3.998L29.181 1.76c1.23-1.104 3.22-1.107 4.454 0l27.582 24.755c1.23 1.104 1.234 2.891 0 3.998l-29.81 26.755L1.599 30.513z" stroke="#404F54" stroke-width="1.5" stroke-linecap="round" fill="#E0EAEF"/><rect stroke="#404F54" stroke-width="2" stroke-linecap="round" fill="#404F54" opacity=".128" x="8.926" y="14.338" width="48.901" height="56.526" rx="3"/><rect stroke="#404F54" stroke-width="1.5" stroke-linecap="round" fill="#FFF" x="6.382" y="11.794" width="48.901" height="56.526" rx="3"/><g transform="translate(17.683 .31)"><circle fill="#E0EAEF" cx="15.866" cy="16.023" r="13.157"/><ellipse fill="#FFF" cx="13.32" cy="13.59" rx="13.157" ry="13.157"/><ellipse stroke="#404F54" stroke-width="1.5" stroke-linecap="round" cx="13.32" cy="13.59" rx="13.157" ry="13.157"/><g transform="translate(6.54 3.55)"><ellipse stroke="#404F54" stroke-width="1.3" stroke-linecap="round" fill="#F5F6F7" cx="1.43" cy="11.787" rx="1.271" ry="1.264"/><ellipse stroke="#404F54" stroke-width="1.3" stroke-linecap="round" fill="#F5F6F7" cx="12.498" cy="11.787" rx="1.271" ry="1.264"/><rect stroke="#404F54" stroke-linecap="round" fill="#FF8F5C" x="1.849" y="14.041" width="10.217" height="4.365" rx="2.183"/><ellipse stroke="#404F54" stroke-width="1.3" fill="#FFA47B" cx="7.079" cy="2.87" rx="2.56" ry="2.56"/><path d="M9.514 2.077A2.56 2.56 0 0 1 5.41 4.81a2.56 2.56 0 0 1 4.104-2.733z" fill="#FF8F5C"/><ellipse stroke="#404F54" cx="7.079" cy="2.87" rx="2.56" ry="2.56"/><rect stroke="#404F54" stroke-linecap="round" fill="#F5F6F7" x="5.734" y="15.535" width="2.447" height="4.365" rx="1.224"/><rect stroke="#404F54" stroke-linecap="round" fill="#FFF" x="1.849" y="4.06" width="10.217" height="13.58" rx="5.109"/><path stroke="#404F54" stroke-linecap="round" stroke-linejoin="round" d="M6.5 12.303v1.45h.455"/><path d="M6.016 14.824a.848.848 0 0 0 1.696 0" stroke="#FF8F5C" stroke-linecap="round" fill="#F5F6F7"/><path d="M5.367 4.314a5.12 5.12 0 0 0-3.518 4.861v1.656c.403-.089 2.123-.467 4.367-.956 2.573-.56 3.589-1.416 3.589-1.416s.48 1.248.834 1.88c.303.54 1.055 1.34 1.055 1.34v-1.575s.162.059.372.077V9.175A5.115 5.115 0 0 0 8.793 4.4c-.93-.124-2.005-.089-3.244-.089-.061 0-.122.001-.182.003z" fill="#DAE2E6"/><path d="M9.73 12.434c0-.35-.265-.635-.593-.635-.327 0-.593.284-.593.635m-3.163 0c0-.35-.265-.635-.593-.635-.327 0-.593.284-.593.635" stroke="#404F54" stroke-linecap="round" fill="#F5F6F7"/><path d="M5.764 10.904a.973.973 0 0 0-.976-.97.973.973 0 0 0-.975.97m6.16 0a.973.973 0 0 0-.975-.97.973.973 0 0 0-.976.97" stroke="#404F54" stroke-linecap="round"/><path d="M10.084 7.205S8.819 8.256 6.246 8.816c-2.573.56-4.335.838-4.335.838l-.121 1.187H.69s-.494-3.426.356-4.926c.85-1.501 2.212-2.752 4.503-2.752 2.292 0 4.024-.12 5.31.872 1.285.993 2.133 2.793 2.133 4.09v2.6h-.934s-.896-.97-1.2-1.512c-.354-.632-.774-2.008-.774-2.008z" stroke="#404F54" stroke-width="1.3" fill="#FFA47B"/><path d="M1.986 9.642a86.859 86.859 0 0 0 4.26-.826c2.573-.56 3.838-1.611 3.838-1.611s.42 1.376.775 2.008c.148.264.437.63.694.937V8.248c0-.997-.651-2.382-1.64-3.145-.988-.763-2.32-.67-4.082-.67-1.761 0-2.809.961-3.462 2.115-.311.549-.388 1.865-.383 3.094z" fill="#FF8F5C"/><path d="M10.084 7.205S8.819 8.256 6.246 8.816c-2.573.56-4.335.838-4.335.838l-.092 1.187H.69s-.495-3.426.355-4.926c.85-1.501 2.212-2.752 4.503-2.752 2.292 0 4.024-.12 5.31.872 1.285.993 2.133 2.793 2.133 4.09v2.6h-.934s-.896-.97-1.2-1.512c-.354-.632-.774-2.008-.774-2.008z" stroke="#404F54"/><path d="M10.084 8.353S8.819 9.404 6.246 9.964c-2.573.56-4.335.838-4.335.838l-.092 1.187H.69s-.495-3.426.355-4.926c.85-1.501 2.212-2.752 4.503-2.752 2.292 0 4.024-.12 5.31.872 1.285.993 2.133 2.793 2.133 4.09v2.6h-.934s-.896-.97-1.2-1.512c-.354-.632-.774-2.008-.774-2.008z"/></g></g><path d="M22.662 32.633H39.94" stroke="#1EA69A" stroke-width="2" stroke-linecap="round" stroke-linejoin="round" fill="#F5F6F7"/><path d="M19.406 36.54h23.79" stroke="#C3D2DA" stroke-width="2" stroke-linecap="round" stroke-linejoin="round" fill="#F5F6F7"/><path fill="#E2FFFD" d="M11.592 43.703h37.77v19.536h-37.77z"/><path d="M11.592 61.623s2.835-.083 4.101-.684c1.653-.784 4.91-8.64 6.928-9.644 3.43-1.706 8.25 5.017 11.764 3.952 3.173-.96 7.989-7.453 10.35-9.375 4.029-3.279 4.921.063 4.921.063l-.294 17.304h-37.77v-1.616z" fill="#9BE8E2"/><path d="M12.923 61.273c5.978 0 6.734-10.005 10.936-10.005 4.2 0 7.321 5.681 11.904 3.586s6.774-9.986 12.739-9.986" stroke="#1EA69A" stroke-width="2" stroke-linecap="round" stroke-linejoin="round"/></g><path d="M96.832 62.789l29.55-19.827c1.374-.921 2.487-.335 2.487 1.337v39.985L96.832 62.79z" stroke="#404F54" stroke-width="1.5" stroke-linecap="round" fill="#E0EAEF"/><path d="M128.87 45.172v36.061l-26.874-18.03 26.873-18.031z" fill="#FFF"/><path d="M96.832 62.789l29.55-19.827c1.374-.921 2.487-.335 2.487 1.337v39.985L96.832 62.79z" stroke="#404F54" stroke-width="1.5" stroke-linecap="round"/><path d="M65.77 44.3c0-1.66 1.122-2.254 2.488-1.338l29.55 19.827-29.55 19.827c-1.374.921-2.487.335-2.487-1.337v-36.98z" fill="#E0EAEF"/><path d="M95.228 64.929l-26.36 17.687c-1.373.921-2.487.335-2.487-1.337v-35.6c.21.072.43.182.656.335l28.191 18.915z" fill="#FFF"/><path d="M65.77 44.3c0-1.66 1.122-2.254 2.488-1.338l29.55 19.827-29.55 19.827c-1.374.921-2.487.335-2.487-1.337v-36.98z" stroke="#404F54" stroke-width="1.5" stroke-linecap="round"/><path d="M68.288 83.982c-1.66 0-2.01-.892-.777-2l26.838-24.087c1.64-1.473 4.307-1.468 5.942 0l26.838 24.088c1.23 1.104.89 1.999-.777 1.999H68.288z" stroke="#404F54" stroke-width="1.5" stroke-linecap="round" fill="#E0EAEF"/><path d="M68.288 83.982c-1.66 0-2.01-.892-.777-2l26.838-24.087c1.64-1.473 4.307-1.468 5.942 0l26.838 24.088c1.23 1.104.89 1.999-.777 1.999H68.288z" stroke="#404F54" stroke-width="1.5" stroke-linecap="round"/><g transform="translate(107.01 66.55)"><ellipse fill="#FFF" cx="14.064" cy="13.674" rx="13.613" ry="13.613"/><ellipse fill="#71D5CA" cx="15.968" cy="15.579" rx="13.613" ry="13.613"/><ellipse fill="#1CC1B6" cx="16.926" cy="17.029" rx="11.669" ry="11.669"/><ellipse stroke="#404F54" stroke-width="1.5" stroke-linecap="round" cx="14.064" cy="13.674" rx="13.613" ry="13.613"/><path stroke="#FFF" stroke-width="4" stroke-linecap="round" stroke-linejoin="round" d="M10.444 13.29l2.886 2.754 5.77-5.553"/></g></g></svg>