<svg xmlns="http://www.w3.org/2000/svg" xmlns:xlink="http://www.w3.org/1999/xlink" width="142" height="139" viewBox="0 0 142 139"><title>payment copy</title><defs><path d="M22.6 38.094l-21.775-.07s4.356-9.767 5.083-21.37C6.634 5.051 8.162.064 12.627.064c4.464 0 6.173 3.51 6.173 5.02 0 1.51-1.594 18.618-1.594 18.618s.091 5.004 5.19 4.162c5.1-.842 13.843-4.637 13.843-4.637s3.619-1.538 3.619 2.71-10.357 4.77-10.357 4.77l-6.217.579s-3.231 1.093-3.231 2.804c0 1.712 2.546 4.004 2.546 4.004z" id="a"/><path d="M.918 57.76l25.731.413s-5.72-5.68-4.967-13.174c.753-7.494 4.956-29.944 4.956-29.944S30.92 6.736 25.2 2.391c-5.722-4.346-11.503 2.206-11.503 2.206s-2 2.289-2.683 8.123c-.682 5.835-3.144 34.177-3.144 34.177L.918 57.759z" id="c"/><path d="M.328.656S-1.36 11.89 8.251 13.053h36.433s-7.991.172-7.991-12.34L.328.656z" id="e"/></defs><g fill="none" fill-rule="evenodd"><path d="M-10-6h160v160H-10z"/><g transform="translate(10.812 5.335)" fill="#6aace6"><circle opacity=".383" cx="56.192" cy="66.749" r="56.192"/><ellipse opacity=".336" cx="71.779" cy="56.488" rx="56.192" ry="56.192"/></g><g transform="translate(1.38 1.123)" stroke="#C5D7E0" stroke-width="1.2" stroke-linecap="round"><path d="M24.471 5.896l-2.474-2.474m108.633 111.6l-2.475-2.474M2.807 35.668l3.03-1.75M9.39 68.581l3.03-1.75" fill="#DAE2E6"/><path d="M136.24 28.135a1.785 1.785 0 1 0 1.785-1.785M83.579 1.804A1.785 1.785 0 1 0 85.364.02" stroke-linejoin="round"/><ellipse stroke-linejoin="round" cx="134.61" cy="81.557" rx="1.241" ry="1.241"/><circle stroke-linejoin="round" cx="53.903" cy="135.362" r="1.241"/><ellipse stroke-linejoin="round" cx="1.242" cy="89.284" rx="1.241" ry="1.241"/><ellipse stroke-linejoin="round" cx="89.773" cy="126.395" rx="1.241" ry="1.241"/><ellipse stroke-linejoin="round" cx="67.354" cy="45.687" rx="1.241" ry="1.241"/></g><g transform="translate(87.283 80.534)"><mask id="b" fill="#fff"><use xlink:href="#a"/></mask><use fill="#E0EAEF" xlink:href="#a"/><path d="M6.173 39.756l6.25-29.343s1.46-6.382 6.818 0c5.357 6.382-6.296-15.087-6.296-15.087L1.583 2.646l-3.464 27.85-1.97 7.627 10.024 1.633z" fill="#BACED7" mask="url(#b)"/><path d="M4.663 27.858s13.717 1.906 18.738.426c5.02-1.479 15.36-11.465 15.36-11.465l8.123 11.4-2.125 12.673-33.56 4.826-12.807-2.663 6.271-15.197z" fill="#BACED7" mask="url(#b)"/><path d="M4.663 27.858s13.717 1.906 18.738.426c5.02-1.479 15.36-11.465 15.36-11.465l8.123 11.4-2.125 12.673-17.542-9.623H4.663v-3.41z" fill="#849FAA" mask="url(#b)"/></g><g transform="translate(53.79 60.199)"><mask id="d" fill="#fff"><use xlink:href="#c"/></mask><use fill="#E0EAEF" xlink:href="#c"/><path d="M11.263 59.236l4.294-41.17s1.13-10.505 11.663-2.547c10.533 7.957-9.862-25.262-9.862-25.262L6.174.138l-4.415 55.25-3.558 2.77 1.727 4.387 11.335-3.31z" fill="#BACED7" mask="url(#d)"/></g><path fill="#FFF" d="M23.884 103.605l3.3-34.438 2.018-4.845 4.322-2.728 3.75-.441H70.48l-3.368 4.103-1.522 3.708-4.266 37.423-.254 2.772-1.805 4.378-2.743 2.46-3.42.76-3.126.227-3.425-1.026-1.883-2.685-1.496-5.037v-3.94z"/><path d="M5.068 104.79s-1.48 12.374 7.42 12.374 11.068-8.068 11.068-12.059c0-3.99 3.452-35.311 3.452-35.311s1.098-8.52 10.154-8.52h36.239" stroke="#404F54" stroke-width="1.5" stroke-linecap="round"/><g transform="translate(5.942 104.458)"><mask id="f" fill="#fff"><use xlink:href="#e"/></mask><use fill="#E0EAEF" xlink:href="#e"/><path fill="#BACED8" mask="url(#f)" d="M-3.589 7.697H56.22v11.962H-3.589z"/></g><path d="M106.968 107.747H92.463m16.897 3.589H91.268" stroke="#404F54" stroke-width="1.5" stroke-linecap="round"/><path d="M34.058 72.351h15.805" stroke="#CDDDE1" stroke-width="2" stroke-linecap="round"/><path d="M58.646 71.122a2.92 2.92 0 0 0-.344-.186 2.95 2.95 0 0 0-.754-.251v.646c.043.01.088.022.136.04.048.016.098.031.151.046.234.071.446.15.635.237.19.086.35.187.485.305.134.117.236.26.308.427.072.167.108.37.108.61 0 .282-.05.522-.147.721a1.404 1.404 0 0 1-.388.488c-.16.127-.343.223-.549.287a2.714 2.714 0 0 1-.639.119v.868h-.574v-.883a4.706 4.706 0 0 1-.983-.194 4.062 4.062 0 0 1-.876-.38l.603-1.227a4.433 4.433 0 0 0 .851.412c.165.06.333.102.506.126v-.632a5.263 5.263 0 0 1-.445-.136 3.754 3.754 0 0 1-.582-.248 1.577 1.577 0 0 1-.402-.301 1.077 1.077 0 0 1-.233-.384 1.496 1.496 0 0 1-.075-.495c0-.259.043-.487.13-.686a1.58 1.58 0 0 1 .35-.513 1.73 1.73 0 0 1 .521-.344 2.16 2.16 0 0 1 .635-.165v-.725h.574v.732c.158.019.311.048.46.086.148.038.29.083.427.133.136.05.264.103.384.158.12.055.23.106.33.154l-.603 1.155zm-.782 2.01a.228.228 0 0 0-.086-.176.796.796 0 0 0-.23-.133v.532a.467.467 0 0 0 .244-.072.184.184 0 0 0 .072-.15zm-.976-2.225c0 .072.024.13.071.176a.68.68 0 0 0 .216.126v-.546c-.192.024-.287.105-.287.244zm-.634 14.57a2.92 2.92 0 0 0-.345-.187 2.95 2.95 0 0 0-.753-.251v.646c.043.01.088.023.136.04.048.016.098.032.15.046.235.072.447.15.636.237.189.086.35.188.484.305.134.117.237.26.309.427.072.167.108.37.108.61 0 .282-.05.523-.148.721a1.404 1.404 0 0 1-.387.488c-.16.127-.343.223-.55.287a2.714 2.714 0 0 1-.638.119v.868h-.574v-.883a4.706 4.706 0 0 1-.983-.193 4.062 4.062 0 0 1-.876-.38l.603-1.228a4.543 4.543 0 0 0 .85.413c.165.06.334.101.506.125v-.631a5.263 5.263 0 0 1-.445-.137 3.754 3.754 0 0 1-.581-.247 1.577 1.577 0 0 1-.402-.302 1.077 1.077 0 0 1-.233-.384 1.496 1.496 0 0 1-.076-.495c0-.258.044-.487.13-.685a1.58 1.58 0 0 1 .351-.514 1.73 1.73 0 0 1 .52-.344 2.16 2.16 0 0 1 .636-.165v-.725h.574v.732a3.776 3.776 0 0 1 .886.219c.137.05.265.103.384.158.12.055.23.106.33.154l-.602 1.156zm-.783 2.01a.228.228 0 0 0-.086-.177.796.796 0 0 0-.23-.132v.53a.463.463 0 0 0 .245-.071.184.184 0 0 0 .071-.15zm-.976-2.226c0 .072.024.13.072.176a.68.68 0 0 0 .215.126v-.546c-.191.024-.287.106-.287.244zm.562 10.981a2.92 2.92 0 0 0-.344-.186 2.95 2.95 0 0 0-.754-.251v.646c.043.01.089.022.137.039.048.017.098.032.15.047.235.071.447.15.636.236.189.087.35.188.484.306.134.117.237.26.309.427.071.167.107.37.107.61 0 .282-.049.522-.147.72a1.404 1.404 0 0 1-.387.489c-.16.127-.344.222-.55.287a2.714 2.714 0 0 1-.638.118v.869h-.574v-.883a4.706 4.706 0 0 1-.984-.194 4.062 4.062 0 0 1-.875-.38l.603-1.227a4.414 4.414 0 0 0 .85.412c.165.06.334.102.506.126v-.632a5.263 5.263 0 0 1-.445-.136 3.754 3.754 0 0 1-.581-.248 1.577 1.577 0 0 1-.402-.301 1.077 1.077 0 0 1-.233-.384 1.496 1.496 0 0 1-.076-.495c0-.259.043-.487.13-.686a1.58 1.58 0 0 1 .351-.513 1.73 1.73 0 0 1 .52-.344 2.16 2.16 0 0 1 .636-.165v-.725h.574v.732c.158.019.31.048.46.086a5.008 5.008 0 0 1 .81.291c.12.055.23.106.33.154l-.603 1.155zm-.782 2.01a.228.228 0 0 0-.086-.176.796.796 0 0 0-.23-.133v.531c.115-.01.197-.033.244-.071a.184.184 0 0 0 .072-.151zm-.976-2.225c0 .072.024.13.072.176a.68.68 0 0 0 .215.125v-.545c-.191.024-.287.105-.287.244z" fill="#4d90cc"/><path d="M32.483 86.705h3.844m5.726 0H44.7m-13.645 9.95h11.02" stroke="#CDDDE1" stroke-width="2" stroke-linecap="round"/><path fill="#FFF" d="M79.69 80.828h17.873l-2.835 4.387-1.742 13.832-1.865 10.775-2.228 6.864-2.289.826-5.32.407-3.472-2.531-1.75-5.271.788-10.184z"/><path d="M79.69 80.828l6.914.178s-7.866 30.846-3.698 37.188l-5.094-2.806-1.75-5.271.788-10.184 2.84-19.105z" fill="#EBF2F4"/><path d="M43.346 104.79s-1.48 12.374 7.42 12.374 11.068-8.068 11.068-12.059c0-3.99 3.452-35.311 3.452-35.311s2.193-10.385 10.6-8.175c8.405 2.21 4.818 12.482 4.818 12.482s-7.085 35.963-3.615 40.469c3.47 4.505 7.69 3.592 9.299 3.093 1.608-.499 5.652-.499 8.12-30.944 0 0 .286-6.04 6.175-6.04s5.391 6.43 5.391 6.43l-1.431 13.257s-1.563 8.564 4.341 7.858c5.904-.707 11.494-3.434 11.494-3.434s6.633-2.512 6.633.89-4.416 4.46-4.416 4.46c-4.217 1.65-11.637.635-13.71 2.04-2.818 1.909-1.407 4.263.708 4.984 2.116.721 11.377-2.595 15.641-1.298" stroke="#404F54" stroke-width="1.5" stroke-linecap="round"/><path d="M5.427 104.159h37.486" stroke="#404F54" stroke-width="1.5" stroke-linecap="round" fill="#404F54"/><path d="M100.314 80.534H80.51M3.118 118.513h133.224" stroke="#404F54" stroke-width="1.5" stroke-linecap="round"/><g transform="translate(13.118 82.12)"><path d="M18.107 9.72S19.695 1.787 24.93.608c5.234-1.18 2.826 3.221 2.826 3.221s3.28-.868 3.28 5.32c0 6.189-3.53 3.15-3.53 3.15l-9.4-2.58z" stroke="#404F54" stroke-width="1.5" stroke-linecap="round" stroke-linejoin="round" fill="#6aace6"/><path d="M18.107 10.474s1.228-6.135 5.276-7.047c4.048-.912 2.186 2.49 2.186 2.49s2.537-.67 2.537 4.115c0 4.786-2.731 2.437-2.731 2.437l-7.268-1.995z" fill="#4d90cc"/><rect stroke="#404F54" stroke-width="1.5" stroke-linecap="round" fill="#FF8F5C" x="15.786" y="6.545" width="7.997" height="6.115" rx="3.058"/><rect stroke="#404F54" stroke-width="2" stroke-linecap="round" fill="#FF8F5C" x="15.786" y="10.349" width="7.997" height="6.115" rx="3.058"/><path d="M13.178 36.692C5.9 36.692 0 30.792 0 23.514c0-7.277 5.9-13.177 13.178-13.177 2.272 0 4.41.575 6.275 1.587a13.12 13.12 0 0 1 6.275-1.587c7.278 0 13.178 5.9 13.178 13.177 0 7.278-5.9 13.178-13.178 13.178h-12.55z" stroke="#404F54" stroke-width="1.5" stroke-linecap="round" fill="#4d90cc"/><path d="M12.938 31.364c-5.375 0-9.731-4.357-9.731-9.731s4.356-9.73 9.73-9.73a9.69 9.69 0 0 1 4.634 1.171 9.687 9.687 0 0 1 4.634-1.172c5.374 0 9.73 4.357 9.73 9.73 0 5.375-4.356 9.732-9.73 9.732h-9.267z" fill="#6aace6"/><path d="M19.252 21.965a1.063 1.063 0 0 0-.244-.184 4.456 4.456 0 0 0-.957-.427 3.061 3.061 0 0 0-.606-.125v1.872l.27.065c.375.101.716.21 1.023.325.306.115.566.26.779.432.213.173.377.38.492.622.115.242.173.54.173.893 0 .397-.07.736-.21 1.017a1.943 1.943 0 0 1-.574.693c-.242.18-.523.315-.844.405a4.39 4.39 0 0 1-1.012.157v1.19h-.649v-1.2a5.613 5.613 0 0 1-2.78-.974l.66-1.288c.057.058.156.134.297.227.14.094.31.186.508.276.199.09.419.175.66.254.242.08.493.134.752.163v-1.861a3.84 3.84 0 0 1-.39-.108 6.99 6.99 0 0 1-.957-.33 2.517 2.517 0 0 1-.676-.422 1.581 1.581 0 0 1-.406-.563 1.949 1.949 0 0 1-.135-.763c0-.36.063-.683.19-.968.126-.285.299-.528.519-.73.22-.202.481-.361.784-.476a3.55 3.55 0 0 1 .974-.217v-1.103h.65v1.092c.475.036.913.134 1.314.292.4.16.752.343 1.055.552l-.66 1.212zm-.66 3.625a.655.655 0 0 0-.303-.574c-.202-.137-.484-.263-.844-.379v1.742c.764-.021 1.147-.285 1.147-.79zm-2.63-3.517c0 .245.085.431.255.557.17.127.427.24.773.341v-1.753c-.685.044-1.027.329-1.027.855z" fill="#FFF"/><path d="M17.355 14.466s.815-1.63 2.43-2.623" stroke="#404F54" stroke-width="1.5" stroke-linecap="round"/><path d="M27.95 3.694s-2.29.496-4.545 2.928" stroke="#404F54" stroke-width="1.5" stroke-linecap="round" fill="#85DAD2"/></g><g transform="translate(76.656 9.845)"><path stroke="#404F54" stroke-width="1.5" stroke-linecap="round" fill="#4d90cc" d="M10 30h24v27l-12.31-7L10 57z"/><circle fill="#6aace6" cx="24.218" cy="23.383" r="21.713"/><ellipse fill="#4d90cc" cx="26.934" cy="25.264" rx="17.326" ry="17.326"/><path d="M4.815 8.347a22.178 22.178 0 0 0-1.83 2.676M.93 15.762A22.132 22.132 0 0 0 0 22.13c0 12.222 9.908 22.13 22.13 22.13s22.13-9.908 22.13-22.13S34.352 0 22.13 0a22.03 22.03 0 0 0-10.896 2.864" stroke="#404F54" stroke-width="1.5" stroke-linecap="round"/></g><path d="M91.37 36.39h3.247V24.405H92.22l-3.485.986.629 2.55 2.006-.459v8.908zm5.846 0h3.4l1.445-2.363 1.428 2.363h3.468l-3.093-4.658 3.025-4.539h-3.416l-1.36 2.261-1.36-2.26h-3.486l3.043 4.555-3.094 4.641z" fill="#FFF"/><g transform="translate(76.642 61.782)"><path stroke="#404F54" stroke-width="1.5" stroke-linecap="round" stroke-linejoin="round" fill="#FFF" d="M2.201 28.063h55.026l-5.503 28.063H7.704z"/><path d="M3.539 35.047L7.864 55.96l20.844-.01s-6.591-6.56 1.233-8.736c7.824-2.177 18.64-6.883 11.396-10.392-7.244-3.508-14.216 2.564-20.412 1.534s-6.882-3.793-16.699-3.793l-.687.484z" fill="#6aace6"/><path d="M5.19 42.057L8.064 55.96l13.857-.006s-4.382-4.361.82-5.808c5.201-1.448 12.391-4.576 7.575-6.909-4.815-2.332-9.45 1.705-13.57 1.02-4.118-.684-4.574-2.521-11.1-2.521l-.458.321z" fill="#4d90cc"/><path stroke="#404F54" stroke-width="1.5" stroke-linecap="round" stroke-linejoin="round" d="M2.201 28.063h55.026l-5.503 28.063H7.704z"/><rect stroke="#404F54" stroke-width="1.5" stroke-linecap="round" fill="#FFF" y="26.412" width="59.428" height="3.541" rx="1.771"/><path d="M5.037 39.928H48.45M6.138 45.43h32.407M7.238 50.933H28.64M13.75 55.96l-3.277-20.235m9.881 20.235l-3.278-20.235m9.267 13.05l-2.114-13.05" stroke="#404F54" stroke-width="1.5" stroke-linecap="round"/><rect stroke="#404F54" stroke-width="1.5" stroke-linecap="round" fill="#FFF" transform="rotate(30 37.693 16.157)" x="36.317" y="-1.176" width="2.751" height="34.666" rx="1.376"/></g></g><div xmlns="" id="screen-shader" style="&#10;            transition: opacity 0.1s ease 0s; &#10;            z-index: 2147483647;&#10;            margin: 0; &#10;            border-radius: 0; &#10;            padding: 0; &#10;            background: #fac563; &#10;            pointer-events: none; &#10;            position: fixed; &#10;            top: -10%; &#10;            right: -10%; &#10;            width: 120%; &#10;            height: 120%; &#10;            opacity: 0.5840;&#10;            mix-blend-mode: multiply; &#10;            display: none;&#10;        "/></svg>
