<svg width="142" height="139" viewBox="0 0 142 139" xmlns="http://www.w3.org/2000/svg" xmlns:xlink="http://www.w3.org/1999/xlink"><title>payment</title><defs><path d="M22.6 38.094l-21.775-.07s4.356-9.767 5.083-21.37C6.634 5.051 8.162.064 12.627.064c4.464 0 6.173 3.51 6.173 5.02 0 1.51-1.594 18.618-1.594 18.618s.091 5.004 5.19 4.162c5.1-.842 13.843-4.637 13.843-4.637s3.619-1.538 3.619 2.71-10.357 4.77-10.357 4.77l-6.217.579s-3.231 1.093-3.231 2.804c0 1.712 2.546 4.004 2.546 4.004z" id="a"/><path d="M.918 57.76l25.731.413s-5.72-5.68-4.967-13.174c.753-7.494 4.956-29.944 4.956-29.944S30.92 6.736 25.2 2.391c-5.722-4.346-11.503 2.206-11.503 2.206s-2 2.289-2.683 8.123c-.682 5.835-3.144 34.177-3.144 34.177L.918 57.759z" id="c"/><path d="M.328.656S-1.36 11.89 8.251 13.053h36.433s-7.991.172-7.991-12.34L.328.656z" id="e"/></defs><g fill="none" fill-rule="evenodd"><path d="M-10-6h160v160H-10z"/><g transform="translate(10.812 5.335)" fill="#DDECEA"><circle opacity=".383" cx="56.192" cy="66.749" r="56.192"/><ellipse opacity=".336" cx="71.779" cy="56.488" rx="56.192" ry="56.192"/></g><g transform="translate(1.38 1.123)" stroke="#C5D7E0" stroke-width="1.2" stroke-linecap="round"><path d="M24.471 5.896l-2.474-2.474m108.633 111.6l-2.475-2.474M2.807 35.668l3.03-1.75M9.39 68.581l3.03-1.75" fill="#DAE2E6"/><path d="M136.24 28.135a1.785 1.785 0 1 0 1.785-1.785M83.579 1.804A1.785 1.785 0 1 0 85.364.02" stroke-linejoin="round"/><ellipse stroke-linejoin="round" cx="134.61" cy="81.557" rx="1.241" ry="1.241"/><circle stroke-linejoin="round" cx="53.903" cy="135.362" r="1.241"/><ellipse stroke-linejoin="round" cx="1.242" cy="89.284" rx="1.241" ry="1.241"/><ellipse stroke-linejoin="round" cx="89.773" cy="126.395" rx="1.241" ry="1.241"/><ellipse stroke-linejoin="round" cx="67.354" cy="45.687" rx="1.241" ry="1.241"/></g><g transform="translate(87.283 80.534)"><mask id="b" fill="#fff"><use xlink:href="#a"/></mask><use fill="#E0EAEF" xlink:href="#a"/><path d="M6.173 39.756l6.25-29.343s1.46-6.382 6.818 0c5.357 6.382-6.296-15.087-6.296-15.087L1.583 2.646l-3.464 27.85-1.97 7.627 10.024 1.633z" fill="#BACED7" mask="url(#b)"/><path d="M4.663 27.858s13.717 1.906 18.738.426c5.02-1.479 15.36-11.465 15.36-11.465l8.123 11.4-2.125 12.673-33.56 4.826-12.807-2.663 6.271-15.197z" fill="#BACED7" mask="url(#b)"/><path d="M4.663 27.858s13.717 1.906 18.738.426c5.02-1.479 15.36-11.465 15.36-11.465l8.123 11.4-2.125 12.673-17.542-9.623H4.663v-3.41z" fill="#849FAA" mask="url(#b)"/></g><g transform="translate(53.79 60.199)"><mask id="d" fill="#fff"><use xlink:href="#c"/></mask><use fill="#E0EAEF" xlink:href="#c"/><path d="M11.263 59.236l4.294-41.17s1.13-10.505 11.663-2.547c10.533 7.957-9.862-25.262-9.862-25.262L6.174.138l-4.415 55.25-3.558 2.77 1.727 4.387 11.335-3.31z" fill="#BACED7" mask="url(#d)"/></g><path fill="#FFF" d="M23.884 103.605l3.3-34.438 2.018-4.845 4.322-2.728 3.75-.441H70.48l-3.368 4.103-1.522 3.708-4.266 37.423-.254 2.772-1.805 4.378-2.743 2.46-3.42.76-3.126.227-3.425-1.026-1.883-2.685-1.496-5.037v-3.94z"/><path d="M5.068 104.79s-1.48 12.374 7.42 12.374 11.068-8.068 11.068-12.059c0-3.99 3.452-35.311 3.452-35.311s1.098-8.52 10.154-8.52h36.239" stroke="#404F54" stroke-width="1.5" stroke-linecap="round"/><g transform="translate(5.942 104.458)"><mask id="f" fill="#fff"><use xlink:href="#e"/></mask><use fill="#E0EAEF" xlink:href="#e"/><path fill="#BACED8" mask="url(#f)" d="M-3.589 7.697H56.22v11.962H-3.589z"/></g><path d="M106.968 107.747H92.463m16.897 3.589H91.268" stroke="#404F54" stroke-width="1.5" stroke-linecap="round"/><path d="M34.058 72.351h15.805" stroke="#CDDDE1" stroke-width="2" stroke-linecap="round"/><path d="M58.646 71.122a2.92 2.92 0 0 0-.344-.186 2.95 2.95 0 0 0-.754-.251v.646c.043.01.088.022.136.04.048.016.098.031.151.046.234.071.446.15.635.237.19.086.35.187.485.305.134.117.236.26.308.427.072.167.108.37.108.61 0 .282-.05.522-.147.721a1.404 1.404 0 0 1-.388.488c-.16.127-.343.223-.549.287a2.714 2.714 0 0 1-.639.119v.868h-.574v-.883a4.706 4.706 0 0 1-.983-.194 4.062 4.062 0 0 1-.876-.38l.603-1.227a4.433 4.433 0 0 0 .851.412c.165.06.333.102.506.126v-.632a5.263 5.263 0 0 1-.445-.136 3.754 3.754 0 0 1-.582-.248 1.577 1.577 0 0 1-.402-.301 1.077 1.077 0 0 1-.233-.384 1.496 1.496 0 0 1-.075-.495c0-.259.043-.487.13-.686a1.58 1.58 0 0 1 .35-.513 1.73 1.73 0 0 1 .521-.344 2.16 2.16 0 0 1 .635-.165v-.725h.574v.732c.158.019.311.048.46.086.148.038.29.083.427.133.136.05.264.103.384.158.12.055.23.106.33.154l-.603 1.155zm-.782 2.01a.228.228 0 0 0-.086-.176.796.796 0 0 0-.23-.133v.532a.467.467 0 0 0 .244-.072.184.184 0 0 0 .072-.15zm-.976-2.225c0 .072.024.13.071.176a.68.68 0 0 0 .216.126v-.546c-.192.024-.287.105-.287.244zm-.634 14.57a2.92 2.92 0 0 0-.345-.187 2.95 2.95 0 0 0-.753-.251v.646c.043.01.088.023.136.04.048.016.098.032.15.046.235.072.447.15.636.237.189.086.35.188.484.305.134.117.237.26.309.427.072.167.108.37.108.61 0 .282-.05.523-.148.721a1.404 1.404 0 0 1-.387.488c-.16.127-.343.223-.55.287a2.714 2.714 0 0 1-.638.119v.868h-.574v-.883a4.706 4.706 0 0 1-.983-.193 4.062 4.062 0 0 1-.876-.38l.603-1.228a4.543 4.543 0 0 0 .85.413c.165.06.334.101.506.125v-.631a5.263 5.263 0 0 1-.445-.137 3.754 3.754 0 0 1-.581-.247 1.577 1.577 0 0 1-.402-.302 1.077 1.077 0 0 1-.233-.384 1.496 1.496 0 0 1-.076-.495c0-.258.044-.487.13-.685a1.58 1.58 0 0 1 .351-.514 1.73 1.73 0 0 1 .52-.344 2.16 2.16 0 0 1 .636-.165v-.725h.574v.732a3.776 3.776 0 0 1 .886.219c.137.05.265.103.384.158.12.055.23.106.33.154l-.602 1.156zm-.783 2.01a.228.228 0 0 0-.086-.177.796.796 0 0 0-.23-.132v.53a.463.463 0 0 0 .245-.071.184.184 0 0 0 .071-.15zm-.976-2.226c0 .072.024.13.072.176a.68.68 0 0 0 .215.126v-.546c-.191.024-.287.106-.287.244zm.562 10.981a2.92 2.92 0 0 0-.344-.186 2.95 2.95 0 0 0-.754-.251v.646c.043.01.089.022.137.039.048.017.098.032.15.047.235.071.447.15.636.236.189.087.35.188.484.306.134.117.237.26.309.427.071.167.107.37.107.61 0 .282-.049.522-.147.72a1.404 1.404 0 0 1-.387.489c-.16.127-.344.222-.55.287a2.714 2.714 0 0 1-.638.118v.869h-.574v-.883a4.706 4.706 0 0 1-.984-.194 4.062 4.062 0 0 1-.875-.38l.603-1.227a4.414 4.414 0 0 0 .85.412c.165.06.334.102.506.126v-.632a5.263 5.263 0 0 1-.445-.136 3.754 3.754 0 0 1-.581-.248 1.577 1.577 0 0 1-.402-.301 1.077 1.077 0 0 1-.233-.384 1.496 1.496 0 0 1-.076-.495c0-.259.043-.487.13-.686a1.58 1.58 0 0 1 .351-.513 1.73 1.73 0 0 1 .52-.344 2.16 2.16 0 0 1 .636-.165v-.725h.574v.732c.158.019.31.048.46.086a5.008 5.008 0 0 1 .81.291c.12.055.23.106.33.154l-.603 1.155zm-.782 2.01a.228.228 0 0 0-.086-.176.796.796 0 0 0-.23-.133v.531c.115-.01.197-.033.244-.071a.184.184 0 0 0 .072-.151zm-.976-2.225c0 .072.024.13.072.176a.68.68 0 0 0 .215.125v-.545c-.191.024-.287.105-.287.244z" fill="#2FC3B6"/><path d="M32.483 86.705h3.844m5.726 0H44.7m-13.645 9.95h11.02" stroke="#CDDDE1" stroke-width="2" stroke-linecap="round"/><path fill="#FFF" d="M79.69 80.828h17.873l-2.835 4.387-1.742 13.832-1.865 10.775-2.228 6.864-2.289.826-5.32.407-3.472-2.531-1.75-5.271.788-10.184z"/><path d="M79.69 80.828l6.914.178s-7.866 30.846-3.698 37.188l-5.094-2.806-1.75-5.271.788-10.184 2.84-19.105z" fill="#EBF2F4"/><path d="M43.346 104.79s-1.48 12.374 7.42 12.374 11.068-8.068 11.068-12.059c0-3.99 3.452-35.311 3.452-35.311s2.193-10.385 10.6-8.175c8.405 2.21 4.818 12.482 4.818 12.482s-7.085 35.963-3.615 40.469c3.47 4.505 7.69 3.592 9.299 3.093 1.608-.499 5.652-.499 8.12-30.944 0 0 .286-6.04 6.175-6.04s5.391 6.43 5.391 6.43l-1.431 13.257s-1.563 8.564 4.341 7.858c5.904-.707 11.494-3.434 11.494-3.434s6.633-2.512 6.633.89-4.416 4.46-4.416 4.46c-4.217 1.65-11.637.635-13.71 2.04-2.818 1.909-1.407 4.263.708 4.984 2.116.721 11.377-2.595 15.641-1.298" stroke="#404F54" stroke-width="1.5" stroke-linecap="round"/><path d="M5.427 104.159h37.486" stroke="#404F54" stroke-width="1.5" stroke-linecap="round" fill="#404F54"/><path d="M100.314 80.534H80.51M3.118 118.513h133.224" stroke="#404F54" stroke-width="1.5" stroke-linecap="round"/><g transform="translate(95.656 82.12)"><path d="M18.107 9.72S19.695 1.787 24.93.608c5.234-1.18 2.826 3.221 2.826 3.221s3.28-.868 3.28 5.32c0 6.189-3.53 3.15-3.53 3.15l-9.4-2.58z" stroke="#404F54" stroke-width="1.5" stroke-linecap="round" stroke-linejoin="round" fill="#85DAD2"/><path d="M18.107 10.474s1.228-6.135 5.276-7.047c4.048-.912 2.186 2.49 2.186 2.49s2.537-.67 2.537 4.115c0 4.786-2.731 2.437-2.731 2.437l-7.268-1.995z" fill="#2FC3B6"/><rect stroke="#404F54" stroke-width="1.5" stroke-linecap="round" fill="#FF8F5C" x="15.786" y="6.545" width="7.997" height="6.115" rx="3.058"/><rect stroke="#404F54" stroke-width="2" stroke-linecap="round" fill="#FF8F5C" x="15.786" y="10.349" width="7.997" height="6.115" rx="3.058"/><path d="M13.178 36.692C5.9 36.692 0 30.792 0 23.514c0-7.277 5.9-13.177 13.178-13.177 2.272 0 4.41.575 6.275 1.587a13.12 13.12 0 0 1 6.275-1.587c7.278 0 13.178 5.9 13.178 13.177 0 7.278-5.9 13.178-13.178 13.178h-12.55z" stroke="#404F54" stroke-width="1.5" stroke-linecap="round" fill="#2FC3B6"/><path d="M12.938 31.364c-5.375 0-9.731-4.357-9.731-9.731s4.356-9.73 9.73-9.73a9.69 9.69 0 0 1 4.634 1.171 9.687 9.687 0 0 1 4.634-1.172c5.374 0 9.73 4.357 9.73 9.73 0 5.375-4.356 9.732-9.73 9.732h-9.267z" fill="#85DAD2"/><path d="M19.252 21.965a1.063 1.063 0 0 0-.244-.184 4.456 4.456 0 0 0-.957-.427 3.061 3.061 0 0 0-.606-.125v1.872l.27.065c.375.101.716.21 1.023.325.306.115.566.26.779.432.213.173.377.38.492.622.115.242.173.54.173.893 0 .397-.07.736-.21 1.017a1.943 1.943 0 0 1-.574.693c-.242.18-.523.315-.844.405a4.39 4.39 0 0 1-1.012.157v1.19h-.649v-1.2a5.613 5.613 0 0 1-2.78-.974l.66-1.288c.057.058.156.134.297.227.14.094.31.186.508.276.199.09.419.175.66.254.242.08.493.134.752.163v-1.861a3.84 3.84 0 0 1-.39-.108 6.99 6.99 0 0 1-.957-.33 2.517 2.517 0 0 1-.676-.422 1.581 1.581 0 0 1-.406-.563 1.949 1.949 0 0 1-.135-.763c0-.36.063-.683.19-.968.126-.285.299-.528.519-.73.22-.202.481-.361.784-.476a3.55 3.55 0 0 1 .974-.217v-1.103h.65v1.092c.475.036.913.134 1.314.292.4.16.752.343 1.055.552l-.66 1.212zm-.66 3.625a.655.655 0 0 0-.303-.574c-.202-.137-.484-.263-.844-.379v1.742c.764-.021 1.147-.285 1.147-.79zm-2.63-3.517c0 .245.085.431.255.557.17.127.427.24.773.341v-1.753c-.685.044-1.027.329-1.027.855z" fill="#FFF"/><path d="M17.355 14.466s.815-1.63 2.43-2.623" stroke="#404F54" stroke-width="1.5" stroke-linecap="round"/><path d="M27.95 3.694s-2.29.496-4.545 2.928" stroke="#404F54" stroke-width="1.5" stroke-linecap="round" fill="#85DAD2"/></g><g transform="translate(1.157 45.845)"><ellipse fill="#FFAF8B" cx="22.643" cy="21.862" rx="20.3" ry="20.3"/><ellipse fill="#FF8F5C" cx="25.182" cy="23.621" rx="16.199" ry="16.199"/><path d="M4.502 7.804a20.735 20.735 0 0 0-1.711 2.502M.87 14.736A20.692 20.692 0 0 0 0 20.691c0 11.427 9.264 20.69 20.69 20.69 11.428 0 20.691-9.263 20.691-20.69C41.381 9.264 32.118 0 20.691 0c-3.704 0-7.18.973-10.188 2.678" stroke="#404F54" stroke-width="1.5" stroke-linecap="round"/><path d="M24.926 18.5c-.071-.085-.206-.186-.404-.306a7.396 7.396 0 0 0-1.589-.71 5.081 5.081 0 0 0-1.006-.206v3.107l.45.107a18.44 18.44 0 0 1 1.696.54c.51.19.94.43 1.293.717.354.288.626.632.818 1.033.191.401.287.895.287 1.482 0 .658-.117 1.22-.35 1.688a3.19 3.19 0 0 1-.952 1.149c-.401.3-.868.524-1.4.673a7.288 7.288 0 0 1-1.68.26v1.976h-1.077v-1.993a9.317 9.317 0 0 1-2.452-.512 8.876 8.876 0 0 1-2.164-1.104l1.096-2.137c.096.095.26.221.494.377.233.155.515.308.844.458.329.15.694.29 1.095.422.401.131.817.221 1.248.269v-3.089a6.373 6.373 0 0 1-.646-.18c-.61-.167-1.14-.35-1.59-.547a4.178 4.178 0 0 1-1.122-.7c-.3-.27-.524-.581-.673-.934-.15-.353-.225-.775-.225-1.266 0-.599.105-1.135.314-1.608.21-.472.497-.876.862-1.212.366-.335.8-.598 1.302-.79a5.891 5.891 0 0 1 1.617-.359v-1.832h1.077v1.814c.79.06 1.518.222 2.182.485a8.74 8.74 0 0 1 1.75.916l-1.095 2.011zm-1.095 6.015c0-.407-.168-.724-.503-.952-.335-.227-.802-.437-1.4-.628v2.89c1.269-.035 1.903-.472 1.903-1.31zm-4.364-5.836c0 .407.14.715.422.924.282.21.71.399 1.284.566V17.26c-1.137.072-1.706.545-1.706 1.419z" fill="#FFF"/><path d="M35.22 43.133a20.79 20.79 0 0 0 7.595-7.945" stroke="#404F54" stroke-width="1.5" stroke-linecap="round"/></g><g transform="translate(69.34 3.38)"><rect stroke="#404F54" stroke-width="1.5" stroke-linecap="round" fill="#404F54" opacity=".191" y="14.028" width="55.09" height="49.581" rx="8"/><rect stroke="#404F54" stroke-width="1.5" stroke-linecap="round" fill="#E0EAEF" x="2.842" y="11.186" width="55.09" height="49.581" rx="8"/><rect stroke="#404F54" stroke-width="1.5" stroke-linecap="round" fill="#404F54" opacity=".166" x="4.678" y="7.809" width="51.417" height="49.581" rx="8"/><rect stroke="#404F54" stroke-width="1.5" stroke-linecap="round" fill="#FFF" x="4.678" y="5.677" width="51.417" height="49.581" rx="8"/><ellipse fill="#2EA89E" cx="16.697" cy="30.908" rx="3.197" ry="3.197"/><circle fill="#BED4DF" cx="30.908" cy="30.908" r="1.066"/><ellipse fill="#BED4DF" cx="43.697" cy="30.908" rx="1.066" ry="1.066"/><ellipse fill="#BED4DF" cx="30.908" cy="42.986" rx="1.066" ry="1.066"/><ellipse fill="#BED4DF" cx="17.408" cy="42.986" rx="1.066" ry="1.066"/><ellipse fill="#BED4DF" cx="43.697" cy="42.986" rx="1.066" ry="1.066"/><rect stroke="#404F54" stroke-width="1.5" stroke-linecap="round" fill="#FF8F5C" x="4.678" y="5.677" width="51.417" height="13.773" rx="6.886"/><path fill="#E0EAEF" d="M5.218 19.981h50.357v2.855H5.218z"/><ellipse fill="#DE6B37" cx="46.894" cy="12.789" rx="3.553" ry="3.553"/><ellipse fill="#DE6B37" cx="14.921" cy="12.789" rx="3.553" ry="3.553"/><rect stroke="#404F54" stroke-width="1.5" stroke-linecap="round" fill="#FFF" x="12.553" y=".168" width="3.553" height="13.773" rx="1.776"/><rect stroke="#404F54" stroke-width="1.5" stroke-linecap="round" fill="#FFF" x="44.656" y=".168" width="3.553" height="13.773" rx="1.776"/></g></g></svg>