<svg width="60" height="60" viewBox="0 0 60 60" xmlns="http://www.w3.org/2000/svg"><title>Bagitems</title><g fill="#535353" fill-rule="evenodd"><path d="M51.019 57H9a1 1 0 0 1-.999-1.05l2.154-43c.028-.532.466-.95.999-.95h37.692c.533 0 .971.418.999.95l2.144 42.801a1 1 0 0 1-.97 1.249zm-40.967-2h39.896l-2.054-41H12.106l-2.054 41z"/><path d="M37 33H23a1 1 0 1 1 0-2h14a1 1 0 1 1 0 2m0 4H23a1 1 0 1 1 0-2h14a1 1 0 1 1 0 2m0 4H23a1 1 0 1 1 0-2h14a1 1 0 1 1 0 2m2-20c-1.654 0-3-1.346-3-3s1.346-3 3-3 3 1.346 3 3-1.346 3-3 3zm0-4a1.001 1.001 0 0 0 0 2 1.001 1.001 0 0 0 0-2zm-18 4c-1.654 0-3-1.346-3-3s1.346-3 3-3 3 1.346 3 3-1.346 3-3 3zm0-4a1.001 1.001 0 0 0 0 2 1.001 1.001 0 0 0 0-2z"/><path d="M41 19a1 1 0 0 1-1-1c0-5.514-4.486-10-10-10s-10 4.486-10 10a1 1 0 1 1-2 0c0-6.617 5.383-12 12-12s12 5.383 12 12a1 1 0 0 1-1 1"/></g></svg>