<svg xmlns="http://www.w3.org/2000/svg" xmlns:xlink="http://www.w3.org/1999/xlink" width="438px" height="274px" viewBox="0 0 438 274" version="1.1">
    <!-- Generator: Sketch 41 (35326) - http://www.bohemiancoding.com/sketch -->
    <title>step-beauty</title>
    <desc>Created with Sketch.</desc>
    <defs>
        <linearGradient x1="50%" y1="32.1246713%" x2="50%" y2="128.278759%" id="linearGradient-1">
            <stop stop-color="#FFFFFF" offset="0%"/>
            <stop stop-color="#FF8F5C" offset="100%"/>
        </linearGradient>
    </defs>
    <g id="Page-1" stroke="none" stroke-width="1" fill="none" fill-rule="evenodd">
        <g id="Exports" transform="translate(0.000000, -55.000000)">
            <g id="step-beauty" transform="translate(0.000000, 56.000000)">
                <path d="M225.937465,235.224448 L212.037607,68.430825" id="Path-21-Copy-2" stroke="#FF8F5C" stroke-width="2" stroke-linecap="round" stroke-dasharray="5,7,2" fill-opacity="0.2" fill="#FF9869" opacity="0.137001812" transform="translate(218.987536, 151.827637) scale(-1, 1) translate(-218.987536, -151.827637) "/>
                <g id="bg-ilustrasi" transform="translate(0.797033, 0.063988)">
                    <path d="M3.77396662,122.757344 C3.77396662,122.757344 4.70900417,124.229132 5.30080312,124.820931 C5.91081864,125.430946 7.37941003,126.362788 7.37941003,126.362788 C7.37941003,126.362788 5.88503846,127.348534 5.30080312,127.932769 C4.68322399,128.550348 3.77396662,129.968231 3.77396662,129.968231 C3.77396662,129.968231 2.85821095,128.505179 2.2858004,127.932769 C1.65639648,127.303365 0.168523211,126.362788 0.168523211,126.362788 C0.168523211,126.362788 1.66603741,125.440694 2.2858004,124.820931 C2.86785188,124.238879 3.77396662,122.757344 3.77396662,122.757344 Z" id="Polygon" fill="#DAE2E6"/>
                    <path d="M416.734949,201.233166 C416.734949,201.233166 417.71418,202.774517 418.33395,203.394287 C418.972798,204.033134 420.510802,205.009019 420.510802,205.009019 C420.510802,205.009019 418.945799,206.041356 418.33395,206.653205 C417.687182,207.299973 416.734949,208.784872 416.734949,208.784872 C416.734949,208.784872 415.77591,207.25267 415.176445,206.653205 C414.517293,205.994052 412.959096,205.009019 412.959096,205.009019 C412.959096,205.009019 414.527389,204.043343 415.176445,203.394287 C415.786007,202.784725 416.734949,201.233166 416.734949,201.233166 Z" id="Polygon-Copy-9" fill="#DAE2E6"/>
                    <path d="M367.750231,159.414767 C367.750231,159.414767 369.000229,161.382314 369.79137,162.173455 C370.606865,162.98895 372.57014,164.234675 372.57014,164.234675 C372.57014,164.234675 370.572401,165.552461 369.79137,166.333492 C368.965765,167.159098 367.750231,169.054584 367.750231,169.054584 C367.750231,169.054584 366.52601,167.098714 365.760788,166.333492 C364.919374,165.492078 362.930322,164.234675 362.930322,164.234675 C362.930322,164.234675 364.932262,163.001981 365.760788,162.173455 C366.538899,161.395345 367.750231,159.414767 367.750231,159.414767 Z" id="Polygon-Copy-4" fill="#DAE2E6"/>
                    <path d="M347.921291,60.9454628 C347.921291,60.9454628 349.171289,62.91301 349.96243,63.7041518 C350.777925,64.5196462 352.7412,65.7653714 352.7412,65.7653714 C352.7412,65.7653714 350.743461,67.0831577 349.96243,67.8641881 C349.136825,68.6897939 347.921291,70.5852799 347.921291,70.5852799 C347.921291,70.5852799 346.69707,68.6294106 345.931848,67.8641881 C345.090434,67.0227744 343.101382,65.7653714 343.101382,65.7653714 C343.101382,65.7653714 345.103322,64.532677 345.931848,63.7041518 C346.709959,62.9260409 347.921291,60.9454628 347.921291,60.9454628 Z" id="Polygon-Copy-8" fill="#DAE2E6"/>
                    <path d="M20.2360367,204.972191 C20.2360367,204.972191 21.0278724,206.218572 21.5290367,206.719737 C22.0456278,207.236328 23.289303,208.025457 23.289303,208.025457 C23.289303,208.025457 22.0237959,208.860235 21.5290367,209.354994 C21.0060404,209.87799 20.2360367,211.078723 20.2360367,211.078723 C20.2360367,211.078723 19.4605299,209.839739 18.9757846,209.354994 C18.4427745,208.821984 17.1827705,208.025457 17.1827705,208.025457 C17.1827705,208.025457 18.4509389,207.244582 18.9757846,206.719737 C19.4686943,206.226827 20.2360367,204.972191 20.2360367,204.972191 Z" id="Polygon-Copy-7" fill="#DAE2E6"/>
                    <path d="M65.2462774,187.26457 C65.2462774,187.26457 66.181315,188.736357 66.7731139,189.328156 C67.3831294,189.938171 68.8517208,190.870013 68.8517208,190.870013 C68.8517208,190.870013 67.3573493,191.855759 66.7731139,192.439994 C66.1555348,193.057573 65.2462774,194.475457 65.2462774,194.475457 C65.2462774,194.475457 64.3305217,193.012405 63.7581112,192.439994 C63.1287073,191.81059 61.640834,190.870013 61.640834,190.870013 C61.640834,190.870013 63.1383482,189.947919 63.7581112,189.328156 C64.3401627,188.746104 65.2462774,187.26457 65.2462774,187.26457 Z" id="Polygon-Copy" fill="#DAE2E6"/>
                    <path d="M224.197229,31.6287635 C224.197229,31.6287635 225.132266,33.1005508 225.724065,33.6923497 C226.334081,34.3023653 227.802672,35.2342069 227.802672,35.2342069 C227.802672,35.2342069 226.308301,36.2199526 225.724065,36.8041879 C225.106486,37.4217671 224.197229,38.8396503 224.197229,38.8396503 C224.197229,38.8396503 223.281473,37.3765985 222.709063,36.8041879 C222.079659,36.174784 220.591786,35.2342069 220.591786,35.2342069 C220.591786,35.2342069 222.0893,34.3121127 222.709063,33.6923497 C223.291114,33.1102983 224.197229,31.6287635 224.197229,31.6287635 Z" id="Polygon-Copy-3" fill="#DAE2E6"/>
                    <path d="M287.787289,54.2676523 C287.787289,54.2676523 288.722326,55.7394396 289.314125,56.3312385 C289.924141,56.941254 291.392732,57.8730957 291.392732,57.8730957 C291.392732,57.8730957 289.898361,58.8588414 289.314125,59.4430767 C288.696546,60.0606558 287.787289,61.4785391 287.787289,61.4785391 C287.787289,61.4785391 286.871533,60.0154873 286.299123,59.4430767 C285.669719,58.8136728 284.181845,57.8730957 284.181845,57.8730957 C284.181845,57.8730957 285.67936,56.9510015 286.299123,56.3312385 C286.881174,55.749187 287.787289,54.2676523 287.787289,54.2676523 Z" id="Polygon-Copy-6" fill="#DAE2E6"/>
                    <path d="M71.82355,48.8906977 C71.82355,48.8906977 72.5659465,50.0592601 73.0358201,50.5291338 C73.5201573,51.0134709 74.6861822,51.7533299 74.6861822,51.7533299 C74.6861822,51.7533299 73.4996884,52.5359874 73.0358201,52.9998557 C72.5454777,53.4901981 71.82355,54.6159621 71.82355,54.6159621 C71.82355,54.6159621 71.0964629,53.4543354 70.6419832,52.9998557 C70.1422521,52.5001247 68.9609179,51.7533299 68.9609179,51.7533299 C68.9609179,51.7533299 70.1499068,51.0212101 70.6419832,50.5291338 C71.1041175,50.0669994 71.82355,48.8906977 71.82355,48.8906977 Z" id="Polygon-Copy-2" fill="#DAE2E6"/>
                    <path d="M217.729153,132.728493 C217.729153,132.728493 218.47155,133.897055 218.941423,134.366929 C219.425761,134.851266 220.591786,135.591125 220.591786,135.591125 C220.591786,135.591125 219.405292,136.373783 218.941423,136.837651 C218.451081,137.327993 217.729153,138.453757 217.729153,138.453757 C217.729153,138.453757 217.002066,137.292131 216.547586,136.837651 C216.047855,136.33792 214.866521,135.591125 214.866521,135.591125 C214.866521,135.591125 216.05551,134.859005 216.547586,134.366929 C217.009721,133.904795 217.729153,132.728493 217.729153,132.728493 Z" id="Polygon-Copy-5" fill="#DAE2E6"/>
                    <path d="M384.944501,125.560052 L391.090501,120.630015" id="Path-66" stroke="#DAE2E6" stroke-width="2" stroke-linecap="round" fill="#DAE2E6"/>
                    <path d="M120.056343,71.9453111 L113.15932,65.0482881" id="Path-67" stroke="#DAE2E6" stroke-width="2" stroke-linecap="round" fill="#DAE2E6"/>
                    <path d="M31.4647104,163.122581 L24.5676873,156.225558" id="Path-67-Copy" stroke="#DAE2E6" stroke-width="2" stroke-linecap="round" fill="#DAE2E6"/>
                    <path d="M40.2645251,226.656036 L31.1810049,231.993041" id="Path-68" stroke="#DAE2E6" stroke-width="2" stroke-linecap="round" fill="#DAE2E6"/>
                    <path d="M399.367098,230.307671 L405.349485,230.307671" id="Path-69" stroke="#DAE2E6" stroke-width="2" stroke-linecap="round" fill="#DAE2E6"/>
                    <path d="M79.8788322,208.724865 C81.5173422,205.979757 82.4587741,202.770411 82.4587741,199.341182 C82.4587741,189.215067 74.249936,181.006229 64.123821,181.006229 C56.2631949,181.006229 49.5579184,185.952868 46.951066,192.903073" id="Oval-22" stroke="#DAE2E6" stroke-width="2" stroke-linecap="round" stroke-linejoin="round"/>
                    <path d="M434.40633,225.245237 C436.04484,222.500128 436.986271,219.290782 436.986271,215.861554 C436.986271,205.735439 428.777433,197.5266 418.651318,197.5266 C410.790692,197.5266 404.085416,202.47324 401.478563,209.423444" id="Oval-22-Copy-10" stroke="#DAE2E6" stroke-width="2" stroke-linecap="round" stroke-linejoin="round"/>
                    <path d="M98.2001006,29.7218557 C98.2001006,32.469828 100.427772,34.6974997 103.175745,34.6974997 L103.175745,34.6974997 C105.923717,34.6974997 108.151389,32.469828 108.151389,29.7218557 C108.151389,26.9738834 105.923717,24.7462117 103.175745,24.7462117" id="Oval-22-Copy-3" stroke="#DAE2E6" stroke-width="2" stroke-linecap="round" stroke-linejoin="round"/>
                    <ellipse id="Oval-22-Copy-8" stroke="#DAE2E6" stroke-width="2" stroke-linecap="round" stroke-linejoin="round" cx="372.725875" cy="209.684418" rx="4.975644" ry="4.975644"/>
                    <ellipse id="Oval-22-Copy-7" stroke="#DAE2E6" stroke-width="2" stroke-linecap="round" stroke-linejoin="round" cx="168.648102" cy="3.65848757" rx="3.46000222" ry="3.46000222"/>
                    <path d="M390.003108,154.427377 C390.003108,149.930527 386.357691,146.28511 381.860841,146.28511 C377.363991,146.28511 373.718574,149.930527 373.718574,154.427377" id="Oval-22-Copy-4" stroke="#DAE2E6" stroke-width="2" stroke-linecap="round" stroke-linejoin="round"/>
                    <path d="M65.2462774,218.805333 C65.2462774,213.870585 63.9500592,209.238584 61.6795287,205.231237 M56.9858114,199.124312 C52.0107675,194.241143 45.1923318,191.229559 37.6705029,191.229559 C23.3664607,191.229559 11.6061354,202.120505 10.2294244,216.062501" id="Oval-22-Copy" stroke="#DAE2E6" stroke-width="2" stroke-linecap="round" stroke-linejoin="round"/>
                    <path d="M361.511009,79.3779088 C361.747966,77.923564 361.871161,76.4310137 361.871161,74.9096897 C361.871161,59.68001 349.525066,47.3339152 334.295387,47.3339152 C321.841032,47.3339152 311.315062,55.5903109 307.892326,66.9282533" id="Oval-22-Copy-6" stroke="#DAE2E6" stroke-width="2" stroke-linecap="round" stroke-linejoin="round"/>
                    <path d="M366.93601,86.5374944 C366.93601,82.6987891 363.824125,79.5869036 359.985419,79.5869036 C356.146714,79.5869036 353.034828,82.6987891 353.034828,86.5374944" id="Oval-22-Copy-9" stroke="#DAE2E6" stroke-width="2" stroke-linecap="round" stroke-linejoin="round"/>
                    <path d="M21.4898673,221.946113 C19.4385804,218.721743 15.8335683,216.582517 11.7289131,216.582517 C5.34428606,216.582517 0.168523211,221.75828 0.168523211,228.142907" id="Oval-22-Copy-2" stroke="#DAE2E6" stroke-width="2" stroke-linecap="round" stroke-linejoin="round"/>
                    <path d="M402.51563,172.222742 C404.060319,170.25732 404.98162,167.778801 404.98162,165.0851 C404.98162,158.700473 399.805858,153.52471 393.421231,153.52471 C389.175278,153.52471 385.46396,155.813751 383.454005,159.225104" id="Oval-22-Copy-5" stroke="#DAE2E6" stroke-width="2" stroke-linecap="round" stroke-linejoin="round"/>
                    <path d="M12.3779598,271.697995 L376.959775,271.697995 M384.20632,271.697995 L407.612715,271.697995 M415.187492,271.697995 L420.832359,271.697995" id="Path-70" stroke="#404F54" stroke-width="2" stroke-linecap="round" fill="#404F54"/>
                </g>
                <g id="Group-2" transform="translate(368.850170, 234.318262) rotate(-25.000000) translate(-368.850170, -234.318262) translate(367.850170, 233.318262)"/>
                <g id="books-left" transform="translate(21.000000, 219.000000)">
                    <path d="M58.9747645,38.2200679 L104.331533,38.2200679" id="Path-6" stroke="#E0EAEF" stroke-width="2" stroke-linecap="round" stroke-linejoin="round"/>
                    <path d="M38.7812636,43 L104.138032,43" id="Path-6-Copy" stroke="#E0EAEF" stroke-width="2" stroke-linecap="round" stroke-linejoin="round"/>
                    <path d="M88.9747645,47.6776695 L104.331533,47.6776695" id="Path-6-Copy-2" stroke="#E0EAEF" stroke-width="2" stroke-linecap="round" stroke-linejoin="round"/>
                    <polygon id="Rectangle-6" fill="#FF8F5C" points="94 38 101 38 101 47 97.5401478 43 94 47"/>
                    <path d="M31,28 C31,24.1340068 34.1324221,21 37.9950647,21 L105,21 L105,35 L37.9950647,35 C34.1317971,35 31,31.8685323 31,28 L31,28 L31,28 Z" id="Rectangle-5-Copy" fill="#9ACFFF"/>
                    <path d="M48.7812636,27 L104.138032,27" id="Path-6-Copy-3" stroke="#4d90cc" stroke-width="2" stroke-linecap="round" stroke-linejoin="round"/>
                    <path d="M31,43 C31,38.0294373 35.0311131,34 39.9998713,34 L105,34 L105,52 L39.9998713,52 C35.0293796,52 31,47.9738272 31,43 L31,43 L31,43 Z" id="Rectangle-5" stroke="#404F54" stroke-width="2" stroke-linecap="round"/>
                    <path d="M31,27 C31,23.1340068 34.1324221,20 37.9950647,20 L105,20 L105,34 L37.9950647,34 C34.1317971,34 31,30.8685323 31,27 L31,27 L31,27 Z" id="Rectangle-5-Copy-3" stroke="#404F54" stroke-width="2" stroke-linecap="round"/>
                    <g id="Group-8" transform="translate(43.000000, 9.000000)" stroke-width="2" stroke-linecap="round">
                        <path d="M5.78126357,5 L57.7340923,5" id="Path-6-Copy-4" stroke="#4d90cc" stroke-linejoin="round"/>
                        <path d="M0.417738965,5.8638533 C0.417738965,3.0272378 2.71056563,0.727706597 5.55309221,0.727706597 L58,0.727706597 L58,11 L5.55309221,11 C2.71691493,11 0.417738965,8.70233179 0.417738965,5.8638533 L0.417738965,5.8638533 L0.417738965,5.8638533 Z" id="Rectangle-5-Copy-2" stroke="#404F54"/>
                    </g>
                    <g id="Group-8" transform="translate(15.926524, 35.457900) rotate(-53.000000) translate(-15.926524, -35.457900) translate(-3.573476, 30.957900)" stroke-width="2" stroke-linecap="round">
                        <path d="M3.85619701,4.09090909 L38.5094124,4.09090909" id="Path-6-Copy-4" stroke="#4d90cc" stroke-linejoin="round"/>
                        <path d="M0.278638697,4.79769815 C0.278638697,2.47683093 2.15715139,0.595396307 4.48047585,0.595396307 L38.6869452,0.595396307 L38.6869452,9 L4.48047585,9 C2.15986527,9 0.278638697,7.12008964 0.278638697,4.79769815 L0.278638697,4.79769815 L0.278638697,4.79769815 Z" id="Rectangle-5-Copy-2" stroke="#404F54"/>
                    </g>
                </g>
                <g id="books-right" transform="translate(318.000000, 219.000000)">
                    <path d="M27.9747645,38.2200679 L73.3315331,38.2200679" id="Path-6" stroke="#E0EAEF" stroke-width="2" stroke-linecap="round" stroke-linejoin="round"/>
                    <path d="M7.78126357,43 L73.1380322,43" id="Path-6-Copy" stroke="#E0EAEF" stroke-width="2" stroke-linecap="round" stroke-linejoin="round"/>
                    <path d="M57.9747645,47.6776695 L73.3315331,47.6776695" id="Path-6-Copy-2" stroke="#E0EAEF" stroke-width="2" stroke-linecap="round" stroke-linejoin="round"/>
                    <polygon id="Rectangle-6" fill="#FF8F5C" points="63 38 70 38 70 47 66.5401478 43 63 47"/>
                    <path d="M0,28 C0,24.1340068 3.13242211,21 6.99506467,21 L74,21 L74,35 L6.99506467,35 C3.13179713,35 0,31.8685323 0,28 L0,28 L0,28 Z" id="Rectangle-5-Copy" fill="#9ACFFF"/>
                    <path d="M17.7812636,27 L73.1380322,27" id="Path-6-Copy-3" stroke="#4d90cc" stroke-width="2" stroke-linecap="round" stroke-linejoin="round"/>
                    <path d="M17.7812636,14 L69.8873507,14" id="Path-6-Copy-4" stroke="#4d90cc" stroke-width="2" stroke-linecap="round" stroke-linejoin="round"/>
                    <path d="M0,43 C0,38.0294373 4.03111307,34 8.99987127,34 L74,34 L74,52 L8.99987127,52 C4.02937962,52 0,47.9738272 0,43 L0,43 L0,43 Z" id="Rectangle-5" stroke="#404F54" stroke-width="2" stroke-linecap="round"/>
                    <path d="M0,27 C0,23.1340068 3.13242211,20 6.99506467,20 L74,20 L74,34 L6.99506467,34 C3.13179713,34 0,30.8685323 0,27 L0,27 L0,27 Z" id="Rectangle-5-Copy-3" stroke="#404F54" stroke-width="2" stroke-linecap="round"/>
                    <path d="M12.417739,14.8638533 C12.417739,12.0272378 14.7105656,9.7277066 17.5530922,9.7277066 L70,9.7277066 L70,20 L17.5530922,20 C14.7169149,20 12.417739,17.7023318 12.417739,14.8638533 L12.417739,14.8638533 L12.417739,14.8638533 Z" id="Rectangle-5-Copy-2" stroke="#404F54" stroke-width="2" stroke-linecap="round"/>
                    <path d="M21.2254924,5.2277066 C21.2254924,2.74242522 23.2329402,0.727706597 25.7194295,0.727706597 L66.582261,0.727706597 L66.582261,9.7277066 L25.7194295,9.7277066 C23.2374966,9.7277066 21.2254924,7.71462022 21.2254924,5.2277066 L21.2254924,5.2277066 L21.2254924,5.2277066 Z" id="Rectangle-5-Copy-2" stroke="#404F54" stroke-width="2" stroke-linecap="round"/>
                </g>
                <g id="Group-3" transform="translate(68.000000, 10.000000)">
                    <g id="hand" transform="translate(78.000000, 174.000000)">
                        <path d="M9.65959048,66.5516558 L23.8703251,57.4311472 C23.8703251,57.4311472 39.2922254,55.2613153 35.3132752,74.4975324 L24.8646002,81.1406774 L9.65959048,66.5516558 Z" id="Path-5" fill="#E0EAEF"/>
                        <path d="M5.88276504,69.0307397 L23.8713994,57.0788863 L40.7917455,0.0333003548 L41.8243148,39.1946715 C41.8243148,39.1946715 42.3593478,61.7354204 39.2879726,69.0307397 C36.4305638,75.8178329 24.0379629,81.441909 24.0379629,81.441909" id="Path-4" stroke="#404F54" stroke-width="2" stroke-linecap="round"/>
                        <path d="M25,79.5 C25,72.5964406 19.4035594,67 12.5,67 C5.59644063,67 0,72.5964406 0,79.5 C0,86.4035594 25,86.4035594 25,79.5 Z" id="Oval-2" stroke="#404F54" stroke-width="2" stroke-linecap="round" fill="#F5F6F7"/>
                    </g>
                    <g id="Group-10" transform="translate(114.000000, 54.000000)">
                        <g id="Group-9" transform="translate(5.383466, 113.358770)">
                            <rect id="Rectangle-12-Copy" stroke="#404F54" stroke-width="2" stroke-linecap="round" fill="#F5F6F7" x="0.390455024" y="0.530429818" width="25.4802701" height="81.2400906" rx="3"/>
                            <path d="M68.14079,12.766571 C68.14079,8.34534691 71.6842714,4.25510484 76.0590299,3.63023789 L90.8351592,1.51969516 C94.6602555,0.973338999 97.7611088,3.66053588 97.7611088,7.53174382 L97.7611088,73.3765344 L71.1439497,73.3765344 C69.4853504,73.3765344 68.14079,72.0366839 68.14079,70.3841003 L68.14079,12.766571 Z" id="Rectangle-12-Copy-3" stroke="#404F54" stroke-width="2" stroke-linecap="round" fill="#F5F6F7"/>
                            <rect id="Rectangle-12" fill="#F5F6F7" x="9.96679666" y="0.530429818" width="74.5127169" height="93.612589" rx="3"/>
                            <path d="M9.96679666,87.4617275 L9.96679666,69.4891316 L54.2755693,69.4891316 C55.9355791,69.4891316 57.2812829,70.8399974 57.2812829,72.49734 L57.2812829,84.453519 C57.2812829,86.1149067 55.9354381,87.4617275 54.2755693,87.4617275 L9.96679666,87.4617275 Z" id="Combined-Shape" fill="#DAE2E6"/>
                            <path d="M21.3599853,1.23736936 L74.8120464,1.23736936 C74.8692255,1.23736936 74.9261245,1.23857324 74.9827196,1.24095674 C71.7457058,11.6468989 60.9683376,19.2910047 48.1719102,19.2910047 C35.3740124,19.2910047 24.5956378,11.645142 21.3599853,1.23736936 Z" id="Combined-Shape" fill="#C5D3DA"/>
                            <path d="M11.5642185,5.41638421 C11.5642185,2.71794611 13.753889,0.530429818 16.453206,0.530429818 L81.187948,0.530429818 C83.8880612,0.530429818 86.0769354,2.73057619 86.0769354,5.42242351 M86.0769354,26.8670481 L86.0769354,89.2505055 C86.0769354,91.952566 83.887265,94.1430188 81.187948,94.1430188 L16.453206,94.1430188 C13.7530928,94.1430188 11.5642185,91.9589263 11.5642185,89.2556987 L11.5642185,26.1857361" id="Rectangle-12-Copy-4" stroke="#404F54" stroke-width="2" stroke-linecap="round"/>
                            <path d="M28.9278534,87.4617275 L28.9278534,69.4891316 L81.4789049,69.4891316 C83.1360953,69.4891316 84.4795136,70.8399974 84.4795136,72.49734 L84.4795136,87.4617275 L28.9278534,87.4617275 Z" id="Combined-Shape" fill="#DAE2E6"/>
                            <polygon id="Path-85" fill="#DAE2E6" points="26.2643882 68.1545362 44.5867506 37.5367384 58.0743369 38.4158841 74.4262366 69.8792163"/>
                            <polyline id="Path-47" stroke="#404F54" stroke-width="2" stroke-linecap="round" stroke-linejoin="round" fill="#F5F6F7" points="24.8707319 78.2829688 40.121271 80.4354042 50.3457378 78.8142964 50.351002 32.1357065 43.6868123 32.1357065 37.6108669 62.7688738 28.9567677 64.3346528"/>
                            <polyline id="Path-47-Copy" stroke="#404F54" stroke-width="2" stroke-linecap="round" stroke-linejoin="round" fill="#F5F6F7" transform="translate(63.169617, 56.285555) scale(-1, 1) translate(-63.169617, -56.285555) " points="50.4294819 78.2829688 65.680021 80.4354042 75.9044878 78.8142964 75.909752 32.1357065 69.2455623 32.1357065 63.169617 62.7688738 54.5155178 64.3346528"/>
                            <rect id="Rectangle-13" stroke="#404F54" stroke-width="2" stroke-linecap="round" fill="#F5F6F7" x="0.390455024" y="63.0994441" width="33.5323568" height="17.9725959" rx="3"/>
                            <rect id="Rectangle-13-Copy-2" stroke="#404F54" stroke-width="2" stroke-linecap="round" fill="#F5F6F7" x="68.0079649" y="63.0994441" width="29.6203188" height="17.9725959" rx="3"/>
                            <rect id="Rectangle-13-Copy" stroke="#404F54" stroke-width="2" stroke-linecap="round" fill="#F5F6F7" x="19.8421186" y="63.0994441" width="7.11308883" height="17.9725959" rx="3"/>
                            <ellipse id="Oval-7" stroke="#404F54" stroke-width="2" stroke-linecap="round" fill="#FF8F5C" cx="22.8603548" cy="74.287042" rx="6.28598084" ry="6.28598084"/>
                            <path d="M27.6973189,74.2180719 C27.6973189,71.7284449 25.6790774,69.7102034 23.1894503,69.7102034 C20.6998233,69.7102034 18.6815817,71.7284449 18.6815817,74.2180719 C18.6815817,76.707699 27.6973189,76.707699 27.6973189,74.2180719 Z" id="Oval-11" fill="#FFBC9E"/>
                            <path d="M33.9228119,1.1989772 L33.9228119,24.6331684 C33.9228119,25.7352078 34.8138502,26.6285872 35.9233272,26.6285872 L43.040292,26.6285872 C44.1451462,26.6285872 45.0408074,25.7283679 45.0408074,24.6270951 L45.0408074,14.908183" id="Path-48" stroke="#404F54" stroke-width="2" stroke-linecap="round" fill="#FF8F5C"/>
                        </g>
                        <g id="Group-6-Copy">
                            <path d="M21.6735402,112.332713 C21.6735402,112.332713 33.2718001,102.395451 55.1224495,102.395451 C76.9730989,102.395451 89.4856253,111.909885 89.4856253,111.909885 L95.6660985,85.7655341 L92.3464975,63.7505401 L64.6392773,55.4758701 L19.7676217,58.5529432 L15.0447094,87.4855677 L21.6735402,112.332713 Z" id="Path-45" stroke="#404F54" stroke-width="2" stroke-linecap="round" fill="#4d90cc"/>
                            <path d="M100.527826,47.7269433 L100.527826,105.292438 C100.527826,105.292438 100.527826,118.431014 91.2056589,122.143925 C81.8834917,125.856837 75.708603,123.631802 75.708603,123.631802 C75.708603,123.631802 81.5244865,119.083606 84.3638184,115.456058 C87.2031503,111.828511 86.931902,105.094372 86.931902,105.094372 L86.931902,52.0342746 L100.527826,47.7269433 Z" id="Path-44" stroke="#404F54" stroke-width="2" stroke-linecap="round" fill="#4d90cc"/>
                            <ellipse id="Oval-5" stroke="#1F5F59" stroke-width="2" stroke-linecap="round" fill="#F5F6F7" cx="13.769917" cy="67.8807937" rx="9.33622721" ry="9.33622721"/>
                            <ellipse id="Oval-5-Copy" stroke="#404F54" stroke-width="2" stroke-linecap="round" fill="#F5F6F7" cx="90.1846155" cy="67.8807937" rx="9.33622721" ry="9.33622721"/>
                            <path d="M98.530485,69.0616891 L89.1984979,66.706865 L89.1984979,57.4686653 L98.1609682,65.6445044 C98.1609682,65.6445044 98.8608532,67.0704672 98.530485,69.0616891 Z" id="Path-3" fill="#DAE2E6"/>
                            <rect id="Rectangle-31-Copy-3" stroke="#404F54" stroke-width="2" stroke-linecap="round" fill="#FF8F5C" x="40.8696745" y="101.015169" width="27.0239513" height="26.9406514" rx="13.4703257"/>
                            <rect id="Rectangle-31-Copy-6" stroke="#404F54" stroke-width="2" stroke-linecap="round" fill="#F5F6F7" x="45.3926213" y="86.9515378" width="17.9780578" height="32.2363121" rx="8.98902891"/>
                            <rect id="Rectangle-31" stroke="#404F54" stroke-width="2" stroke-linecap="round" fill="#FFFFFF" x="20.5434891" y="18.7778717" width="67.6763222" height="87.138914" rx="33.8381611"/>
                            <path d="M87.1565137,62.3830489 L87.1565137,40.837523 L67.9594339,34.5499606 C66.6582766,30.9062273 63.966741,27.9720862 63.966741,27.9720862 L45.2569878,31.129736 L17.9917429,54.4076304 L16.4269175,75.6764808 C16.4269175,75.6764808 30.8748375,71.3412563 39.9983552,67.9634166 C47.358104,65.2385848 59.8975678,51.187922 64.9330372,45.5086416 C66.0707407,48.4017109 87.1565137,62.3830489 87.1565137,62.3830489 Z" id="Combined-Shape" fill="#DAE2E6"/>
                            <path d="M65.4966078,37.1144083 C62.1506098,41.9277622 57.5509456,46.8101508 51.3257705,50.4035262 C33.6930328,60.5817213 23.4932974,62.7796306 23.4932974,62.7796306 L23.9911179,105.196489 C23.9911179,105.196489 23.9911179,113.385795 27.1328119,117.073975 C30.274506,120.762155 35.2008545,124.442356 35.2008545,124.442356 C35.2008545,124.442356 25.3824624,127.210685 14.3282947,124.442356 C3.27412703,121.674028 0.457931022,107.883443 0.457931022,107.883443 L0.733701816,48.5869601 C1.06277114,38.5718222 -1.38443855,5.50861913 37.0038582,1.15041208 C58.0764403,-2.47066986 66.9992659,4.38841398 70.7770096,10.7667962 C70.9526142,10.6767227 71.1316824,10.5925626 71.3142794,10.5146357 C79.3928518,7.06694451 88.5948104,7.75833323 96.0282948,18.8653221 C103.461779,29.9723109 100.417731,66.0705112 100.417731,66.0705112 L87.6546234,57.3102639 C87.6546234,57.3102639 78.8072164,53.281152 72.2725247,46.6323765 C69.4637513,43.774567 67.1836222,40.2287773 65.4966078,37.1144083 Z" id="Combined-Shape" stroke="#404F54" stroke-width="2" stroke-linecap="round" fill="#9ACFFF"/>
                            <path d="M65.6600112,35.5750459 C62.8781184,40.5197885 56.4432908,46.4706235 51.1256121,49.5401622 C36.0633474,58.2345959 22.4288254,62.0447512 22.4288254,62.0447512 L23.0176857,103.445199 C23.0176857,103.445199 22.4288254,111.782797 25.1768081,116.007125 C25.1768081,116.007125 26.3717867,117.498646 20.016495,116.007125 C10.5737867,113.642359 8.16813135,101.862144 8.16813135,101.862144 L8.40370071,51.2098097 C8.40370071,51.2098097 10.2204327,13.8605831 39.3864502,10.6884877 C57.3871026,7.59528167 65.0091729,13.4544576 68.2362035,18.9030088 C68.3862096,18.8260676 68.5391735,18.7541762 68.6951518,18.6876093 C75.5960425,15.7425172 83.4565539,16.3331164 89.8063966,25.8209457 C96.1562393,35.3087751 94.619607,60.8488932 94.619607,60.8488932 C94.619607,60.8488932 90.1913912,58.1435691 88.2273017,56.4515249 C70.4076872,48.5059562 65.6600112,35.5750459 65.6600112,35.5750459 Z" id="Combined-Shape-Copy" fill="#4d90cc"/>
                            <polyline id="Path-35" stroke="#404F54" stroke-width="2" stroke-linecap="round" stroke-linejoin="round" fill="#F5F6F7" points="53.06894 69.0470723 53.06894 81.9543013 56.9182187 81.9543013"/>
                            <path d="M48.4943688,88.0844944 C48.4943688,91.6557703 51.3894599,94.5508613 54.9607357,94.5508613 C58.5320115,94.5508613 61.4271026,91.6557703 61.4271026,88.0844944 L48.4943688,88.0844944 Z" id="Oval-5-Copy-2" fill="#FF8F5C"/>
                            <path d="M67.2347439,66.250575 C67.2347439,68.9571252 69.4288364,71.1512177 72.1353866,71.1512177 C74.8419369,71.1512177 77.0360293,68.9571252 77.0360293,66.250575" id="Oval-5-Copy-5" stroke="#404F54" stroke-width="2" stroke-linecap="round" fill="#F5F6F7" transform="translate(72.135387, 68.700896) rotate(-180.000000) translate(-72.135387, -68.700896) "/>
                            <path d="M31.2895521,66.250575 C31.2895521,68.9571252 33.4836445,71.1512177 36.1901948,71.1512177 C38.896745,71.1512177 41.0908375,68.9571252 41.0908375,66.250575" id="Oval-5-Copy-6" stroke="#404F54" stroke-width="2" stroke-linecap="round" fill="#F5F6F7" transform="translate(36.190195, 68.700896) rotate(-180.000000) translate(-36.190195, -68.700896) "/>
                        </g>
                    </g>
                    <g id="mouse" transform="translate(78.000000, 248.000000)">
                        <path d="M25.4192728,13.1080845 C25.2682678,6.33646549 19.7316666,0.893494871 12.9237915,0.893494871 C6.11591638,0.893494871 0.579315188,6.33646549 0.428310119,13.1080845 L25.4192728,13.1080845 L25.4192728,13.1080845 Z" id="Combined-Shape-Copy-3" fill="#F5F6F7"/>
                        <path d="M15.8840433,3.78720178 C10.6889931,3.78720178 6.46404478,7.94070119 6.34881368,13.1080845 L25.4192728,13.1080845 C25.3040418,7.94070119 21.0790934,3.78720178 15.8840433,3.78720178 Z" id="Combined-Shape" fill="#FF8F5C"/>
                        <path d="M25.4192728,13.1080845 C25.2682678,6.33646549 19.7316666,0.893494871 12.9237915,0.893494871 C6.11591638,0.893494871 0.579315188,6.33646549 0.428310119,13.1080845 L25.4192728,13.1080845 L25.4192728,13.1080845 Z" id="Combined-Shape-Copy-2" stroke="#404F54" stroke-width="2" stroke-linecap="round"/>
                    </g>
                    <g id="hand" transform="translate(75.000000, 241.000000)" stroke="#404F54" stroke-width="2" fill="#F5F6F7" stroke-linecap="round">
                        <rect id="Rectangle-14" transform="translate(28.286329, 12.593495) rotate(29.000000) translate(-28.286329, -12.593495) " x="24.398366" y="6.84349462" width="7.77592691" height="11.5" rx="3.88796346"/>
                        <rect id="Rectangle-14-Copy-3" x="13.4553639" y="0.126539322" width="6.0001508" height="15" rx="3.0000754"/>
                        <rect id="Rectangle-14-Copy" x="6.45536393" y="1.12653932" width="6.0001508" height="15" rx="3.0000754"/>
                        <rect id="Rectangle-14-Copy-2" x="0.455363928" y="5.62653932" width="6.0001508" height="11.5" rx="3.0000754"/>
                    </g>
                    <path d="M0.776335284,81.8565055 L117.596883,253 L220.730653,253 L345.838852,81.8565055 C345.838852,81.8565055 300.09996,0.305110705 169.340325,0.305110705 C38.5806908,0.305110705 0.776335284,81.8565055 0.776335284,81.8565055 Z" id="Path-16" fill="url(#linearGradient-1)" opacity="0.431668931"/>
                    <g id="laptop" transform="translate(113.000000, 187.000000)">
                        <path d="M111.096486,43.6560517 L111.096486,64.7680008 C111.096486,68.0818514 108.405312,70.7682582 105.084065,70.7682582 L6.01242056,70.7682582 C2.69185238,70.7682582 0,68.0860686 0,64.7646229 L0,6.71104665 L0,6.71104665 C0,3.39533046 2.69117313,0.707411405 6.01242056,0.707411405 L105.084065,0.707411405 C108.404633,0.707411405 111.096486,3.40460791 111.096486,6.70650973 L111.096486,26.3638506 L111.096486,36.2745613" id="Rectangle-3" stroke="#404F54" stroke-width="2" stroke-linecap="round" fill="#F5F6F7"/>
                        <ellipse id="Oval-9" stroke="#4d90cc" stroke-width="2" stroke-linecap="round" cx="55.5913385" cy="32.1325544" rx="7.5065193" ry="7.5065193"/>
                        <path d="M1.00086924,49.4004097 L110.102278,49.4004097 L110.102278,64.7469594 C110.102278,67.5108624 107.873497,69.7514485 105.094966,69.7514485 L6.00818128,69.7514485 C3.2427192,69.7514485 1.00086924,67.5153161 1.00086924,64.7469594 L1.00086924,49.4004097 Z" id="Rectangle-9" fill="#E1EBF0"/>
                        <ellipse id="Oval" fill="#E6EDF1" cx="8.50738854" cy="9.50825778" rx="1.50130386" ry="1.50130386"/>
                        <ellipse id="Oval-Copy" fill="#E6EDF1" cx="101.588228" cy="9.50825778" rx="1.50130386" ry="1.50130386"/>
                        <ellipse id="Oval-Copy-3" fill="#C4D3DA" cx="8.50738854" cy="62.5543275" rx="1.50130386" ry="1.50130386"/>
                        <ellipse id="Oval-Copy-2" fill="#C4D3DA" cx="101.588228" cy="62.5543275" rx="1.50130386" ry="1.50130386"/>
                        <rect id="Rectangle-4" stroke="#404F54" stroke-width="2" stroke-linecap="round" fill="#E0EAEF" x="0" y="69" width="111.096486" height="5" rx="2.5"/>
                    </g>
                </g>
                <g id="flower" transform="translate(295.781264, 148.821927)" stroke="#FF8F5C" stroke-width="2" stroke-linecap="round">
                    <path d="M14.0730764,14.0730764 L12.3820027,14.0730764 C9.10001391,14.0730764 6.45274605,16.7266505 6.45274605,20 C6.45274605,23.2666889 9.10736469,25.9269236 12.3820027,25.9269236 L14.0730764,25.9269236 L14.0730764,27.6179973 C14.0730764,30.8999861 16.7266505,33.5472539 20,33.5472539 C23.2666889,33.5472539 25.9269236,30.8926353 25.9269236,27.6179973 L25.9269236,25.9269236 L27.6179973,25.9269236 C30.8999861,25.9269236 33.5472539,23.2733495 33.5472539,20 C33.5472539,16.7333111 30.8926353,14.0730764 27.6179973,14.0730764 L25.9269236,14.0730764 L25.9269236,12.3820027 C25.9269236,9.10001391 23.2733495,6.45274605 20,6.45274605 C16.7333111,6.45274605 14.0730764,9.10736469 14.0730764,12.3820027 L14.0730764,14.0730764 Z" id="Combined-Shape" fill="#FFFFFF" transform="translate(20.000000, 20.000000) rotate(-315.000000) translate(-20.000000, -20.000000) "/>
                    <circle id="Oval-17" fill="#FFD4C0" cx="19.8687951" cy="20.0514136" r="5.44595037"/>
                    <path d="M20.3118876,28.0982362 L20.3118876,55.4223693" id="Path-51" fill="#FFFFFF"/>
                    <path d="M25.5824608,46.2539271 C27.8849965,46.2539271 31.4192143,42.8605974 31.4192143,42.8605974 C31.4192143,42.8605974 27.8849965,39.4672678 25.5824608,39.4672678 C23.2799252,39.4672678 19.7457073,42.8605974 19.7457073,42.8605974 C19.7457073,42.8605974 23.2799252,46.2539271 25.5824608,46.2539271 Z" id="Oval-18" fill="#FFFFFF" transform="translate(25.582461, 42.860597) rotate(-36.000000) translate(-25.582461, -42.860597) "/>
                </g>
                <path d="M332.605443,142 C332.605443,142 333.540481,143.471787 334.13228,144.063586 C334.742295,144.673602 336.210887,145.605443 336.210887,145.605443 C336.210887,145.605443 334.716515,146.591189 334.13228,147.175424 C333.514701,147.793004 332.605443,149.210887 332.605443,149.210887 C332.605443,149.210887 331.689688,147.747835 331.117277,147.175424 C330.487873,146.54602 329,145.605443 329,145.605443 C329,145.605443 330.497514,144.683349 331.117277,144.063586 C331.699329,143.481535 332.605443,142 332.605443,142 Z" id="Polygon" fill="#FFC6AC"/>
                <path d="M162.605443,112 C162.605443,112 163.540481,113.471787 164.13228,114.063586 C164.742295,114.673602 166.210887,115.605443 166.210887,115.605443 C166.210887,115.605443 164.716515,116.591189 164.13228,117.175424 C163.514701,117.793004 162.605443,119.210887 162.605443,119.210887 C162.605443,119.210887 161.689688,117.747835 161.117277,117.175424 C160.487873,116.54602 159,115.605443 159,115.605443 C159,115.605443 160.497514,114.683349 161.117277,114.063586 C161.699329,113.481535 162.605443,112 162.605443,112 Z" id="Polygon-Copy-10" fill="#FFC6AC"/>
                <path d="M162.605443,192 C162.605443,192 163.540481,193.471787 164.13228,194.063586 C164.742295,194.673602 166.210887,195.605443 166.210887,195.605443 C166.210887,195.605443 164.716515,196.591189 164.13228,197.175424 C163.514701,197.793004 162.605443,199.210887 162.605443,199.210887 C162.605443,199.210887 161.689688,197.747835 161.117277,197.175424 C160.487873,196.54602 159,195.605443 159,195.605443 C159,195.605443 160.497514,194.683349 161.117277,194.063586 C161.699329,193.481535 162.605443,192 162.605443,192 Z" id="Polygon-Copy-11" fill="#FFC6AC"/>
                <circle id="Oval-3" stroke="#FFC6AB" stroke-width="2" stroke-linecap="round" cx="325.530261" cy="89.4697393" r="2.53026066"/>
                <circle id="Oval-3-Copy" stroke="#FFC6AB" stroke-width="2" stroke-linecap="round" cx="95.5302607" cy="89.4697393" r="2.53026066"/>
                <g id="butterfly" transform="translate(137.000000, 146.000000)" stroke="#FF8F5C" stroke-width="2" stroke-linecap="round">
                    <rect id="Rectangle-7-Copy" fill="#FFD4C0" x="4.59445269" y="12" width="18.8110946" height="5.17236334" rx="2.58618167"/>
                    <rect id="Rectangle-7" fill="#FFD4C0" x="0.750329616" y="5.82763666" width="26.4993408" height="6.81673495" rx="3.40836747"/>
                    <rect id="Rectangle-8" fill="#FFFFFF" x="12" y="4" width="4" height="14" rx="2"/>
                    <polyline id="Path-52" stroke-linejoin="round" points="12.2541385 0.441257747 14.1231654 4.27897419 16.1172647 0.441257747"/>
                </g>
                <path d="M353.966874,125.746836 C352.994705,126.091451 351.948224,126.279011 350.857936,126.279011 C345.720088,126.279011 341.555039,122.113962 341.555039,116.976114 C341.555039,111.838266 345.720088,107.673217 350.857936,107.673217 C351.948224,107.673217 352.994705,107.860777 353.966874,108.205392 C351.167636,110.115831 349.330058,113.331378 349.330058,116.976114 C349.330058,120.62085 351.167636,123.836397 353.966874,125.746836 Z" id="Combined-Shape" stroke="#FF8F5C" stroke-width="2" stroke-linecap="round" fill="#FFFFFF" transform="translate(347.760956, 116.976114) rotate(-30.000000) translate(-347.760956, -116.976114) "/>
                <polygon id="Star-2" stroke="#FF8F5C" stroke-width="2" stroke-linecap="round" fill="#FFD4C0" points="125.002769 114.004153 121.47443 115.85911 122.148282 111.930247 119.293796 109.147811 123.238599 108.574598 125.002769 105 126.766938 108.574598 130.711741 109.147811 127.857255 111.930247 128.531107 115.85911"/>
                <g id="diamonds" transform="translate(302.000000, 107.408875)" stroke="#FF8F5C" stroke-width="2" stroke-linecap="round">
                    <polygon id="Polygon-2" fill="#FFFFFF" transform="translate(7.914187, 6.496271) rotate(-180.000000) translate(-7.914187, -6.496271) " points="7.91418744 0.712456856 15.0471113 7.8948294 12.3225768 12.2800843 3.50579805 12.2800843 0.781263566 7.8948294"/>
                    <path d="M1.74209671,4.94332575 L13.6169338,4.94332575" id="Path-54" fill="#FFD4C0"/>
                    <polyline id="Path-55" points="7.31093321 0.979607372 5.32410574 5.06498804 8.19528713 12.0181571"/>
                </g>
            </g>
        </g>
    </g>
<div xmlns="" id="screen-shader" style="&#10;            transition: opacity 0.1s ease 0s; &#10;            z-index: 2147483647;&#10;            margin: 0; &#10;            border-radius: 0; &#10;            padding: 0; &#10;            background: #fac563; &#10;            pointer-events: none; &#10;            position: fixed; &#10;            top: -10%; &#10;            right: -10%; &#10;            width: 120%; &#10;            height: 120%; &#10;            opacity: 0.5840;&#10;            mix-blend-mode: multiply; &#10;            display: none;&#10;        "/></svg>
