<svg xmlns="http://www.w3.org/2000/svg" xmlns:xlink="http://www.w3.org/1999/xlink" width="432px" height="326px" viewBox="0 0 432 326" version="1.1">
    <!-- Generator: Sketch 41 (35326) - http://www.bohemiancoding.com/sketch -->
    <title>step-community</title>
    <desc>Created with Sketch.</desc>
    <defs/>
    <g id="Page-1" stroke="none" stroke-width="1" fill="none" fill-rule="evenodd">
        <g id="Exports" transform="translate(-6.000000, -3.000000)">
            <g id="step-community" transform="translate(7.000000, -22.000000)">
                <g id="bg-ilustrasi" transform="translate(0.000000, 78.000000)">
                    <path d="M3.77396662,122.757344 C3.77396662,122.757344 4.70900417,124.229132 5.30080312,124.820931 C5.91081864,125.430946 7.37941003,126.362788 7.37941003,126.362788 C7.37941003,126.362788 5.88503846,127.348534 5.30080312,127.932769 C4.68322399,128.550348 3.77396662,129.968231 3.77396662,129.968231 C3.77396662,129.968231 2.85821095,128.505179 2.2858004,127.932769 C1.65639648,127.303365 0.168523211,126.362788 0.168523211,126.362788 C0.168523211,126.362788 1.66603741,125.440694 2.2858004,124.820931 C2.86785188,124.238879 3.77396662,122.757344 3.77396662,122.757344 Z" id="Polygon" fill="#DAE2E6"/>
                    <path d="M416.734949,201.233166 C416.734949,201.233166 417.71418,202.774517 418.33395,203.394287 C418.972798,204.033134 420.510802,205.009019 420.510802,205.009019 C420.510802,205.009019 418.945799,206.041356 418.33395,206.653205 C417.687182,207.299973 416.734949,208.784872 416.734949,208.784872 C416.734949,208.784872 415.77591,207.25267 415.176445,206.653205 C414.517293,205.994052 412.959096,205.009019 412.959096,205.009019 C412.959096,205.009019 414.527389,204.043343 415.176445,203.394287 C415.786007,202.784725 416.734949,201.233166 416.734949,201.233166 Z" id="Polygon-Copy-9" fill="#DAE2E6"/>
                    <path d="M350.195465,174.314669 C350.195465,174.314669 351.445462,176.282216 352.236604,177.073358 C353.052098,177.888852 355.015373,179.134577 355.015373,179.134577 C355.015373,179.134577 353.017634,180.452364 352.236604,181.233394 C351.410998,182.059 350.195465,183.954486 350.195465,183.954486 C350.195465,183.954486 348.971244,181.998617 348.206021,181.233394 C347.364608,180.39198 345.375556,179.134577 345.375556,179.134577 C345.375556,179.134577 347.377496,177.901883 348.206021,177.073358 C348.984132,176.295247 350.195465,174.314669 350.195465,174.314669 Z" id="Polygon-Copy-4" fill="#DAE2E6"/>
                    <path d="M365.386095,78.4598247 C365.386095,78.4598247 366.319559,79.8509662 366.910363,80.4103379 C367.519353,80.9869279 368.985474,81.8677098 368.985474,81.8677098 C368.985474,81.8677098 367.493616,82.7994421 366.910363,83.3516645 C366.293823,83.9354037 365.386095,85.2755949 365.386095,85.2755949 C365.386095,85.2755949 364.471879,83.8927101 363.900431,83.3516645 C363.272086,82.7567485 361.786715,81.8677098 361.786715,81.8677098 C361.786715,81.8677098 363.281711,80.9961413 363.900431,80.4103379 C364.481504,79.8601796 365.386095,78.4598247 365.386095,78.4598247 Z" id="Polygon-Copy-8" fill="#DAE2E6"/>
                    <path d="M20.2360367,204.972191 C20.2360367,204.972191 21.0278724,206.218572 21.5290367,206.719737 C22.0456278,207.236328 23.289303,208.025457 23.289303,208.025457 C23.289303,208.025457 22.0237959,208.860235 21.5290367,209.354994 C21.0060404,209.87799 20.2360367,211.078723 20.2360367,211.078723 C20.2360367,211.078723 19.4605299,209.839739 18.9757846,209.354994 C18.4427745,208.821984 17.1827705,208.025457 17.1827705,208.025457 C17.1827705,208.025457 18.4509389,207.244582 18.9757846,206.719737 C19.4686943,206.226827 20.2360367,204.972191 20.2360367,204.972191 Z" id="Polygon-Copy-7" fill="#DAE2E6"/>
                    <path d="M65.2462774,187.26457 C65.2462774,187.26457 66.181315,188.736357 66.7731139,189.328156 C67.3831294,189.938171 68.8517208,190.870013 68.8517208,190.870013 C68.8517208,190.870013 67.3573493,191.855759 66.7731139,192.439994 C66.1555348,193.057573 65.2462774,194.475457 65.2462774,194.475457 C65.2462774,194.475457 64.3305217,193.012405 63.7581112,192.439994 C63.1287073,191.81059 61.640834,190.870013 61.640834,190.870013 C61.640834,190.870013 63.1383482,189.947919 63.7581112,189.328156 C64.3401627,188.746104 65.2462774,187.26457 65.2462774,187.26457 Z" id="Polygon-Copy" fill="#DAE2E6"/>
                    <path d="M224.197229,31.6287635 C224.197229,31.6287635 225.132266,33.1005508 225.724065,33.6923497 C226.334081,34.3023653 227.802672,35.2342069 227.802672,35.2342069 C227.802672,35.2342069 226.308301,36.2199526 225.724065,36.8041879 C225.106486,37.4217671 224.197229,38.8396503 224.197229,38.8396503 C224.197229,38.8396503 223.281473,37.3765985 222.709063,36.8041879 C222.079659,36.174784 220.591786,35.2342069 220.591786,35.2342069 C220.591786,35.2342069 222.0893,34.3121127 222.709063,33.6923497 C223.291114,33.1102983 224.197229,31.6287635 224.197229,31.6287635 Z" id="Polygon-Copy-3" fill="#DAE2E6"/>
                    <path d="M287.787289,54.2676523 C287.787289,54.2676523 288.722326,55.7394396 289.314125,56.3312385 C289.924141,56.941254 291.392732,57.8730957 291.392732,57.8730957 C291.392732,57.8730957 289.898361,58.8588414 289.314125,59.4430767 C288.696546,60.0606558 287.787289,61.4785391 287.787289,61.4785391 C287.787289,61.4785391 286.871533,60.0154873 286.299123,59.4430767 C285.669719,58.8136728 284.181845,57.8730957 284.181845,57.8730957 C284.181845,57.8730957 285.67936,56.9510015 286.299123,56.3312385 C286.881174,55.749187 287.787289,54.2676523 287.787289,54.2676523 Z" id="Polygon-Copy-6" fill="#DAE2E6"/>
                    <path d="M71.82355,48.8906977 C71.82355,48.8906977 72.5659465,50.0592601 73.0358201,50.5291338 C73.5201573,51.0134709 74.6861822,51.7533299 74.6861822,51.7533299 C74.6861822,51.7533299 73.4996884,52.5359874 73.0358201,52.9998557 C72.5454777,53.4901981 71.82355,54.6159621 71.82355,54.6159621 C71.82355,54.6159621 71.0964629,53.4543354 70.6419832,52.9998557 C70.1422521,52.5001247 68.9609179,51.7533299 68.9609179,51.7533299 C68.9609179,51.7533299 70.1499068,51.0212101 70.6419832,50.5291338 C71.1041175,50.0669994 71.82355,48.8906977 71.82355,48.8906977 Z" id="Polygon-Copy-2" fill="#DAE2E6"/>
                    <path d="M217.729153,132.728493 C217.729153,132.728493 218.47155,133.897055 218.941423,134.366929 C219.425761,134.851266 220.591786,135.591125 220.591786,135.591125 C220.591786,135.591125 219.405292,136.373783 218.941423,136.837651 C218.451081,137.327993 217.729153,138.453757 217.729153,138.453757 C217.729153,138.453757 217.002066,137.292131 216.547586,136.837651 C216.047855,136.33792 214.866521,135.591125 214.866521,135.591125 C214.866521,135.591125 216.05551,134.859005 216.547586,134.366929 C217.009721,133.904795 217.729153,132.728493 217.729153,132.728493 Z" id="Polygon-Copy-5" fill="#DAE2E6"/>
                    <path d="M390.270784,105.544427 L396.416784,100.61439" id="Path-66" stroke="#DAE2E6" stroke-width="2" stroke-linecap="round" fill="#DAE2E6"/>
                    <path d="M145.782906,188.101561 L138.885883,181.204538" id="Path-67" stroke="#DAE2E6" stroke-width="2" stroke-linecap="round" fill="#DAE2E6"/>
                    <path d="M31.4647104,163.122581 L24.5676873,156.225558" id="Path-67-Copy" stroke="#DAE2E6" stroke-width="2" stroke-linecap="round" fill="#DAE2E6"/>
                    <path d="M40.2645251,226.656036 L31.1810049,231.993041" id="Path-68" stroke="#DAE2E6" stroke-width="2" stroke-linecap="round" fill="#DAE2E6"/>
                    <path d="M399.367098,230.307671 L405.349485,230.307671" id="Path-69" stroke="#DAE2E6" stroke-width="2" stroke-linecap="round" fill="#DAE2E6"/>
                    <path d="M79.8788322,208.724865 C81.5173422,205.979757 82.4587741,202.770411 82.4587741,199.341182 C82.4587741,189.215067 74.249936,181.006229 64.123821,181.006229 C56.2631949,181.006229 49.5579184,185.952868 46.951066,192.903073" id="Oval-22" stroke="#DAE2E6" stroke-width="2" stroke-linecap="round" stroke-linejoin="round"/>
                    <path d="M434.40633,225.245237 C436.04484,222.500128 436.986271,219.290782 436.986271,215.861554 C436.986271,205.735439 428.777433,197.5266 418.651318,197.5266 C410.790692,197.5266 404.085416,202.47324 401.478563,209.423444" id="Oval-22-Copy-10" stroke="#DAE2E6" stroke-width="2" stroke-linecap="round" stroke-linejoin="round"/>
                    <path d="M98.2001006,29.7218557 C98.2001006,32.469828 100.427772,34.6974997 103.175745,34.6974997 L103.175745,34.6974997 C105.923717,34.6974997 108.151389,32.469828 108.151389,29.7218557 C108.151389,26.9738834 105.923717,24.7462117 103.175745,24.7462117" id="Oval-22-Copy-3" stroke="#DAE2E6" stroke-width="2" stroke-linecap="round" stroke-linejoin="round"/>
                    <ellipse id="Oval-22-Copy-8" stroke="#DAE2E6" stroke-width="2" stroke-linecap="round" stroke-linejoin="round" cx="372.725875" cy="209.684418" rx="4.975644" ry="4.975644"/>
                    <ellipse id="Oval-22-Copy-7" stroke="#DAE2E6" stroke-width="2" stroke-linecap="round" stroke-linejoin="round" cx="168.648102" cy="3.65848757" rx="3.46000222" ry="3.46000222"/>
                    <path d="M396.666451,158.961068 C396.666451,154.464218 393.021034,150.818801 388.524184,150.818801 C384.027334,150.818801 380.381917,154.464218 380.381917,158.961068" id="Oval-22-Copy-4" stroke="#DAE2E6" stroke-width="2" stroke-linecap="round" stroke-linejoin="round"/>
                    <path d="M65.2462774,218.805333 C65.2462774,213.870585 63.9500592,209.238584 61.6795287,205.231237 M56.9858114,199.124312 C52.0107675,194.241143 45.1923318,191.229559 37.6705029,191.229559 C23.3664607,191.229559 11.6061354,202.120505 10.2294244,216.062501" id="Oval-22-Copy" stroke="#DAE2E6" stroke-width="2" stroke-linecap="round" stroke-linejoin="round"/>
                    <path d="M375.534534,91.492366 C375.711487,90.464081 375.803486,89.408783 375.803486,88.3331407 C375.803486,77.5650945 366.583751,68.8358683 355.210633,68.8358683 C345.910053,68.8358683 338.049539,74.6734993 335.493531,82.6899179" id="Oval-22-Copy-6" stroke="#DAE2E6" stroke-width="2" stroke-linecap="round" stroke-linejoin="round"/>
                    <path d="M379.58578,96.5545046 C379.58578,93.8403729 377.261907,91.6401345 374.395264,91.6401345 C371.528621,91.6401345 369.204748,93.8403729 369.204748,96.5545046" id="Oval-22-Copy-9" stroke="#DAE2E6" stroke-width="2" stroke-linecap="round" stroke-linejoin="round"/>
                    <path d="M21.4898673,221.946113 C19.4385804,218.721743 15.8335683,216.582517 11.7289131,216.582517 C5.34428606,216.582517 0.168523211,221.75828 0.168523211,228.142907" id="Oval-22-Copy-2" stroke="#DAE2E6" stroke-width="2" stroke-linecap="round" stroke-linejoin="round"/>
                    <path d="M410.493105,176.707117 C412.037794,174.741695 412.959096,172.263176 412.959096,169.569475 C412.959096,163.184848 407.783333,158.009085 401.398706,158.009085 C397.152754,158.009085 393.441436,160.298126 391.43148,163.709479" id="Oval-22-Copy-5" stroke="#DAE2E6" stroke-width="2" stroke-linecap="round" stroke-linejoin="round"/>
                    <path d="M12.3779598,271.697995 L376.959775,271.697995 M384.20632,271.697995 L407.612715,271.697995 M415.187492,271.697995 L420.832359,271.697995" id="Path-70" stroke="#404F54" stroke-width="2" stroke-linecap="round" fill="#404F54"/>
                </g>
                <g id="Group-2" transform="translate(361.850170, 312.318262) rotate(-25.000000) translate(-361.850170, -312.318262) translate(360.850170, 311.318262)"/>
                <g id="books-left" transform="translate(14.000000, 297.000000)">
                    <path d="M58.9747645,38.2200679 L104.331533,38.2200679" id="Path-6" stroke="#E0EAEF" stroke-width="2" stroke-linecap="round" stroke-linejoin="round"/>
                    <path d="M38.7812636,43 L104.138032,43" id="Path-6-Copy" stroke="#E0EAEF" stroke-width="2" stroke-linecap="round" stroke-linejoin="round"/>
                    <path d="M88.9747645,47.6776695 L104.331533,47.6776695" id="Path-6-Copy-2" stroke="#E0EAEF" stroke-width="2" stroke-linecap="round" stroke-linejoin="round"/>
                    <polygon id="Rectangle-6" fill="#FF8F5C" points="94 38 101 38 101 47 97.5401478 43 94 47"/>
                    <path d="M31,28 C31,24.1340068 34.1324221,21 37.9950647,21 L105,21 L105,35 L37.9950647,35 C34.1317971,35 31,31.8685323 31,28 L31,28 L31,28 Z" id="Rectangle-5-Copy" fill="#9ACFFF"/>
                    <path d="M48.7812636,27 L104.138032,27" id="Path-6-Copy-3" stroke="#4d90cc" stroke-width="2" stroke-linecap="round" stroke-linejoin="round"/>
                    <path d="M31,43 C31,38.0294373 35.0311131,34 39.9998713,34 L105,34 L105,52 L39.9998713,52 C35.0293796,52 31,47.9738272 31,43 L31,43 L31,43 Z" id="Rectangle-5" stroke="#404F54" stroke-width="2" stroke-linecap="round"/>
                    <path d="M31,27 C31,23.1340068 34.1324221,20 37.9950647,20 L105,20 L105,34 L37.9950647,34 C34.1317971,34 31,30.8685323 31,27 L31,27 L31,27 Z" id="Rectangle-5-Copy-3" stroke="#404F54" stroke-width="2" stroke-linecap="round"/>
                    <g id="Group-8" transform="translate(43.000000, 9.000000)" stroke-width="2" stroke-linecap="round">
                        <path d="M5.78126357,5 L57.7340923,5" id="Path-6-Copy-4" stroke="#4d90cc" stroke-linejoin="round"/>
                        <path d="M0.417738965,5.8638533 C0.417738965,3.0272378 2.71056563,0.727706597 5.55309221,0.727706597 L58,0.727706597 L58,11 L5.55309221,11 C2.71691493,11 0.417738965,8.70233179 0.417738965,5.8638533 L0.417738965,5.8638533 L0.417738965,5.8638533 Z" id="Rectangle-5-Copy-2" stroke="#404F54"/>
                    </g>
                    <g id="Group-8" transform="translate(15.926524, 35.457900) rotate(-53.000000) translate(-15.926524, -35.457900) translate(-3.573476, 30.957900)" stroke-width="2" stroke-linecap="round">
                        <path d="M3.85619701,4.09090909 L38.5094124,4.09090909" id="Path-6-Copy-4" stroke="#4d90cc" stroke-linejoin="round"/>
                        <path d="M0.278638697,4.79769815 C0.278638697,2.47683093 2.15715139,0.595396307 4.48047585,0.595396307 L38.6869452,0.595396307 L38.6869452,9 L4.48047585,9 C2.15986527,9 0.278638697,7.12008964 0.278638697,4.79769815 L0.278638697,4.79769815 L0.278638697,4.79769815 Z" id="Rectangle-5-Copy-2" stroke="#404F54"/>
                    </g>
                </g>
                <g id="books-right" transform="translate(311.000000, 297.000000)">
                    <path d="M27.9747645,38.2200679 L73.3315331,38.2200679" id="Path-6" stroke="#E0EAEF" stroke-width="2" stroke-linecap="round" stroke-linejoin="round"/>
                    <path d="M7.78126357,43 L73.1380322,43" id="Path-6-Copy" stroke="#E0EAEF" stroke-width="2" stroke-linecap="round" stroke-linejoin="round"/>
                    <path d="M57.9747645,47.6776695 L73.3315331,47.6776695" id="Path-6-Copy-2" stroke="#E0EAEF" stroke-width="2" stroke-linecap="round" stroke-linejoin="round"/>
                    <polygon id="Rectangle-6" fill="#FF8F5C" points="63 38 70 38 70 47 66.5401478 43 63 47"/>
                    <path d="M0,28 C0,24.1340068 3.13242211,21 6.99506467,21 L74,21 L74,35 L6.99506467,35 C3.13179713,35 0,31.8685323 0,28 L0,28 L0,28 Z" id="Rectangle-5-Copy" fill="#9ACFFF"/>
                    <path d="M17.7812636,27 L73.1380322,27" id="Path-6-Copy-3" stroke="#4d90cc" stroke-width="2" stroke-linecap="round" stroke-linejoin="round"/>
                    <path d="M17.7812636,14 L69.8873507,14" id="Path-6-Copy-4" stroke="#4d90cc" stroke-width="2" stroke-linecap="round" stroke-linejoin="round"/>
                    <path d="M0,43 C0,38.0294373 4.03111307,34 8.99987127,34 L74,34 L74,52 L8.99987127,52 C4.02937962,52 0,47.9738272 0,43 L0,43 L0,43 Z" id="Rectangle-5" stroke="#404F54" stroke-width="2" stroke-linecap="round"/>
                    <path d="M0,27 C0,23.1340068 3.13242211,20 6.99506467,20 L74,20 L74,34 L6.99506467,34 C3.13179713,34 0,30.8685323 0,27 L0,27 L0,27 Z" id="Rectangle-5-Copy-3" stroke="#404F54" stroke-width="2" stroke-linecap="round"/>
                    <path d="M12.417739,14.8638533 C12.417739,12.0272378 14.7105656,9.7277066 17.5530922,9.7277066 L70,9.7277066 L70,20 L17.5530922,20 C14.7169149,20 12.417739,17.7023318 12.417739,14.8638533 L12.417739,14.8638533 L12.417739,14.8638533 Z" id="Rectangle-5-Copy-2" stroke="#404F54" stroke-width="2" stroke-linecap="round"/>
                    <path d="M21.2254924,5.2277066 C21.2254924,2.74242522 23.2329402,0.727706597 25.7194295,0.727706597 L66.582261,0.727706597 L66.582261,9.7277066 L25.7194295,9.7277066 C23.2374966,9.7277066 21.2254924,7.71462022 21.2254924,5.2277066 L21.2254924,5.2277066 L21.2254924,5.2277066 Z" id="Rectangle-5-Copy-2" stroke="#404F54" stroke-width="2" stroke-linecap="round"/>
                </g>
                <g id="Group-3" transform="translate(136.000000, 142.000000)">
                    <g id="hand" transform="translate(3.000000, 120.000000)">
                        <path d="M9.65959048,66.5516558 L23.8703251,57.4311472 C23.8703251,57.4311472 39.2922254,55.2613153 35.3132752,74.4975324 L24.8646002,81.1406774 L9.65959048,66.5516558 Z" id="Path-5" fill="#E0EAEF"/>
                        <path d="M5.88276504,69.0307397 L23.8713994,57.0788863 L40.7917455,0.0333003548 L41.8243148,39.1946715 C41.8243148,39.1946715 42.3593478,61.7354204 39.2879726,69.0307397 C36.4305638,75.8178329 24.0379629,81.441909 24.0379629,81.441909" id="Path-4" stroke="#404F54" stroke-width="2" stroke-linecap="round"/>
                        <path d="M25,79.5 C25,72.5964406 19.4035594,67 12.5,67 C5.59644063,67 0,72.5964406 0,79.5 C0,86.4035594 25,86.4035594 25,79.5 Z" id="Oval-2" stroke="#404F54" stroke-width="2" stroke-linecap="round" fill="#F5F6F7"/>
                    </g>
                    <g id="Group-10" transform="translate(39.000000, 0.000000)">
                        <g id="Group-9" transform="translate(5.383466, 113.358770)">
                            <rect id="Rectangle-12-Copy" stroke="#404F54" stroke-width="2" stroke-linecap="round" fill="#F5F6F7" x="0.390455024" y="0.530429818" width="25.4802701" height="81.2400906" rx="3"/>
                            <path d="M68.14079,12.766571 C68.14079,8.34534691 71.6842714,4.25510484 76.0590299,3.63023789 L90.8351592,1.51969516 C94.6602555,0.973338999 97.7611088,3.66053588 97.7611088,7.53174382 L97.7611088,73.3765344 L71.1439497,73.3765344 C69.4853504,73.3765344 68.14079,72.0366839 68.14079,70.3841003 L68.14079,12.766571 Z" id="Rectangle-12-Copy-3" stroke="#404F54" stroke-width="2" stroke-linecap="round" fill="#F5F6F7"/>
                            <rect id="Rectangle-12" fill="#F5F6F7" x="9.96679666" y="0.530429818" width="74.5127169" height="93.612589" rx="3"/>
                            <path d="M9.96679666,87.4617275 L9.96679666,69.4891316 L54.2755693,69.4891316 C55.9355791,69.4891316 57.2812829,70.8399974 57.2812829,72.49734 L57.2812829,84.453519 C57.2812829,86.1149067 55.9354381,87.4617275 54.2755693,87.4617275 L9.96679666,87.4617275 Z" id="Combined-Shape" fill="#DAE2E6"/>
                            <path d="M21.3599853,1.23736936 L74.8120464,1.23736936 C74.8692255,1.23736936 74.9261245,1.23857324 74.9827196,1.24095674 C71.7457058,11.6468989 60.9683376,19.2910047 48.1719102,19.2910047 C35.3740124,19.2910047 24.5956378,11.645142 21.3599853,1.23736936 Z" id="Combined-Shape" fill="#C5D3DA"/>
                            <path d="M11.5642185,5.41638421 C11.5642185,2.71794611 13.753889,0.530429818 16.453206,0.530429818 L81.187948,0.530429818 C83.8880612,0.530429818 86.0769354,2.73057619 86.0769354,5.42242351 M86.0769354,26.8670481 L86.0769354,89.2505055 C86.0769354,91.952566 83.887265,94.1430188 81.187948,94.1430188 L16.453206,94.1430188 C13.7530928,94.1430188 11.5642185,91.9589263 11.5642185,89.2556987 L11.5642185,26.1857361" id="Rectangle-12-Copy-4" stroke="#404F54" stroke-width="2" stroke-linecap="round"/>
                            <path d="M28.9278534,87.4617275 L28.9278534,69.4891316 L81.4789049,69.4891316 C83.1360953,69.4891316 84.4795136,70.8399974 84.4795136,72.49734 L84.4795136,87.4617275 L28.9278534,87.4617275 Z" id="Combined-Shape" fill="#DAE2E6"/>
                            <polygon id="Path-85" fill="#DAE2E6" points="26.2643882 68.1545362 44.5867506 37.5367384 58.0743369 38.4158841 74.4262366 69.8792163"/>
                            <polyline id="Path-47" stroke="#404F54" stroke-width="2" stroke-linecap="round" stroke-linejoin="round" fill="#F5F6F7" points="24.8707319 78.2829688 40.121271 80.4354042 50.3457378 78.8142964 50.351002 32.1357065 43.6868123 32.1357065 37.6108669 62.7688738 28.9567677 64.3346528"/>
                            <polyline id="Path-47-Copy" stroke="#404F54" stroke-width="2" stroke-linecap="round" stroke-linejoin="round" fill="#F5F6F7" transform="translate(63.169617, 56.285555) scale(-1, 1) translate(-63.169617, -56.285555) " points="50.4294819 78.2829688 65.680021 80.4354042 75.9044878 78.8142964 75.909752 32.1357065 69.2455623 32.1357065 63.169617 62.7688738 54.5155178 64.3346528"/>
                            <rect id="Rectangle-13" stroke="#404F54" stroke-width="2" stroke-linecap="round" fill="#F5F6F7" x="0.390455024" y="63.0994441" width="33.5323568" height="17.9725959" rx="3"/>
                            <rect id="Rectangle-13-Copy-2" stroke="#404F54" stroke-width="2" stroke-linecap="round" fill="#F5F6F7" x="68.0079649" y="63.0994441" width="29.6203188" height="17.9725959" rx="3"/>
                            <rect id="Rectangle-13-Copy" stroke="#404F54" stroke-width="2" stroke-linecap="round" fill="#F5F6F7" x="19.8421186" y="63.0994441" width="7.11308883" height="17.9725959" rx="3"/>
                            <ellipse id="Oval-7" stroke="#404F54" stroke-width="2" stroke-linecap="round" fill="#FF8F5C" cx="22.8603548" cy="74.287042" rx="6.28598084" ry="6.28598084"/>
                            <path d="M27.6973189,74.2180719 C27.6973189,71.7284449 25.6790774,69.7102034 23.1894503,69.7102034 C20.6998233,69.7102034 18.6815817,71.7284449 18.6815817,74.2180719 C18.6815817,76.707699 27.6973189,76.707699 27.6973189,74.2180719 Z" id="Oval-11" fill="#FFBC9E"/>
                            <path d="M33.9228119,1.1989772 L33.9228119,24.6331684 C33.9228119,25.7352078 34.8138502,26.6285872 35.9233272,26.6285872 L43.040292,26.6285872 C44.1451462,26.6285872 45.0408074,25.7283679 45.0408074,24.6270951 L45.0408074,14.908183" id="Path-48" stroke="#404F54" stroke-width="2" stroke-linecap="round" fill="#FF8F5C"/>
                        </g>
                        <g id="Group-6-Copy">
                            <path d="M21.6735402,112.332713 C21.6735402,112.332713 33.2718001,102.395451 55.1224495,102.395451 C76.9730989,102.395451 89.4856253,111.909885 89.4856253,111.909885 L95.6660985,85.7655341 L92.3464975,63.7505401 L64.6392773,55.4758701 L19.7676217,58.5529432 L15.0447094,87.4855677 L21.6735402,112.332713 Z" id="Path-45" stroke="#404F54" stroke-width="2" stroke-linecap="round" fill="#4d90cc"/>
                            <path d="M100.527826,47.7269433 L100.527826,105.292438 C100.527826,105.292438 100.527826,118.431014 91.2056589,122.143925 C81.8834917,125.856837 75.708603,123.631802 75.708603,123.631802 C75.708603,123.631802 81.5244865,119.083606 84.3638184,115.456058 C87.2031503,111.828511 86.931902,105.094372 86.931902,105.094372 L86.931902,52.0342746 L100.527826,47.7269433 Z" id="Path-44" stroke="#404F54" stroke-width="2" stroke-linecap="round" fill="#4d90cc"/>
                            <ellipse id="Oval-5" stroke="#1F5F59" stroke-width="2" stroke-linecap="round" fill="#F5F6F7" cx="13.769917" cy="67.8807937" rx="9.33622721" ry="9.33622721"/>
                            <ellipse id="Oval-5-Copy" stroke="#404F54" stroke-width="2" stroke-linecap="round" fill="#F5F6F7" cx="90.1846155" cy="67.8807937" rx="9.33622721" ry="9.33622721"/>
                            <path d="M98.530485,69.0616891 L89.1984979,66.706865 L89.1984979,57.4686653 L98.1609682,65.6445044 C98.1609682,65.6445044 98.8608532,67.0704672 98.530485,69.0616891 Z" id="Path-3" fill="#DAE2E6"/>
                            <rect id="Rectangle-31-Copy-3" stroke="#404F54" stroke-width="2" stroke-linecap="round" fill="#FF8F5C" x="40.8696745" y="101.015169" width="27.0239513" height="26.9406514" rx="13.4703257"/>
                            <rect id="Rectangle-31-Copy-6" stroke="#404F54" stroke-width="2" stroke-linecap="round" fill="#F5F6F7" x="45.3926213" y="86.9515378" width="17.9780578" height="32.2363121" rx="8.98902891"/>
                            <rect id="Rectangle-31" stroke="#404F54" stroke-width="2" stroke-linecap="round" fill="#FFFFFF" x="20.5434891" y="18.7778717" width="67.6763222" height="87.138914" rx="33.8381611"/>
                            <path d="M87.1565137,62.3830489 L87.1565137,40.837523 L67.9594339,34.5499606 C66.6582766,30.9062273 63.966741,27.9720862 63.966741,27.9720862 L45.2569878,31.129736 L17.9917429,54.4076304 L16.4269175,75.6764808 C16.4269175,75.6764808 30.8748375,71.3412563 39.9983552,67.9634166 C47.358104,65.2385848 59.8975678,51.187922 64.9330372,45.5086416 C66.0707407,48.4017109 87.1565137,62.3830489 87.1565137,62.3830489 Z" id="Combined-Shape" fill="#DAE2E6"/>
                            <path d="M65.4966078,37.1144083 C62.1506098,41.9277622 57.5509456,46.8101508 51.3257705,50.4035262 C33.6930328,60.5817213 23.4932974,62.7796306 23.4932974,62.7796306 L23.9911179,105.196489 C23.9911179,105.196489 23.9911179,113.385795 27.1328119,117.073975 C30.274506,120.762155 35.2008545,124.442356 35.2008545,124.442356 C35.2008545,124.442356 25.3824624,127.210685 14.3282947,124.442356 C3.27412703,121.674028 0.457931022,107.883443 0.457931022,107.883443 L0.733701816,48.5869601 C1.06277114,38.5718222 -1.38443855,5.50861913 37.0038582,1.15041208 C58.0764403,-2.47066986 66.9992659,4.38841398 70.7770096,10.7667962 C70.9526142,10.6767227 71.1316824,10.5925626 71.3142794,10.5146357 C79.3928518,7.06694451 88.5948104,7.75833323 96.0282948,18.8653221 C103.461779,29.9723109 100.417731,66.0705112 100.417731,66.0705112 L87.6546234,57.3102639 C87.6546234,57.3102639 78.8072164,53.281152 72.2725247,46.6323765 C69.4637513,43.774567 67.1836222,40.2287773 65.4966078,37.1144083 Z" id="Combined-Shape" stroke="#404F54" stroke-width="2" stroke-linecap="round" fill="#9ACFFF"/>
                            <path d="M65.6600112,35.5750459 C62.8781184,40.5197885 56.4432908,46.4706235 51.1256121,49.5401622 C36.0633474,58.2345959 22.4288254,62.0447512 22.4288254,62.0447512 L23.0176857,103.445199 C23.0176857,103.445199 22.4288254,111.782797 25.1768081,116.007125 C25.1768081,116.007125 26.3717867,117.498646 20.016495,116.007125 C10.5737867,113.642359 8.16813135,101.862144 8.16813135,101.862144 L8.40370071,51.2098097 C8.40370071,51.2098097 10.2204327,13.8605831 39.3864502,10.6884877 C57.3871026,7.59528167 65.0091729,13.4544576 68.2362035,18.9030088 C68.3862096,18.8260676 68.5391735,18.7541762 68.6951518,18.6876093 C75.5960425,15.7425172 83.4565539,16.3331164 89.8063966,25.8209457 C96.1562393,35.3087751 94.619607,60.8488932 94.619607,60.8488932 C94.619607,60.8488932 90.1913912,58.1435691 88.2273017,56.4515249 C70.4076872,48.5059562 65.6600112,35.5750459 65.6600112,35.5750459 Z" id="Combined-Shape-Copy" fill="#4d90cc"/>
                            <polyline id="Path-35" stroke="#404F54" stroke-width="2" stroke-linecap="round" stroke-linejoin="round" fill="#F5F6F7" points="53.06894 69.0470723 53.06894 81.9543013 56.9182187 81.9543013"/>
                            <path d="M48.4943688,88.0844944 C48.4943688,91.6557703 51.3894599,94.5508613 54.9607357,94.5508613 C58.5320115,94.5508613 61.4271026,91.6557703 61.4271026,88.0844944 L48.4943688,88.0844944 Z" id="Oval-5-Copy-2" fill="#FF8F5C"/>
                            <path d="M67.2347439,66.250575 C67.2347439,68.9571252 69.4288364,71.1512177 72.1353866,71.1512177 C74.8419369,71.1512177 77.0360293,68.9571252 77.0360293,66.250575" id="Oval-5-Copy-5" stroke="#404F54" stroke-width="2" stroke-linecap="round" fill="#FFFFFF" transform="translate(72.135387, 68.700896) rotate(-180.000000) translate(-72.135387, -68.700896) "/>
                            <path d="M31.2895521,66.250575 C31.2895521,68.9571252 33.4836445,71.1512177 36.1901948,71.1512177 C38.896745,71.1512177 41.0908375,68.9571252 41.0908375,66.250575" id="Oval-5-Copy-6" stroke="#404F54" stroke-width="2" stroke-linecap="round" fill="#FFFFFF" transform="translate(36.190195, 68.700896) rotate(-180.000000) translate(-36.190195, -68.700896) "/>
                        </g>
                    </g>
                    <g id="mouse" transform="translate(3.000000, 194.000000)">
                        <path d="M25.4192728,13.1080845 C25.2682678,6.33646549 19.7316666,0.893494871 12.9237915,0.893494871 C6.11591638,0.893494871 0.579315188,6.33646549 0.428310119,13.1080845 L25.4192728,13.1080845 L25.4192728,13.1080845 Z" id="Combined-Shape-Copy-3" fill="#F5F6F7"/>
                        <path d="M15.8840433,3.78720178 C10.6889931,3.78720178 6.46404478,7.94070119 6.34881368,13.1080845 L25.4192728,13.1080845 C25.3040418,7.94070119 21.0790934,3.78720178 15.8840433,3.78720178 Z" id="Combined-Shape" fill="#FF8F5C"/>
                        <path d="M25.4192728,13.1080845 C25.2682678,6.33646549 19.7316666,0.893494871 12.9237915,0.893494871 C6.11591638,0.893494871 0.579315188,6.33646549 0.428310119,13.1080845 L25.4192728,13.1080845 L25.4192728,13.1080845 Z" id="Combined-Shape-Copy-2" stroke="#404F54" stroke-width="2" stroke-linecap="round"/>
                    </g>
                    <g id="hand" transform="translate(0.000000, 187.000000)" stroke="#404F54" stroke-width="2" fill="#F5F6F7" stroke-linecap="round">
                        <rect id="Rectangle-14" transform="translate(28.286329, 12.593495) rotate(29.000000) translate(-28.286329, -12.593495) " x="24.398366" y="6.84349462" width="7.77592691" height="11.5" rx="3.88796346"/>
                        <rect id="Rectangle-14-Copy-3" x="13.4553639" y="0.126539322" width="6.0001508" height="15" rx="3.0000754"/>
                        <rect id="Rectangle-14-Copy" x="6.45536393" y="1.12653932" width="6.0001508" height="15" rx="3.0000754"/>
                        <rect id="Rectangle-14-Copy-2" x="0.455363928" y="5.62653932" width="6.0001508" height="11.5" rx="3.0000754"/>
                    </g>
                    <g id="laptop" transform="translate(38.000000, 133.000000)">
                        <path d="M111.096486,43.6560517 L111.096486,64.7680008 C111.096486,68.0818514 108.405312,70.7682582 105.084065,70.7682582 L6.01242056,70.7682582 C2.69185238,70.7682582 0,68.0860686 0,64.7646229 L0,6.71104665 L0,6.71104665 C0,3.39533046 2.69117313,0.707411405 6.01242056,0.707411405 L105.084065,0.707411405 C108.404633,0.707411405 111.096486,3.40460791 111.096486,6.70650973 L111.096486,26.3638506 L111.096486,36.2745613" id="Rectangle-3" stroke="#404F54" stroke-width="2" stroke-linecap="round" fill="#F5F6F7"/>
                        <ellipse id="Oval-9" stroke="#4d90cc" stroke-width="2" stroke-linecap="round" cx="55.5913385" cy="32.1325544" rx="7.5065193" ry="7.5065193"/>
                        <path d="M1.00086924,49.4004097 L110.102278,49.4004097 L110.102278,64.7469594 C110.102278,67.5108624 107.873497,69.7514485 105.094966,69.7514485 L6.00818128,69.7514485 C3.2427192,69.7514485 1.00086924,67.5153161 1.00086924,64.7469594 L1.00086924,49.4004097 Z" id="Rectangle-9" fill="#E1EBF0"/>
                        <ellipse id="Oval" fill="#E6EDF1" cx="8.50738854" cy="9.50825778" rx="1.50130386" ry="1.50130386"/>
                        <ellipse id="Oval-Copy" fill="#E6EDF1" cx="101.588228" cy="9.50825778" rx="1.50130386" ry="1.50130386"/>
                        <ellipse id="Oval-Copy-3" fill="#C4D3DA" cx="8.50738854" cy="62.5543275" rx="1.50130386" ry="1.50130386"/>
                        <ellipse id="Oval-Copy-2" fill="#C4D3DA" cx="101.588228" cy="62.5543275" rx="1.50130386" ry="1.50130386"/>
                        <rect id="Rectangle-4" stroke="#404F54" stroke-width="2" stroke-linecap="round" fill="#E0EAEF" x="0" y="69" width="111.096486" height="5" rx="2.5"/>
                    </g>
                </g>
                <g id="Group-12" transform="translate(237.781264, 0.160156)">
                    <g id="Group-5" transform="translate(81.000000, 80.500000) rotate(-40.000000) translate(-81.000000, -80.500000) translate(22.000000, 26.000000)">
                        <path d="M26.1686223,91.7780677 C17.5378828,82.4224486 12.265625,69.9216518 12.265625,56.1894531 C12.265625,27.1945038 35.7706756,3.68945313 64.765625,3.68945313 C93.7605744,3.68945313 117.265625,27.1945038 117.265625,56.1894531 C117.265625,85.1844025 93.7605744,108.689453 64.765625,108.689453 C54.8118534,108.689453 45.505068,105.919376 37.5741115,101.108065 C35.1787726,102.27634 32.439067,103.364948 29.4814453,104.106787 C19.3935547,106.63706 9.12792969,102.692724 9.12792969,102.692724 C9.12792969,102.692724 12.8964844,101.307959 17.9042969,98.6048335 C20.3474217,97.2860797 23.5396737,94.3942286 26.1686223,91.7780677 Z" id="Combined-Shape" fill="#9ACFFF"/>
                        <path d="M24.5988874,10.9373345 C27.1329109,9.06503216 29.8413493,7.41524957 32.6953469,6.01684254 C39.658651,2.60494978 47.4884439,0.689453125 55.765625,0.689453125 C84.7605744,0.689453125 108.265625,24.1945038 108.265625,53.1894531 C108.265625,82.1844025 84.7605744,105.689453 55.765625,105.689453 C45.8118534,105.689453 36.505068,102.919376 28.5741115,98.1080653 C26.1787726,99.2763399 23.439067,100.364948 20.4814453,101.106787 C10.3935547,103.63706 0.127929688,99.6927242 0.127929688,99.6927242 C0.127929688,99.6927242 3.89648438,98.3079585 8.90429688,95.6048335 C11.3474217,94.2860797 14.5396737,91.3942286 17.1686223,88.7780677 L17.1686223,88.7780677 C8.53788277,79.4224486 3.265625,66.9216518 3.265625,53.1894531 M8.45960019,30.3934813 C11.1727627,24.7734559 14.8579195,19.7106494 19.2968698,15.4232627" id="Combined-Shape-Copy-4" stroke="#404F54" stroke-width="2" stroke-linecap="round"/>
                    </g>
                    <g id="Group-6" transform="translate(50.205963, 38.522894)">
                        <ellipse id="Oval-5" stroke="#404F54" stroke-width="2" stroke-linecap="round" fill="#F5F6F7" cx="5.95720298" cy="47.7722843" rx="5.29583777" ry="5.29583777"/>
                        <ellipse id="Oval-5-Copy" stroke="#404F54" stroke-width="2" stroke-linecap="round" fill="#F5F6F7" cx="52.0826888" cy="47.7722843" rx="5.29583777" ry="5.29583777"/>
                        <rect id="Rectangle-31-Copy-10" stroke="#404F54" stroke-width="2" stroke-linecap="round" fill="#F5F6F7" x="23.8947176" y="65.0774145" width="10.1977893" height="18.2855746" rx="5.09889463"/>
                        <rect id="Rectangle-8" stroke="#404F54" stroke-width="2" stroke-linecap="round" fill="#FF8F5C" x="19.1293549" y="63.987146" width="4.5305705" height="11.7794833" rx="2.26528525"/>
                        <rect id="Rectangle-8-Copy" stroke="#404F54" stroke-width="2" stroke-linecap="round" fill="#FF8F5C" x="34.0925068" y="63.987146" width="4.5305705" height="11.7794833" rx="2.26528525"/>
                        <rect id="Rectangle-31" stroke="#404F54" stroke-width="2" stroke-linecap="round" fill="#FFFFFF" x="7.70492647" y="11.2530408" width="42.5773715" height="62.6450069" rx="21.2886857"/>
                        <path d="M50.2822979,33.3990333 L50.2822979,32.5491955 C50.2822979,20.7845 40.7510287,11.2530408 28.9936122,11.2530408 C17.2336106,11.2530408 7.70492647,20.787654 7.70492647,32.5491955 L7.70492647,35.6555131 L8.60197264,36.537375 L8.60197264,46.2692528 C8.60197264,46.2692528 12.3870342,39.6247111 14.515606,35.4175631 C16.6441777,31.2104152 16.8738033,30.1383866 16.8738033,30.1383866 C16.8738033,30.1383866 22.4799419,32.0590123 28.8563659,32.0590123 C35.2327899,32.0590123 40.9809512,29.6132121 40.9809512,29.6132121 C40.9809512,29.6132121 45.8964432,39.8030138 47.2737544,41.2285507 C48.6510655,42.6540876 49.3802042,44.4273812 49.3802042,44.4273812 L49.3802042,35.4175631 L50.2822979,33.3990333 Z" id="Combined-Shape" fill="#DAE2E6"/>
                        <polyline id="Path-35" stroke="#404F54" stroke-width="2" stroke-linecap="round" stroke-linejoin="round" fill="#F5F6F7" points="26.1103199 47.0171795 26.1103199 57.608855 30.4324434 57.608855"/>
                        <path d="M24.4689492,62.8069428 C24.4689492,65.3970121 26.5686152,67.4966781 29.1586845,67.4966781 C31.7487538,67.4966781 33.8484198,65.3970121 33.8484198,62.8069428" id="Oval-5-Copy-2" fill="#FF8F5C"/>
                        <path d="M34.6990077,39.5673694 C34.6990077,41.9781756 36.6533523,43.9325202 39.0641585,43.9325202 C41.4749647,43.9325202 43.4293092,41.9781756 43.4293092,39.5673694" id="Oval-5-Copy-3" stroke="#404F54" stroke-width="2" stroke-linecap="round" fill="#F5F6F7" transform="translate(39.064158, 41.749945) rotate(-180.000000) translate(-39.064158, -41.749945) "/>
                        <path d="M35.6051218,49.616206 C35.6051218,50.98109 36.7115789,52.0875471 38.0764629,52.0875471 C39.4413468,52.0875471 40.5478039,50.98109 40.5478039,49.616206" id="Oval-5-Copy-7" stroke="#404F54" stroke-width="2" stroke-linecap="round" fill="#F5F6F7" transform="translate(38.076463, 50.851877) rotate(-180.000000) translate(-38.076463, -50.851877) "/>
                        <path d="M17.4828398,49.616206 C17.4828398,50.98109 18.5892969,52.0875471 19.9541809,52.0875471 C21.3190648,52.0875471 22.4255219,50.98109 22.4255219,49.616206" id="Oval-5-Copy-8" stroke="#404F54" stroke-width="2" stroke-linecap="round" fill="#F5F6F7" transform="translate(19.954181, 50.851877) rotate(-180.000000) translate(-19.954181, -50.851877) "/>
                        <path d="M14.1199448,39.5673694 C14.1199448,41.9781756 16.0742894,43.9325202 18.4850956,43.9325202 C20.8959018,43.9325202 22.8502464,41.9781756 22.8502464,39.5673694" id="Oval-5-Copy-4" stroke="#404F54" stroke-width="2" stroke-linecap="round" fill="#F5F6F7" transform="translate(18.485096, 41.749945) rotate(-180.000000) translate(-18.485096, -41.749945) "/>
                        <path d="M28.9768685,80.1099183 C28.9768685,80.1099183 35.9319466,74.9595277 37.8186654,74.9595277 C39.7053841,74.9595277 42.3430794,79.2124574 41.0208138,80.1099183 C39.6985482,81.0073793 37.8186654,82.7026918 37.8186654,82.7026918 L39.6985482,84.3921449 L38.9985492,85.3528708 C38.3469173,86.2472143 36.93525,86.7881134 35.860022,86.5640287 L28.9436654,85.1226137 L28.9768685,80.1099183 Z" id="Path-51" stroke="#404F54" stroke-width="2" stroke-linecap="round" fill="#9ACFFF"/>
                        <path d="M15.1979748,80.1099183 C15.1979748,80.1099183 22.1530529,74.9595277 24.0397716,74.9595277 C25.9264904,74.9595277 28.5641857,79.2124574 27.2419201,80.1099183 C25.9196544,81.0073793 24.0397716,82.7026918 24.0397716,82.7026918 L25.9196544,84.3921449 L25.2196555,85.3528708 C24.5680236,86.2472143 23.1563563,86.7881134 22.0811283,86.5640287 L15.1647716,85.1226137 L15.1979748,80.1099183 Z" id="Path-51-Copy" stroke="#404F54" stroke-width="2" stroke-linecap="round" fill="#9ACFFF" transform="translate(21.381935, 80.787081) scale(-1, 1) translate(-21.381935, -80.787081) "/>
                        <rect id="Rectangle-7" stroke="#404F54" stroke-width="2" stroke-linecap="round" fill="#6aace6" x="24.4601755" y="76.9829652" width="8.27784489" height="9.46039416" rx="4.13892244"/>
                        <path d="M15.5364051,25.8736779 C15.5364051,25.8736779 24.0148305,28.1071966 29.1755308,28.1071966 C34.3362311,28.1071966 42.5780404,25.8736779 42.5780404,25.8736779 C42.5780404,25.8736779 44.7339135,30.6730435 45.6616087,32.5012284 C46.5893038,34.3294133 50.8539864,41.9562295 50.8539864,41.9562295 L54.4525386,42.30833 L55.8001855,28.1071966 C55.8001855,28.1071966 55.9078878,23.5931362 54.4525386,20.5001528 C53.3227271,18.0990189 49.3894589,14.927941 48.0944327,13.8391413 C46.9143612,12.8469904 44.1557006,11.2209797 41.0213227,8.77132765 C36.2851859,5.06983157 30.9488159,0.396202767 30.9488159,0.396202767 C30.9488159,0.396202767 30.6712415,3.80113063 30.9488159,5.20165216 C31.2245401,6.59283892 32.6087114,8.77132765 32.6087114,8.77132765 C32.6087114,8.77132765 26.3494278,4.27397166 22.8511684,2.69512245 C20.658659,1.70558989 15.5364051,1.06618234 15.5364051,1.06618234 L20.5350982,9.79949153 C20.5350982,9.79949153 15.9808004,6.90067625 12.7931426,6.07163698 C10.0878996,5.36806312 2.85639605,6.07163698 2.85639605,6.07163698 L8.89772799,12.9760008 C8.89772799,12.9760008 3.65227733,17.3771102 2.85639605,19.5237013 C2.16494817,21.3886224 2.85639605,27.1862599 2.85639605,27.1862599 L4.30903092,41.8482419 L7.91753885,41.9440619 L12.7931426,32.5012284 L15.5364051,25.8736779 Z" id="Path-53" stroke="#404F54" stroke-width="2" stroke-linecap="round" fill="#FF8F5C"/>
                        <path d="M54.5662404,41.1101718 L55.8001855,28.1071966 C55.8001855,28.1071966 55.9078878,23.5931362 54.4525386,20.5001528 C53.3227271,18.0990189 49.3894589,14.927941 48.0944327,13.8391413 C46.9143612,12.8469904 44.1557006,11.2209797 41.0213227,8.77132765 C36.2851859,5.06983157 30.9488159,0.396202767 30.9488159,0.396202767 C30.9488159,0.396202767 30.6712415,3.80113063 30.9488159,5.20165216 C31.2245401,6.59283892 32.6087114,8.77132765 32.6087114,8.77132765 C32.6087114,8.77132765 26.3494278,4.27397166 22.8511684,2.69512245 C20.658659,1.70558989 15.5364051,1.06618234 15.5364051,1.06618234 L20.5350982,9.79949153 C20.5350982,9.79949153 15.9808004,6.90067625 12.7931426,6.07163698 C10.0878996,5.36806312 2.85639605,6.07163698 2.85639605,6.07163698 L8.89772799,12.9760008 C8.89772799,12.9760008 3.65227733,17.3771102 2.85639605,19.5237013 C2.16494817,21.3886224 2.85639605,27.1862599 2.85639605,27.1862599 L4.30903092,41.8482419 L6.69352859,41.9115597 C6.66466255,38.9768603 6.60229513,25.8573266 7.74364191,22.4572114 C9.03113801,18.6217118 17.0428148,16.4471265 17.0428148,16.4471265 L13.817438,11.9386779 C13.817438,11.9386779 17.4197724,11.5148218 21.0513079,13.7571002 C24.6828433,15.9993787 29.4523306,15.490132 29.4523306,15.490132 L24.3722514,8.15405877 C24.3722514,8.15405877 28.2568617,10.1945852 30.6628424,11.9386779 C33.0688231,13.6827706 41.7370787,18.2062621 41.7370787,18.2062621 L39.5452382,14.6632143 C39.5452382,14.6632143 48.0940354,17.9921218 50.140756,22.2820057 C51.6999366,25.5500159 53.7012592,36.2147899 54.5662404,41.1101718 Z" id="Combined-Shape" fill="#FFA47B"/>
                        <path d="M15.5364051,25.8736779 C15.5364051,25.8736779 24.0148305,28.1071966 29.1755308,28.1071966 C34.3362311,28.1071966 42.5780404,25.8736779 42.5780404,25.8736779 C42.5780404,25.8736779 44.7339135,30.6730435 45.6616087,32.5012284 C46.5893038,34.3294133 50.8539864,41.9562295 50.8539864,41.9562295 L54.4525386,42.30833 L55.8001855,28.1071966 C55.8001855,28.1071966 55.9078878,23.5931362 54.4525386,20.5001528 C53.3227271,18.0990189 49.3894589,14.927941 48.0944327,13.8391413 C46.9143612,12.8469904 44.1557006,11.2209797 41.0213227,8.77132765 C36.2851859,5.06983157 30.9488159,0.396202767 30.9488159,0.396202767 C30.9488159,0.396202767 30.6712415,3.80113063 30.9488159,5.20165216 C31.2245401,6.59283892 32.6087114,8.77132765 32.6087114,8.77132765 C32.6087114,8.77132765 26.3494278,4.27397166 22.8511684,2.69512245 C20.658659,1.70558989 15.5364051,1.06618234 15.5364051,1.06618234 L20.5350982,9.79949153 C20.5350982,9.79949153 15.9808004,6.90067625 12.7931426,6.07163698 C10.0878996,5.36806312 2.85639605,6.07163698 2.85639605,6.07163698 L8.89772799,12.9760008 C8.89772799,12.9760008 3.65227733,17.3771102 2.85639605,19.5237013 C2.16494817,21.3886224 2.85639605,27.1862599 2.85639605,27.1862599 L4.30903092,41.8482419 L7.91753885,41.9440619 L12.7931426,32.5012284 L15.5364051,25.8736779 Z" id="Path-53-Copy-2" stroke="#404F54" stroke-width="2" stroke-linecap="round"/>
                    </g>
                </g>
                <g id="Group-7" transform="translate(296.737793, 175.014648)">
                    <path d="M16.410831,57.2560422 C10.9983333,51.4195092 7.69200212,43.620847 7.69200212,35.0539708 C7.69200212,16.9653785 22.4324576,2.30167718 40.6157309,2.30167718 C58.7990043,2.30167718 73.5394597,16.9653785 73.5394597,35.0539708 C73.5394597,53.142563 58.7990043,67.8062643 40.6157309,67.8062643 C34.3735352,67.8062643 28.5370765,66.078143 23.5634259,63.0765912 C22.0612641,63.8054231 20.3431437,64.4845545 18.488364,64.9473531 C12.1620597,66.5258724 5.72429489,64.0651857 5.72429489,64.0651857 C5.72429489,64.0651857 8.08762579,63.2012952 11.2281184,61.514942 C12.7602475,60.6922332 14.7621682,58.8881426 16.410831,57.2560422 Z" id="Combined-Shape" fill="#9ACFFF"/>
                    <path d="M15.4264209,6.82329124 C17.0155543,5.65524942 18.7140665,4.62602726 20.5038616,3.75362654 C24.8706794,1.62510629 29.7808885,0.430117546 34.9716631,0.430117546 C53.1549365,0.430117546 67.8953919,15.0938189 67.8953919,33.1824111 C67.8953919,51.2710034 53.1549365,65.9347047 34.9716631,65.9347047 C28.7294674,65.9347047 22.8930088,64.2065834 17.9193581,61.2050316 C16.4171964,61.9338634 14.6990759,62.6129948 12.8442962,63.0757935 C6.51799192,64.6543127 0.0802270922,62.1936261 0.0802270922,62.1936261 C0.0802270922,62.1936261 2.443558,61.3297356 5.58405058,59.6433824 C7.11617971,58.8206736 9.11810045,57.016583 10.7667632,55.3844826 L10.7667632,55.3844826 C5.35426546,49.5479496 2.04793432,41.7492873 2.04793432,33.1824111 M5.305173,18.9610709 C7.00664777,15.455 9.31767831,12.2965519 12.1014268,9.62185195" id="Combined-Shape-Copy-4" stroke="#404F54" stroke-width="2" stroke-linecap="round"/>
                    <g id="Group-6" transform="translate(17.688485, 7.812448)">
                        <ellipse id="Oval-5" stroke="#404F54" stroke-width="2" stroke-linecap="round" fill="#F5F6F7" cx="3.73587306" cy="30.8028929" rx="3.3211186" ry="3.3038254"/>
                        <ellipse id="Oval-5-Copy" stroke="#404F54" stroke-width="2" stroke-linecap="round" fill="#F5F6F7" cx="32.6620251" cy="30.8028929" rx="3.3211186" ry="3.3038254"/>
                        <rect id="Rectangle-31-Copy-8" stroke="#404F54" stroke-width="2" stroke-linecap="round" fill="#FF8F5C" x="4.83190304" y="36.6940199" width="26.7010635" height="11.4075144" rx="5.70375722"/>
                        <circle id="Oval-3" stroke="#404F54" stroke-width="2" fill="#FFA47B" cx="18.5" cy="7.5" r="6.68993697"/>
                        <path d="M24.8630198,5.42842683 C25.0752296,6.08068996 25.189937,6.77694931 25.189937,7.5 C25.189937,11.1947502 22.1947502,14.189937 18.5,14.189937 C16.8329634,14.189937 15.3083389,13.5801979 14.1369802,12.5715732 C13.9247704,11.91931 13.810063,11.2230507 13.810063,10.5 C13.810063,6.80524983 16.8052498,3.81006303 20.5,3.81006303 C22.1670366,3.81006303 23.6916611,4.41980214 24.8630198,5.42842683 Z" id="Combined-Shape" fill="#FF8F5C"/>
                        <circle id="Oval-3-Copy" stroke="#404F54" stroke-width="2" cx="18.5" cy="7.5" r="6.68993697"/>
                        <rect id="Rectangle-31-Copy-10" stroke="#404F54" stroke-width="2" stroke-linecap="round" fill="#F5F6F7" x="14.9848229" y="40.598754" width="6.39522378" height="11.4075144" rx="3.19761189"/>
                        <rect id="Rectangle-31" stroke="#404F54" stroke-width="2" stroke-linecap="round" fill="#FFFFFF" x="4.83190304" y="10.6113804" width="26.7010635" height="35.490154" rx="13.3505317"/>
                        <polyline id="Path-35" stroke="#404F54" stroke-width="1.5" stroke-linecap="round" stroke-linejoin="round" points="16.9851046 32.1528843 16.9851046 35.9394692 18.0847527 35.9394692"/>
                        <path d="M15.7214308,38.7391391 C15.7214308,39.9635205 16.713988,40.9560777 17.9383694,40.9560777 C19.1627508,40.9560777 20.155308,39.9635205 20.155308,38.7391391" id="Oval-5-Copy-2" stroke="#FF8F5C" stroke-width="2" stroke-linecap="round" fill="#F5F6F7"/>
                        <path d="M14.0135386,11.2745138 C8.68107531,13.0241101 4.83190304,18.039148 4.83190304,23.9528413 L4.83190304,28.3046894 C5.88521102,28.0726199 10.3794943,27.0834076 16.2443759,25.8066929 C22.9689853,24.3428257 25.623038,22.1063755 25.623038,22.1063755 C25.623038,22.1063755 26.8768395,25.3665913 27.8027255,27.0176304 C28.5962665,28.4326721 30.5595614,30.5228794 30.5595614,30.5228794 L30.5595614,26.4061802 C30.5595614,26.4061802 30.9841989,26.5587251 31.5329665,26.6056731 L31.5329665,23.9528413 C31.5329665,18.2797807 27.9828603,13.4268789 22.9796002,11.499431 C20.5499272,11.1745201 17.7396101,11.2671421 14.5024325,11.2671421 C14.3376373,11.2671421 14.1746802,11.2696175 14.0135386,11.2745138 Z" id="Combined-Shape" fill="#DAE2E6"/>
                        <path d="M22.3286357,30.9532294 C22.3286357,31.8047167 23.0225156,32.4949835 23.8784598,32.4949835 C24.7344039,32.4949835 25.4282838,31.8047167 25.4282838,30.9532294" id="Oval-5-Copy-7" stroke="#404F54" stroke-width="1.5" stroke-linecap="round" fill="#F5F6F7" transform="translate(23.878460, 31.724106) rotate(-180.000000) translate(-23.878460, -31.724106) "/>
                        <path d="M10.9638148,30.9532294 C10.9638148,31.8047167 11.6576947,32.4949835 12.5136388,32.4949835 C13.369583,32.4949835 14.0634629,31.8047167 14.0634629,30.9532294" id="Oval-5-Copy-8" stroke="#404F54" stroke-width="1.5" stroke-linecap="round" fill="#F5F6F7" transform="translate(12.513639, 31.724106) rotate(-180.000000) translate(-12.513639, -31.724106) "/>
                        <path d="M9.9638148,25.9584365 C9.9638148,27.3593327 11.1054099,28.4949835 12.5136388,28.4949835 C13.9218678,28.4949835 15.0634629,27.3593327 15.0634629,25.9584365" id="Oval-5-Copy-12" stroke="#404F54" stroke-width="1.5" stroke-linecap="round" transform="translate(12.513639, 27.226710) rotate(-180.000000) translate(-12.513639, -27.226710) "/>
                        <path d="M20.9638148,25.9584365 C20.9638148,27.3593327 22.1054099,28.4949835 23.5136388,28.4949835 C24.9218678,28.4949835 26.0634629,27.3593327 26.0634629,25.9584365" id="Oval-5-Copy-13" stroke="#404F54" stroke-width="1.5" stroke-linecap="round" transform="translate(23.513639, 27.226710) rotate(-180.000000) translate(-23.513639, -27.226710) "/>
                        <path d="M26.3525302,18.8291538 C26.3525302,18.8291538 23.0478427,21.5762241 16.3232333,23.0400913 C9.59862394,24.5039585 4.99364347,25.2290562 4.99364347,25.2290562 L4.6777255,28.3313772 L1.80499742,28.3313772 C1.80499742,28.3313772 0.511221594,19.3789585 2.732413,15.4570835 C4.95360441,11.5352085 8.51463956,8.26714211 14.5024325,8.26714211 C20.4902255,8.26714211 25.0175693,7.95024758 28.3769443,10.5449741 C31.7363193,13.1397007 33.951163,17.8442905 33.951163,21.2344273 C33.951163,24.624564 33.951163,28.027396 33.951163,28.027396 L31.5108112,28.027396 C31.5108112,28.027396 29.1704853,25.4922424 28.3769443,24.0772007 C27.4510583,22.4261617 26.3525302,18.8291538 26.3525302,18.8291538 Z" id="Path-54" stroke="#404F54" stroke-width="2" fill="#FFA47B"/>
                        <path d="M5.18972115,25.1974742 C6.13370779,25.0436665 10.4085841,24.3276399 16.3232333,23.0400913 C23.0478427,21.5762241 26.3525302,18.8291538 26.3525302,18.8291538 C26.3525302,18.8291538 27.4510583,22.4261617 28.3769443,24.0772007 C28.7642596,24.7678611 29.5200607,25.7253623 30.1923739,26.5246885 C30.1923739,24.6073599 30.1923739,22.6436059 30.1923739,21.5545155 C30.1923739,18.9480508 28.4895187,15.330985 25.9067047,13.3360616 C23.3238908,11.3411381 19.8430985,11.5847786 15.2394579,11.5847786 C10.6358173,11.5847786 7.8979594,14.097391 6.19022384,17.1126761 C5.37824111,18.5463638 5.17721202,21.9848094 5.18972115,25.1974742 Z" id="Combined-Shape" fill="#FF8F5C"/>
                        <path d="M26.3525302,18.8291538 C26.3525302,18.8291538 23.0478427,21.5762241 16.3232333,23.0400913 C9.59862394,24.5039585 4.99364347,25.2290562 4.99364347,25.2290562 L4.75316495,28.3313772 L1.80499742,28.3313772 C1.80499742,28.3313772 0.511221594,19.3789585 2.732413,15.4570835 C4.95360441,11.5352085 8.51463956,8.26714211 14.5024325,8.26714211 C20.4902255,8.26714211 25.0175693,7.95024758 28.3769443,10.5449741 C31.7363193,13.1397007 33.951163,17.8442905 33.951163,21.2344273 C33.951163,24.624564 33.951163,28.027396 33.951163,28.027396 L31.5108112,28.027396 C31.5108112,28.027396 29.1704853,25.4922424 28.3769443,24.0772007 C27.4510583,22.4261617 26.3525302,18.8291538 26.3525302,18.8291538 Z" id="Path-54-Copy-3" stroke="#404F54" stroke-width="2"/>
                        <path d="M26.3525302,21.8291538 C26.3525302,21.8291538 23.0478427,24.5762241 16.3232333,26.0400913 C9.59862394,27.5039585 4.99364347,28.2290562 4.99364347,28.2290562 L4.75316495,31.3313772 L1.80499742,31.3313772 C1.80499742,31.3313772 0.511221594,22.3789585 2.732413,18.4570835 C4.95360441,14.5352085 8.51463956,11.2671421 14.5024325,11.2671421 C20.4902255,11.2671421 25.0175693,10.9502476 28.3769443,13.5449741 C31.7363193,16.1397007 33.951163,20.8442905 33.951163,24.2344273 C33.951163,27.624564 33.951163,31.027396 33.951163,31.027396 L31.5108112,31.027396 C31.5108112,31.027396 29.1704853,28.4922424 28.3769443,27.0772007 C27.4510583,25.4261617 26.3525302,21.8291538 26.3525302,21.8291538 Z" id="Path-54-Copy-6"/>
                    </g>
                </g>
                <g id="Group-13" transform="translate(95.000000, 37.000000)">
                    <g id="Group-4" transform="translate(51.500000, 51.500000) rotate(32.000000) translate(-51.500000, -51.500000) translate(13.000000, 16.000000)">
                        <path d="M11.5989848,59.7820441 C5.96706154,53.688017 2.52668995,45.5452961 2.52668995,36.6004695 C2.52668995,17.7138511 17.8647315,2.40322176 36.7851645,2.40322176 C55.7055976,2.40322176 71.0436391,17.7138511 71.0436391,36.6004695 C71.0436391,55.4870879 55.7055976,70.7977172 36.7851645,70.7977172 C30.2899068,70.7977172 24.216835,68.9933552 19.0415498,65.859382 C17.4784896,66.6203682 15.6907156,67.3294613 13.7607422,67.8126775 C7.1779661,69.4608373 0.479210805,66.891591 0.479210805,66.891591 C0.479210805,66.891591 2.93835242,65.9895877 6.20616227,64.2288365 C7.80040475,63.3698317 9.88348443,61.4861489 11.5989848,59.7820441 Z" id="Combined-Shape" fill="#9ACFFF" transform="translate(35.761425, 36.600469) scale(-1, 1) translate(-35.761425, -36.600469) "/>
                        <path d="M22.320429,7.1243188 C23.9739867,5.90474572 25.7413575,4.83011669 27.6037118,3.91922771 C32.1475628,1.69680215 37.2568345,0.44909332 42.6580459,0.44909332 C61.5784789,0.44909332 76.9165205,15.7597226 76.9165205,34.646341 C76.9165205,53.5329594 61.5784789,68.8435887 42.6580459,68.8435887 C36.1627882,68.8435887 30.0897163,67.0392267 24.9144311,63.9052536 C23.351371,64.6662398 21.563597,65.3753328 19.6336235,65.8585491 C13.0508475,67.5067089 6.35209216,64.9374625 6.35209216,64.9374625 C6.35209216,64.9374625 8.81123378,64.0354592 12.0790436,62.2747081 C13.6732861,61.4157033 15.7563658,59.5320205 17.4718662,57.8279157 L17.4718662,57.8279157 C11.8399429,51.7338885 8.39957131,43.5911677 8.39957131,34.646341 M11.7888602,19.7975888 C13.5593137,16.1368382 15.9640346,12.8390468 18.8606378,10.0463454" id="Combined-Shape-Copy-4" stroke="#404F54" stroke-width="2" stroke-linecap="round" transform="translate(41.634306, 34.646341) scale(-1, 1) translate(-41.634306, -34.646341) "/>
                    </g>
                </g>
                <g id="Group-7" transform="translate(106.160487, 202.483398) scale(-1, 1) translate(-106.160487, -202.483398) translate(55.160487, 155.483398)">
                    <path d="M22.6203346,79.1480584 C15.1598648,71.0799098 10.6024894,60.2994061 10.6024894,48.4569596 C10.6024894,23.4521409 30.9204145,3.18173022 55.9838453,3.18173022 C81.0472761,3.18173022 101.365201,23.4521409 101.365201,48.4569596 C101.365201,73.4617783 81.0472761,93.7321889 55.9838453,93.7321889 C47.3797377,93.7321889 39.3348893,91.3433153 32.4793167,87.1941114 C30.4087695,88.2016142 28.0405494,89.1404135 25.4839612,89.7801646 C16.7639202,91.9622353 7.89024431,88.5606979 7.89024431,88.5606979 C7.89024431,88.5606979 11.1478085,87.3664963 15.4765956,85.035361 C17.5884493,83.8980871 20.3478535,81.4041972 22.6203346,79.1480584 Z" id="Combined-Shape" fill="#9ACFFF"/>
                    <path d="M21.263445,9.43219672 C23.4538721,7.81755067 25.7950647,6.39480238 28.2620795,5.18883668 C34.2812068,2.24647045 41.0493328,0.594574255 48.2041843,0.594574255 C73.2676151,0.594574255 93.5855403,20.8649849 93.5855403,45.8698036 C93.5855403,70.8746223 73.2676151,91.145033 48.2041843,91.145033 C39.6000767,91.145033 31.5552283,88.7561593 24.6996557,84.6069554 C22.6291085,85.6144583 20.2608884,86.5532575 17.7043002,87.1930087 C8.98425914,89.3750793 0.110583289,85.9735419 0.110583289,85.9735419 C0.110583289,85.9735419 3.36814751,84.7793404 7.69693459,82.4482051 C9.80878825,81.3109311 12.5681925,78.8170412 14.8406735,76.5609024 L14.8406735,76.5609024 C7.38020375,68.4927538 2.82282839,57.7122501 2.82282839,45.8698036 M7.31253576,26.2108922 C9.65781179,21.3642647 12.8432863,16.9981747 16.680345,13.3007953" id="Combined-Shape-Copy-4" stroke="#404F54" stroke-width="2" stroke-linecap="round"/>
                    <g id="Group-6" transform="translate(24.381426, 11.799560)">
                        <ellipse id="Oval-5-Copy-11" stroke="#404F54" stroke-width="2" stroke-linecap="round" fill="#6aace6" cx="25.1494466" cy="63.1887625" rx="8.57775808" ry="8.55769856"/>
                        <path d="M47.7469655,33.8867605 L49.9251586,52.7093975 C50.6238053,58.7466828 46.2608349,63.6408696 40.1948771,63.6408696 L10.0385799,63.6408696 C3.96604707,63.6408696 -0.405914346,58.7442529 0.272920287,52.7093975 L2.39019682,33.8867605 L47.7469655,33.8867605 Z" id="Rectangle-20" stroke="#404F54" stroke-width="2" stroke-linecap="round" fill="#FF8F5C"/>
                        <ellipse id="Oval-5" stroke="#404F54" stroke-width="2" stroke-linecap="round" fill="#F5F6F7" cx="5.14944665" cy="37.1981167" rx="4.57775808" ry="4.56705276"/>
                        <ellipse id="Oval-5-Copy" stroke="#404F54" stroke-width="2" stroke-linecap="round" fill="#F5F6F7" cx="45.0206293" cy="37.1981167" rx="4.57775808" ry="4.56705276"/>
                        <rect id="Rectangle-31-Copy-10" stroke="#404F54" stroke-width="2" stroke-linecap="round" fill="#F5F6F7" x="20.6547559" y="52.121807" width="8.81503818" height="15.7692111" rx="4.40751909"/>
                        <rect id="Rectangle-31" stroke="#404F54" stroke-width="2" stroke-linecap="round" fill="#FFFFFF" x="6.66019067" y="8.59301802" width="36.8041686" height="51.1355736" rx="18.4020843"/>
                        <path d="M6.73709411,25.3055791 C7.59194875,15.9339386 15.4680649,8.59301802 25.062275,8.59301802 C33.6960613,8.59301802 40.9411282,14.542671 42.9261534,22.5638412 L42.5217986,29.756104 C42.5217986,29.756104 42.5217986,35.1609542 42.5217986,35.1609542 C42.5217986,35.1609542 41.6242851,34.8452612 41.0866779,34.4240727 C37.6052326,31.6965336 37.673592,25.6975102 37.673592,25.6975102 C37.673592,25.6975102 33.8308186,27.7912602 31.6032795,27.7912602 C29.3757404,27.7912602 28.6452717,24.9191899 28.6452717,24.9191899 C28.6452717,24.9191899 26.2282795,27.0246586 23.8737873,27.0246586 C21.5192951,27.0246586 12.1413654,28.1760258 12.1413654,28.1760258 L7.58960762,37.1516118 L7.58960762,25.6975102 L6.73709411,25.3055791 Z" id="Combined-Shape" fill="#DAE2E6"/>
                        <path d="M39.1778671,19.8467837 C39.1778671,19.8467837 35.748546,24.5588735 32.495953,24.5588735 C29.2433601,24.5588735 30.900435,19.8467837 30.900435,19.8467837 C30.900435,19.8467837 24.1599425,23.6365112 19.5511096,24.5588735 C14.9422768,25.4812358 10.4386865,24.5588735 10.4386865,24.5588735 L6.71448746,31.5892797 L6.265717,33.2106119 L2.91582426,32.9832481 C2.91582426,32.9832481 0.121295716,22.2658696 1.51855999,14.8635258 C2.91582426,7.46118209 10.4876174,2.4225707 16.4176593,1.04588654 C20.0723664,0.197430926 25.7720801,0.0577236885 30.5023843,1.52972818 C31.8388332,1.94561239 33.0979012,2.49014783 34.2116064,3.18369836 C39.2672241,6.33204154 40.5797784,8.49536177 40.5797784,8.49536177 C40.5797784,8.49536177 45.6467365,7.39042496 47.7769842,13.6186043 C49.9072319,19.8467837 47.7769842,32.5086634 47.7769842,32.5086634 L44.3377345,32.7270915 C44.3377345,32.7270915 41.40002,28.7221739 40.5797784,26.6746475 C39.6800642,24.428738 39.1778671,19.8467837 39.1778671,19.8467837 Z" id="Path-52" stroke="#404F54" stroke-width="2" stroke-linecap="round" fill="#FF8F5C"/>
                        <path d="M3.89552671,33.0497424 L2.91582426,32.9832481 C2.91582426,32.9832481 0.121295716,22.2658696 1.51855999,14.8635258 C2.91582426,7.46118209 10.4876174,2.4225707 16.4176593,1.04588654 C21.1049277,-0.0422825329 29.1559888,0.0353551801 34.2116064,3.18369836 C39.2672241,6.33204154 40.5797784,8.49536177 40.5797784,8.49536177 C40.5797784,8.49536177 45.6467365,7.39042496 47.7769842,13.6186043 C49.9072319,19.8467837 47.7769842,32.5086634 47.7769842,32.5086634 L45.130775,32.6767252 C45.103651,30.2002871 44.9089049,16.5246792 43.9006428,14.5432133 C43.4913259,13.738812 42.5077057,12.7779563 41.5349201,12.3132329 C40.1023239,11.6288466 37.8376545,12.3132329 37.8376545,12.3132329 C37.8376545,12.3132329 31.2907795,4.56225631 21.4065022,4.56225631 C11.5222248,4.56225631 8.12036934,9.78149459 5.99243965,13.8879399 C3.86450996,17.9943852 3.63794746,26.9978032 3.63794746,26.9978032 L3.89552671,33.0497424 Z" id="Combined-Shape" fill="#FFA47B"/>
                        <path d="M39.1778671,19.8467837 C39.1778671,19.8467837 35.748546,24.5588735 32.495953,24.5588735 C29.2433601,24.5588735 30.900435,19.8467837 30.900435,19.8467837 C30.900435,19.8467837 24.1599425,23.6365112 19.5511096,24.5588735 C14.9422768,25.4812358 10.4386865,24.5588735 10.4386865,24.5588735 L6.71448746,31.5892797 L6.265717,33.2106119 L2.91582426,32.9832481 C2.91582426,32.9832481 0.121295716,22.2658696 1.51855999,14.8635258 C2.91582426,7.46118209 10.4876174,2.4225707 16.4176593,1.04588654 C21.1049277,-0.0422825329 29.1559888,0.0353551801 34.2116064,3.18369836 C39.2672241,6.33204154 40.5797784,8.49536177 40.5797784,8.49536177 C40.5797784,8.49536177 45.6467365,7.39042496 47.7769842,13.6186043 C49.9072319,19.8467837 47.7769842,32.5086634 47.7769842,32.5086634 L44.3377345,32.7270915 C44.3377345,32.7270915 41.40002,28.7221739 40.5797784,26.6746475 C39.6800642,24.428738 39.1778671,19.8467837 39.1778671,19.8467837 Z" id="Path-52-Copy-2" stroke="#404F54" stroke-width="2" stroke-linecap="round"/>
                        <polyline id="Path-35" stroke="#404F54" stroke-width="2" stroke-linecap="round" stroke-linejoin="round" fill="#F5F6F7" transform="translate(24.937974, 42.113978) scale(-1, 1) translate(-24.937974, -42.113978) " points="23.5699375 38.5469254 23.5699375 45.6810309 26.3060104 45.6810309"/>
                        <ellipse id="Oval-5-Copy-9" fill="#404F54" cx="16.0959062" cy="39.2585476" rx="1.63129855" ry="1.62748368"/>
                        <ellipse id="Oval-5-Copy-10" fill="#404F54" cx="34.0959062" cy="39.2585476" rx="1.63129855" ry="1.62748368"/>
                        <path d="M21.0094138,51.7634974 C21.6310449,52.1858302 22.3820478,52.4327013 23.1908456,52.4327013 C25.333893,52.4327013 27.0711762,50.6994808 27.0711762,48.561445" id="Oval-5-Copy-2" stroke="#FF8F5C" stroke-width="2" stroke-linecap="round" transform="translate(24.040295, 50.497073) scale(-1, 1) translate(-24.040295, -50.497073) "/>
                        <path d="M29.9940575,32.1223186 C29.9940575,34.2013625 31.6834062,35.8867605 33.7673234,35.8867605 C35.8512406,35.8867605 37.5405893,34.2013625 37.5405893,32.1223186" id="Oval-5-Copy-3" stroke="#404F54" stroke-width="2" stroke-linecap="round" transform="translate(33.767323, 34.004540) rotate(-180.000000) translate(-33.767323, -34.004540) "/>
                        <path d="M12.205376,32.1223186 C12.205376,34.2013625 13.8947247,35.8867605 15.9786419,35.8867605 C18.0625592,35.8867605 19.7519079,34.2013625 19.7519079,32.1223186" id="Oval-5-Copy-4" stroke="#404F54" stroke-width="2" stroke-linecap="round" transform="translate(15.978642, 34.004540) rotate(-180.000000) translate(-15.978642, -34.004540) "/>
                    </g>
                </g>
                <g id="Group-6" transform="translate(127.721033, 61.558997)">
                    <path d="M33.6936967,9.82683083 C33.6936967,9.82683083 33.4379893,4.54262915 31.855577,3.48461604 C30.2731646,2.42660292 28.5504378,2.14325143 28.2637355,3.13320155 C27.9770332,4.12315166 28.2637355,6.60399556 28.2637355,6.60399556 C28.2637355,6.60399556 25.8099074,3.43037506 21.0919899,2.01969091 C16.3740723,0.609006757 11.6840082,-0.129633832 9.43499739,0.341780959 C7.18598654,0.813195749 4.90116408,3.08901295 6.20106261,4.54262915 C7.50096115,5.99624535 10.1832715,5.99624535 10.1832715,5.99624535 C10.1832715,5.99624535 4.77655644,7.6886056 2.20754478,9.1660962 C-0.361466872,10.6435868 -0.0852358151,13.7340657 0.797279479,14.5210834 C1.67979477,15.3081011 5.34786676,14.7686233 5.34786676,14.7686233 C5.34786676,14.7686233 4.11163331,19.4331376 4.3677596,22.391679 C4.6238859,25.3502204 5.44357381,28.3307514 5.71477868,29.4327437 C5.98598354,30.534736 7.18598654,30.9196584 7.18598654,30.9196584 L36.3965307,31.4069895 C36.3965307,31.4069895 37.9554875,27.1481307 37.9554875,24.7699048 C37.9554875,22.391679 37.8042829,18.9303091 37.4631302,17.120671 C37.1219776,15.311033 36.3965307,13.3175202 36.3965307,13.3175202 C36.3965307,13.3175202 38.301457,13.0113414 39.1529774,13.0113414 C40.0044979,13.0113414 38.6725574,10.1625385 37.4160097,9.82683083 C36.1594621,9.49112319 33.6936967,9.82683083 33.6936967,9.82683083 Z" id="Path-34" stroke="#404F54" stroke-width="2" stroke-linecap="round" fill="#FFA47B"/>
                    <ellipse id="Oval-5" stroke="#404F54" stroke-width="2" stroke-linecap="round" fill="#F5F6F7" cx="7.52169419" cy="32.7950558" rx="3.20084569" ry="3.20084569"/>
                    <ellipse id="Oval-5-Copy" stroke="#404F54" stroke-width="2" stroke-linecap="round" fill="#F5F6F7" cx="35.4002979" cy="32.7950558" rx="3.20084569" ry="3.20084569"/>
                    <path d="M26.6414532,58.2758029 C27.3384544,57.263184 27.7468603,56.0369682 27.7468603,54.7156909 L27.7468603,54.217239 C27.7468603,50.7455791 24.9254571,47.9212801 21.4450798,47.9212801 C17.9717843,47.9212801 15.1432992,50.7400769 15.1432992,54.217239 L15.1432992,54.7156909 C15.1432992,56.0361963 15.5514975,57.2630421 16.248893,58.2764287 C16.9416361,56.0635463 19.0098909,54.457595 21.4450798,54.457595 C23.8848319,54.457595 25.9497135,56.0638444 26.6414532,58.2758029 Z" id="Combined-Shape" stroke="#404F54" stroke-width="2" stroke-linecap="round" fill="#E6EBEE"/>
                    <rect id="Rectangle-31-Copy-3" stroke="#404F54" stroke-width="2" stroke-linecap="round" fill="#F5F6F7" x="18.363268" y="43.2544116" width="6.16362344" height="11.051944" rx="3.08181172"/>
                    <rect id="Rectangle-31" stroke="#404F54" stroke-width="2" stroke-linecap="round" fill="#FFFFFF" x="8.5780319" y="10.7225399" width="25.7340957" height="37.8631312" rx="12.8670479"/>
                    <polyline id="Path-35" stroke="#404F54" stroke-width="2" stroke-linecap="round" stroke-linejoin="round" fill="#F5F6F7" points="19.7023954 28.8605055 19.7023954 37.6200376 22.3147206 37.6200376"/>
                    <rect id="Rectangle-31-Copy" stroke="#FF8F5C" stroke-width="2" stroke-linecap="round" fill="#F5F6F7" x="10.4218061" y="26.7196833" width="9.22808588" height="8.93693723" rx="4.46846861"/>
                    <rect id="Rectangle-31-Copy-2" stroke="#FF8F5C" stroke-width="2" stroke-linecap="round" fill="#F5F6F7" x="22.8599524" y="26.7196833" width="9.22808588" height="8.93693723" rx="4.46846861"/>
                    <ellipse id="Oval" fill="#404F54" cx="27.3311678" cy="30.9994492" rx="1.16817046" ry="1.16817046"/>
                    <ellipse id="Oval-Copy" fill="#404F54" cx="15.3219231" cy="30.9994492" rx="1.16817046" ry="1.16817046"/>
                    <path d="M6.64881242,28.8930565 L10.0402345,28.8930565 M19.719421,28.8930565 L22.8411042,28.8930565 M32.2069915,28.8930565 L36.1253712,28.8930565" id="Path-33" stroke="#FF8F5C" stroke-width="2" stroke-linecap="round" fill="#F5F6F7"/>
                    <path d="M20.1036634,42.5201196 C20.608651,42.8640096 21.2187348,43.0650276 21.8757689,43.0650276 C23.6166925,43.0650276 25.0279899,41.6537301 25.0279899,39.9128065" id="Oval-5-Copy-2" stroke="#FF8F5C" stroke-width="2" stroke-linecap="round"/>
                    <path d="M24.8934653,21.6741903 C24.8934653,23.1313004 26.0746864,24.3125215 27.5317965,24.3125215 C28.9889066,24.3125215 30.1701277,23.1313004 30.1701277,21.6741903" id="Oval-5-Copy-3" stroke="#404F54" stroke-width="2" stroke-linecap="round" fill="#F5F6F7" transform="translate(27.531797, 22.993356) rotate(-180.000000) translate(-27.531797, -22.993356) "/>
                    <path d="M12.4553191,21.6741903 C12.4553191,23.1313004 13.6365402,24.3125215 15.0936503,24.3125215 C16.5507604,24.3125215 17.7319815,23.1313004 17.7319815,21.6741903" id="Oval-5-Copy-4" stroke="#404F54" stroke-width="2" stroke-linecap="round" fill="#F5F6F7" transform="translate(15.093650, 22.993356) rotate(-180.000000) translate(-15.093650, -22.993356) "/>
                </g>
            </g>
        </g>
    </g><div xmlns="" id="screen-shader" style="&#10;            transition: opacity 0.1s ease 0s; &#10;            z-index: 2147483647;&#10;            margin: 0; &#10;            border-radius: 0; &#10;            padding: 0; &#10;            background: #fac563; &#10;            pointer-events: none; &#10;            position: fixed; &#10;            top: -10%; &#10;            right: -10%; &#10;            width: 120%; &#10;            height: 120%; &#10;            opacity: 0.5840;&#10;            mix-blend-mode: multiply; &#10;            display: none;&#10;        "/>
</svg>
