<svg xmlns="http://www.w3.org/2000/svg" xmlns:xlink="http://www.w3.org/1999/xlink" width="438px" height="293px" viewBox="0 0 438 293" version="1.1">
    <!-- Generator: Sketch 41 (35326) - http://www.bohemiancoding.com/sketch -->
    <title>step-money</title>
    <desc>Created with Sketch.</desc>
    <defs>
        <path d="M18.892952,31.8465121 L0.689814367,31.7871001 C0.689814367,31.7871001 4.33124943,23.6222793 4.93863596,13.922553 C5.54602248,4.22282676 6.82309158,0.0541824994 10.5556635,0.0541824994 C14.2882354,0.0541824994 15.7164301,2.98844199 15.7164301,4.2505139 C15.7164301,5.5125858 14.3839867,19.8147215 14.3839867,19.8147215 C14.3839867,19.8147215 14.4601263,23.9977861 18.7233683,23.2940714 C22.9866103,22.5903567 30.2954371,19.4172957 30.2954371,19.4172957 C30.2954371,19.4172957 33.3208334,18.1315744 33.3208334,21.6830263 C33.3208334,25.2344781 24.6622587,25.6705505 24.6622587,25.6705505 L19.4651528,26.1544986 C19.4651528,26.1544986 16.7639267,27.0687508 16.7639267,28.4992528 C16.7639267,29.9297548 18.892952,31.8465121 18.892952,31.8465121 Z" id="path-1"/>
        <path d="M0.767190268,48.2862159 L22.2782991,48.6323546 C22.2782991,48.6323546 17.4963022,43.8841838 18.1260244,37.6189338 C18.7557467,31.3536838 22.2690317,12.5861993 22.2690317,12.5861993 C22.2690317,12.5861993 25.8495055,5.63145208 21.0665818,1.99861721 C16.2836582,-1.63421766 11.4506904,3.84330032 11.4506904,3.84330032 C11.4506904,3.84330032 9.77791819,5.75656246 9.20750751,10.634014 C8.63709683,15.5114655 6.57926269,39.2050555 6.57926269,39.2050555 L0.767190268,48.2862159 Z" id="path-3"/>
        <path d="M0.27460496,0.548255759 C0.27460496,0.548255759 -1.13712455,9.94087295 6.89800292,10.9124452 L37.3550195,10.9124452 C37.3550195,10.9124452 30.6748178,11.0563077 30.6748178,0.596394378 L0.27460496,0.548255759 Z" id="path-5"/>
    </defs>
    <g id="Page-1" stroke="none" stroke-width="1" fill="none" fill-rule="evenodd">
        <g id="Exports" transform="translate(0.000000, -36.000000)">
            <g id="step-money" transform="translate(0.000000, 37.000000)">
                <g id="bg-ilustrasi" transform="translate(0.797033, 19.063988)">
                    <path d="M3.77396662,122.757344 C3.77396662,122.757344 4.70900417,124.229132 5.30080312,124.820931 C5.91081864,125.430946 7.37941003,126.362788 7.37941003,126.362788 C7.37941003,126.362788 5.88503846,127.348534 5.30080312,127.932769 C4.68322399,128.550348 3.77396662,129.968231 3.77396662,129.968231 C3.77396662,129.968231 2.85821095,128.505179 2.2858004,127.932769 C1.65639648,127.303365 0.168523211,126.362788 0.168523211,126.362788 C0.168523211,126.362788 1.66603741,125.440694 2.2858004,124.820931 C2.86785188,124.238879 3.77396662,122.757344 3.77396662,122.757344 Z" id="Polygon" fill="#DAE2E6"/>
                    <path d="M416.734949,201.233166 C416.734949,201.233166 417.71418,202.774517 418.33395,203.394287 C418.972798,204.033134 420.510802,205.009019 420.510802,205.009019 C420.510802,205.009019 418.945799,206.041356 418.33395,206.653205 C417.687182,207.299973 416.734949,208.784872 416.734949,208.784872 C416.734949,208.784872 415.77591,207.25267 415.176445,206.653205 C414.517293,205.994052 412.959096,205.009019 412.959096,205.009019 C412.959096,205.009019 414.527389,204.043343 415.176445,203.394287 C415.786007,202.784725 416.734949,201.233166 416.734949,201.233166 Z" id="Polygon-Copy-9" fill="#DAE2E6"/>
                    <path d="M367.750231,159.414767 C367.750231,159.414767 369.000229,161.382314 369.79137,162.173455 C370.606865,162.98895 372.57014,164.234675 372.57014,164.234675 C372.57014,164.234675 370.572401,165.552461 369.79137,166.333492 C368.965765,167.159098 367.750231,169.054584 367.750231,169.054584 C367.750231,169.054584 366.52601,167.098714 365.760788,166.333492 C364.919374,165.492078 362.930322,164.234675 362.930322,164.234675 C362.930322,164.234675 364.932262,163.001981 365.760788,162.173455 C366.538899,161.395345 367.750231,159.414767 367.750231,159.414767 Z" id="Polygon-Copy-4" fill="#DAE2E6"/>
                    <path d="M347.921291,60.9454628 C347.921291,60.9454628 349.171289,62.91301 349.96243,63.7041518 C350.777925,64.5196462 352.7412,65.7653714 352.7412,65.7653714 C352.7412,65.7653714 350.743461,67.0831577 349.96243,67.8641881 C349.136825,68.6897939 347.921291,70.5852799 347.921291,70.5852799 C347.921291,70.5852799 346.69707,68.6294106 345.931848,67.8641881 C345.090434,67.0227744 343.101382,65.7653714 343.101382,65.7653714 C343.101382,65.7653714 345.103322,64.532677 345.931848,63.7041518 C346.709959,62.9260409 347.921291,60.9454628 347.921291,60.9454628 Z" id="Polygon-Copy-8" fill="#DAE2E6"/>
                    <path d="M20.2360367,204.972191 C20.2360367,204.972191 21.0278724,206.218572 21.5290367,206.719737 C22.0456278,207.236328 23.289303,208.025457 23.289303,208.025457 C23.289303,208.025457 22.0237959,208.860235 21.5290367,209.354994 C21.0060404,209.87799 20.2360367,211.078723 20.2360367,211.078723 C20.2360367,211.078723 19.4605299,209.839739 18.9757846,209.354994 C18.4427745,208.821984 17.1827705,208.025457 17.1827705,208.025457 C17.1827705,208.025457 18.4509389,207.244582 18.9757846,206.719737 C19.4686943,206.226827 20.2360367,204.972191 20.2360367,204.972191 Z" id="Polygon-Copy-7" fill="#DAE2E6"/>
                    <path d="M65.2462774,187.26457 C65.2462774,187.26457 66.181315,188.736357 66.7731139,189.328156 C67.3831294,189.938171 68.8517208,190.870013 68.8517208,190.870013 C68.8517208,190.870013 67.3573493,191.855759 66.7731139,192.439994 C66.1555348,193.057573 65.2462774,194.475457 65.2462774,194.475457 C65.2462774,194.475457 64.3305217,193.012405 63.7581112,192.439994 C63.1287073,191.81059 61.640834,190.870013 61.640834,190.870013 C61.640834,190.870013 63.1383482,189.947919 63.7581112,189.328156 C64.3401627,188.746104 65.2462774,187.26457 65.2462774,187.26457 Z" id="Polygon-Copy" fill="#DAE2E6"/>
                    <path d="M224.197229,31.6287635 C224.197229,31.6287635 225.132266,33.1005508 225.724065,33.6923497 C226.334081,34.3023653 227.802672,35.2342069 227.802672,35.2342069 C227.802672,35.2342069 226.308301,36.2199526 225.724065,36.8041879 C225.106486,37.4217671 224.197229,38.8396503 224.197229,38.8396503 C224.197229,38.8396503 223.281473,37.3765985 222.709063,36.8041879 C222.079659,36.174784 220.591786,35.2342069 220.591786,35.2342069 C220.591786,35.2342069 222.0893,34.3121127 222.709063,33.6923497 C223.291114,33.1102983 224.197229,31.6287635 224.197229,31.6287635 Z" id="Polygon-Copy-3" fill="#DAE2E6"/>
                    <path d="M287.787289,54.2676523 C287.787289,54.2676523 288.722326,55.7394396 289.314125,56.3312385 C289.924141,56.941254 291.392732,57.8730957 291.392732,57.8730957 C291.392732,57.8730957 289.898361,58.8588414 289.314125,59.4430767 C288.696546,60.0606558 287.787289,61.4785391 287.787289,61.4785391 C287.787289,61.4785391 286.871533,60.0154873 286.299123,59.4430767 C285.669719,58.8136728 284.181845,57.8730957 284.181845,57.8730957 C284.181845,57.8730957 285.67936,56.9510015 286.299123,56.3312385 C286.881174,55.749187 287.787289,54.2676523 287.787289,54.2676523 Z" id="Polygon-Copy-6" fill="#DAE2E6"/>
                    <path d="M71.82355,48.8906977 C71.82355,48.8906977 72.5659465,50.0592601 73.0358201,50.5291338 C73.5201573,51.0134709 74.6861822,51.7533299 74.6861822,51.7533299 C74.6861822,51.7533299 73.4996884,52.5359874 73.0358201,52.9998557 C72.5454777,53.4901981 71.82355,54.6159621 71.82355,54.6159621 C71.82355,54.6159621 71.0964629,53.4543354 70.6419832,52.9998557 C70.1422521,52.5001247 68.9609179,51.7533299 68.9609179,51.7533299 C68.9609179,51.7533299 70.1499068,51.0212101 70.6419832,50.5291338 C71.1041175,50.0669994 71.82355,48.8906977 71.82355,48.8906977 Z" id="Polygon-Copy-2" fill="#DAE2E6"/>
                    <path d="M217.729153,132.728493 C217.729153,132.728493 218.47155,133.897055 218.941423,134.366929 C219.425761,134.851266 220.591786,135.591125 220.591786,135.591125 C220.591786,135.591125 219.405292,136.373783 218.941423,136.837651 C218.451081,137.327993 217.729153,138.453757 217.729153,138.453757 C217.729153,138.453757 217.002066,137.292131 216.547586,136.837651 C216.047855,136.33792 214.866521,135.591125 214.866521,135.591125 C214.866521,135.591125 216.05551,134.859005 216.547586,134.366929 C217.009721,133.904795 217.729153,132.728493 217.729153,132.728493 Z" id="Polygon-Copy-5" fill="#DAE2E6"/>
                    <path d="M384.944501,125.560052 L391.090501,120.630015" id="Path-66" stroke="#DAE2E6" stroke-width="2" stroke-linecap="round" fill="#DAE2E6"/>
                    <path d="M120.056343,71.9453111 L113.15932,65.0482881" id="Path-67" stroke="#DAE2E6" stroke-width="2" stroke-linecap="round" fill="#DAE2E6"/>
                    <path d="M31.4647104,163.122581 L24.5676873,156.225558" id="Path-67-Copy" stroke="#DAE2E6" stroke-width="2" stroke-linecap="round" fill="#DAE2E6"/>
                    <path d="M40.2645251,226.656036 L31.1810049,231.993041" id="Path-68" stroke="#DAE2E6" stroke-width="2" stroke-linecap="round" fill="#DAE2E6"/>
                    <path d="M399.367098,230.307671 L405.349485,230.307671" id="Path-69" stroke="#DAE2E6" stroke-width="2" stroke-linecap="round" fill="#DAE2E6"/>
                    <path d="M79.8788322,208.724865 C81.5173422,205.979757 82.4587741,202.770411 82.4587741,199.341182 C82.4587741,189.215067 74.249936,181.006229 64.123821,181.006229 C56.2631949,181.006229 49.5579184,185.952868 46.951066,192.903073" id="Oval-22" stroke="#DAE2E6" stroke-width="2" stroke-linecap="round" stroke-linejoin="round"/>
                    <path d="M434.40633,225.245237 C436.04484,222.500128 436.986271,219.290782 436.986271,215.861554 C436.986271,205.735439 428.777433,197.5266 418.651318,197.5266 C410.790692,197.5266 404.085416,202.47324 401.478563,209.423444" id="Oval-22-Copy-10" stroke="#DAE2E6" stroke-width="2" stroke-linecap="round" stroke-linejoin="round"/>
                    <path d="M98.2001006,29.7218557 C98.2001006,32.469828 100.427772,34.6974997 103.175745,34.6974997 L103.175745,34.6974997 C105.923717,34.6974997 108.151389,32.469828 108.151389,29.7218557 C108.151389,26.9738834 105.923717,24.7462117 103.175745,24.7462117" id="Oval-22-Copy-3" stroke="#DAE2E6" stroke-width="2" stroke-linecap="round" stroke-linejoin="round"/>
                    <ellipse id="Oval-22-Copy-8" stroke="#DAE2E6" stroke-width="2" stroke-linecap="round" stroke-linejoin="round" cx="372.725875" cy="209.684418" rx="4.975644" ry="4.975644"/>
                    <ellipse id="Oval-22-Copy-7" stroke="#DAE2E6" stroke-width="2" stroke-linecap="round" stroke-linejoin="round" cx="168.648102" cy="3.65848757" rx="3.46000222" ry="3.46000222"/>
                    <path d="M390.003108,154.427377 C390.003108,149.930527 386.357691,146.28511 381.860841,146.28511 C377.363991,146.28511 373.718574,149.930527 373.718574,154.427377" id="Oval-22-Copy-4" stroke="#DAE2E6" stroke-width="2" stroke-linecap="round" stroke-linejoin="round"/>
                    <path d="M65.2462774,218.805333 C65.2462774,213.870585 63.9500592,209.238584 61.6795287,205.231237 M56.9858114,199.124312 C52.0107675,194.241143 45.1923318,191.229559 37.6705029,191.229559 C23.3664607,191.229559 11.6061354,202.120505 10.2294244,216.062501" id="Oval-22-Copy" stroke="#DAE2E6" stroke-width="2" stroke-linecap="round" stroke-linejoin="round"/>
                    <path d="M361.511009,79.3779088 C361.747966,77.923564 361.871161,76.4310137 361.871161,74.9096897 C361.871161,59.68001 349.525066,47.3339152 334.295387,47.3339152 C321.841032,47.3339152 311.315062,55.5903109 307.892326,66.9282533" id="Oval-22-Copy-6" stroke="#DAE2E6" stroke-width="2" stroke-linecap="round" stroke-linejoin="round"/>
                    <path d="M366.93601,86.5374944 C366.93601,82.6987891 363.824125,79.5869036 359.985419,79.5869036 C356.146714,79.5869036 353.034828,82.6987891 353.034828,86.5374944" id="Oval-22-Copy-9" stroke="#DAE2E6" stroke-width="2" stroke-linecap="round" stroke-linejoin="round"/>
                    <path d="M21.4898673,221.946113 C19.4385804,218.721743 15.8335683,216.582517 11.7289131,216.582517 C5.34428606,216.582517 0.168523211,221.75828 0.168523211,228.142907" id="Oval-22-Copy-2" stroke="#DAE2E6" stroke-width="2" stroke-linecap="round" stroke-linejoin="round"/>
                    <path d="M402.51563,172.222742 C404.060319,170.25732 404.98162,167.778801 404.98162,165.0851 C404.98162,158.700473 399.805858,153.52471 393.421231,153.52471 C389.175278,153.52471 385.46396,155.813751 383.454005,159.225104" id="Oval-22-Copy-5" stroke="#DAE2E6" stroke-width="2" stroke-linecap="round" stroke-linejoin="round"/>
                    <path d="M12.3779598,271.697995 L376.959775,271.697995 M384.20632,271.697995 L407.612715,271.697995 M415.187492,271.697995 L420.832359,271.697995" id="Path-70" stroke="#404F54" stroke-width="2" stroke-linecap="round" fill="#404F54"/>
                </g>
                <g id="Group-2" transform="translate(368.850170, 253.318262) rotate(-25.000000) translate(-368.850170, -253.318262) translate(367.850170, 252.318262)"/>
                <g id="Group-3" transform="translate(143.000000, 83.000000)">
                    <g id="hand" transform="translate(3.000000, 120.000000)">
                        <path d="M9.65959048,66.5516558 L23.8703251,57.4311472 C23.8703251,57.4311472 39.2922254,55.2613153 35.3132752,74.4975324 L24.8646002,81.1406774 L9.65959048,66.5516558 Z" id="Path-5" fill="#E0EAEF"/>
                        <path d="M5.88276504,69.0307397 L23.8713994,57.0788863 L40.7917455,0.0333003548 L41.8243148,39.1946715 C41.8243148,39.1946715 42.3593478,61.7354204 39.2879726,69.0307397 C36.4305638,75.8178329 24.0379629,81.441909 24.0379629,81.441909" id="Path-4" stroke="#404F54" stroke-width="2" stroke-linecap="round"/>
                        <path d="M25,79.5 C25,72.5964406 19.4035594,67 12.5,67 C5.59644063,67 0,72.5964406 0,79.5 C0,86.4035594 25,86.4035594 25,79.5 Z" id="Oval-2" stroke="#404F54" stroke-width="2" stroke-linecap="round" fill="#F5F6F7"/>
                    </g>
                    <g id="Group-10" transform="translate(39.000000, 0.000000)">
                        <g id="Group-9" transform="translate(5.383466, 113.358770)">
                            <rect id="Rectangle-12-Copy" stroke="#404F54" stroke-width="2" stroke-linecap="round" fill="#F5F6F7" x="0.390455024" y="0.530429818" width="25.4802701" height="81.2400906" rx="3"/>
                            <path d="M68.14079,12.766571 C68.14079,8.34534691 71.6842714,4.25510484 76.0590299,3.63023789 L90.8351592,1.51969516 C94.6602555,0.973338999 97.7611088,3.66053588 97.7611088,7.53174382 L97.7611088,73.3765344 L71.1439497,73.3765344 C69.4853504,73.3765344 68.14079,72.0366839 68.14079,70.3841003 L68.14079,12.766571 Z" id="Rectangle-12-Copy-3" stroke="#404F54" stroke-width="2" stroke-linecap="round" fill="#F5F6F7"/>
                            <rect id="Rectangle-12" fill="#F5F6F7" x="9.96679666" y="0.530429818" width="74.5127169" height="93.612589" rx="3"/>
                            <path d="M9.96679666,87.4617275 L9.96679666,69.4891316 L54.2755693,69.4891316 C55.9355791,69.4891316 57.2812829,70.8399974 57.2812829,72.49734 L57.2812829,84.453519 C57.2812829,86.1149067 55.9354381,87.4617275 54.2755693,87.4617275 L9.96679666,87.4617275 Z" id="Combined-Shape" fill="#DAE2E6"/>
                            <path d="M21.3599853,1.23736936 L74.8120464,1.23736936 C74.8692255,1.23736936 74.9261245,1.23857324 74.9827196,1.24095674 C71.7457058,11.6468989 60.9683376,19.2910047 48.1719102,19.2910047 C35.3740124,19.2910047 24.5956378,11.645142 21.3599853,1.23736936 Z" id="Combined-Shape" fill="#C5D3DA"/>
                            <path d="M11.5642185,5.41638421 C11.5642185,2.71794611 13.753889,0.530429818 16.453206,0.530429818 L81.187948,0.530429818 C83.8880612,0.530429818 86.0769354,2.73057619 86.0769354,5.42242351 M86.0769354,26.8670481 L86.0769354,89.2505055 C86.0769354,91.952566 83.887265,94.1430188 81.187948,94.1430188 L16.453206,94.1430188 C13.7530928,94.1430188 11.5642185,91.9589263 11.5642185,89.2556987 L11.5642185,26.1857361" id="Rectangle-12-Copy-4" stroke="#404F54" stroke-width="2" stroke-linecap="round"/>
                            <path d="M28.9278534,87.4617275 L28.9278534,69.4891316 L81.4789049,69.4891316 C83.1360953,69.4891316 84.4795136,70.8399974 84.4795136,72.49734 L84.4795136,87.4617275 L28.9278534,87.4617275 Z" id="Combined-Shape" fill="#DAE2E6"/>
                            <polygon id="Path-85" fill="#DAE2E6" points="26.2643882 68.1545362 44.5867506 37.5367384 58.0743369 38.4158841 74.4262366 69.8792163"/>
                            <polyline id="Path-47" stroke="#404F54" stroke-width="2" stroke-linecap="round" stroke-linejoin="round" fill="#F5F6F7" points="24.8707319 78.2829688 40.121271 80.4354042 50.3457378 78.8142964 50.351002 32.1357065 43.6868123 32.1357065 37.6108669 62.7688738 28.9567677 64.3346528"/>
                            <polyline id="Path-47-Copy" stroke="#404F54" stroke-width="2" stroke-linecap="round" stroke-linejoin="round" fill="#F5F6F7" transform="translate(63.169617, 56.285555) scale(-1, 1) translate(-63.169617, -56.285555) " points="50.4294819 78.2829688 65.680021 80.4354042 75.9044878 78.8142964 75.909752 32.1357065 69.2455623 32.1357065 63.169617 62.7688738 54.5155178 64.3346528"/>
                            <rect id="Rectangle-13" stroke="#404F54" stroke-width="2" stroke-linecap="round" fill="#F5F6F7" x="0.390455024" y="63.0994441" width="33.5323568" height="17.9725959" rx="3"/>
                            <rect id="Rectangle-13-Copy-2" stroke="#404F54" stroke-width="2" stroke-linecap="round" fill="#F5F6F7" x="68.0079649" y="63.0994441" width="29.6203188" height="17.9725959" rx="3"/>
                            <rect id="Rectangle-13-Copy" stroke="#404F54" stroke-width="2" stroke-linecap="round" fill="#F5F6F7" x="19.8421186" y="63.0994441" width="7.11308883" height="17.9725959" rx="3"/>
                            <ellipse id="Oval-7" stroke="#404F54" stroke-width="2" stroke-linecap="round" fill="#FF8F5C" cx="22.8603548" cy="74.287042" rx="6.28598084" ry="6.28598084"/>
                            <path d="M27.6973189,74.2180719 C27.6973189,71.7284449 25.6790774,69.7102034 23.1894503,69.7102034 C20.6998233,69.7102034 18.6815817,71.7284449 18.6815817,74.2180719 C18.6815817,76.707699 27.6973189,76.707699 27.6973189,74.2180719 Z" id="Oval-11" fill="#FFBC9E"/>
                            <path d="M33.9228119,1.1989772 L33.9228119,24.6331684 C33.9228119,25.7352078 34.8138502,26.6285872 35.9233272,26.6285872 L43.040292,26.6285872 C44.1451462,26.6285872 45.0408074,25.7283679 45.0408074,24.6270951 L45.0408074,14.908183" id="Path-48" stroke="#404F54" stroke-width="2" stroke-linecap="round" fill="#FF8F5C"/>
                        </g>
                        <g id="Group-6-Copy">
                            <path d="M21.6735402,112.332713 C21.6735402,112.332713 33.2718001,102.395451 55.1224495,102.395451 C76.9730989,102.395451 89.4856253,111.909885 89.4856253,111.909885 L95.6660985,85.7655341 L92.3464975,63.7505401 L64.6392773,55.4758701 L19.7676217,58.5529432 L15.0447094,87.4855677 L21.6735402,112.332713 Z" id="Path-45" stroke="#404F54" stroke-width="2" stroke-linecap="round" fill="#4d90cc"/>
                            <path d="M100.527826,47.7269433 L100.527826,105.292438 C100.527826,105.292438 100.527826,118.431014 91.2056589,122.143925 C81.8834917,125.856837 75.708603,123.631802 75.708603,123.631802 C75.708603,123.631802 81.5244865,119.083606 84.3638184,115.456058 C87.2031503,111.828511 86.931902,105.094372 86.931902,105.094372 L86.931902,52.0342746 L100.527826,47.7269433 Z" id="Path-44" stroke="#404F54" stroke-width="2" stroke-linecap="round" fill="#4d90cc"/>
                            <ellipse id="Oval-5" stroke="#1F5F59" stroke-width="2" stroke-linecap="round" fill="#F5F6F7" cx="13.769917" cy="67.8807937" rx="9.33622721" ry="9.33622721"/>
                            <ellipse id="Oval-5-Copy" stroke="#404F54" stroke-width="2" stroke-linecap="round" fill="#F5F6F7" cx="90.1846155" cy="67.8807937" rx="9.33622721" ry="9.33622721"/>
                            <path d="M98.530485,69.0616891 L89.1984979,66.706865 L89.1984979,57.4686653 L98.1609682,65.6445044 C98.1609682,65.6445044 98.8608532,67.0704672 98.530485,69.0616891 Z" id="Path-3" fill="#DAE2E6"/>
                            <rect id="Rectangle-31-Copy-3" stroke="#404F54" stroke-width="2" stroke-linecap="round" fill="#FF8F5C" x="40.8696745" y="101.015169" width="27.0239513" height="26.9406514" rx="13.4703257"/>
                            <rect id="Rectangle-31-Copy-6" stroke="#404F54" stroke-width="2" stroke-linecap="round" fill="#F5F6F7" x="45.3926213" y="86.9515378" width="17.9780578" height="32.2363121" rx="8.98902891"/>
                            <rect id="Rectangle-31" stroke="#404F54" stroke-width="2" stroke-linecap="round" fill="#FFFFFF" x="20.5434891" y="18.7778717" width="67.6763222" height="87.138914" rx="33.8381611"/>
                            <path d="M87.1565137,62.3830489 L87.1565137,40.837523 L67.9594339,34.5499606 C66.6582766,30.9062273 63.966741,27.9720862 63.966741,27.9720862 L45.2569878,31.129736 L17.9917429,54.4076304 L16.4269175,75.6764808 C16.4269175,75.6764808 30.8748375,71.3412563 39.9983552,67.9634166 C47.358104,65.2385848 59.8975678,51.187922 64.9330372,45.5086416 C66.0707407,48.4017109 87.1565137,62.3830489 87.1565137,62.3830489 Z" id="Combined-Shape" fill="#DAE2E6"/>
                            <path d="M65.4966078,37.1144083 C62.1506098,41.9277622 57.5509456,46.8101508 51.3257705,50.4035262 C33.6930328,60.5817213 23.4932974,62.7796306 23.4932974,62.7796306 L23.9911179,105.196489 C23.9911179,105.196489 23.9911179,113.385795 27.1328119,117.073975 C30.274506,120.762155 35.2008545,124.442356 35.2008545,124.442356 C35.2008545,124.442356 25.3824624,127.210685 14.3282947,124.442356 C3.27412703,121.674028 0.457931022,107.883443 0.457931022,107.883443 L0.733701816,48.5869601 C1.06277114,38.5718222 -1.38443855,5.50861913 37.0038582,1.15041208 C58.0764403,-2.47066986 66.9992659,4.38841398 70.7770096,10.7667962 C70.9526142,10.6767227 71.1316824,10.5925626 71.3142794,10.5146357 C79.3928518,7.06694451 88.5948104,7.75833323 96.0282948,18.8653221 C103.461779,29.9723109 100.417731,66.0705112 100.417731,66.0705112 L87.6546234,57.3102639 C87.6546234,57.3102639 78.8072164,53.281152 72.2725247,46.6323765 C69.4637513,43.774567 67.1836222,40.2287773 65.4966078,37.1144083 Z" id="Combined-Shape" stroke="#404F54" stroke-width="2" stroke-linecap="round" fill="#6aace6"/>
                            <path d="M65.6600112,35.5750459 C62.8781184,40.5197885 56.4432908,46.4706235 51.1256121,49.5401622 C36.0633474,58.2345959 22.4288254,62.0447512 22.4288254,62.0447512 L23.0176857,103.445199 C23.0176857,103.445199 22.4288254,111.782797 25.1768081,116.007125 C25.1768081,116.007125 26.3717867,117.498646 20.016495,116.007125 C10.5737867,113.642359 8.16813135,101.862144 8.16813135,101.862144 L8.40370071,51.2098097 C8.40370071,51.2098097 10.2204327,13.8605831 39.3864502,10.6884877 C57.3871026,7.59528167 65.0091729,13.4544576 68.2362035,18.9030088 C68.3862096,18.8260676 68.5391735,18.7541762 68.6951518,18.6876093 C75.5960425,15.7425172 83.4565539,16.3331164 89.8063966,25.8209457 C96.1562393,35.3087751 94.619607,60.8488932 94.619607,60.8488932 C94.619607,60.8488932 90.1913912,58.1435691 88.2273017,56.4515249 C70.4076872,48.5059562 65.6600112,35.5750459 65.6600112,35.5750459 Z" id="Combined-Shape-Copy" fill="#4d90cc"/>
                            <polyline id="Path-35" stroke="#404F54" stroke-width="2" stroke-linecap="round" stroke-linejoin="round" fill="#F5F6F7" points="53.06894 69.0470723 53.06894 81.9543013 56.9182187 81.9543013"/>
                            <path d="M48.4943688,88.0844944 C48.4943688,91.6557703 51.3894599,94.5508613 54.9607357,94.5508613 C58.5320115,94.5508613 61.4271026,91.6557703 61.4271026,88.0844944 L48.4943688,88.0844944 Z" id="Oval-5-Copy-2" fill="#FF8F5C"/>
                            <path d="M67.2347439,66.250575 C67.2347439,68.9571252 69.4288364,71.1512177 72.1353866,71.1512177 C74.8419369,71.1512177 77.0360293,68.9571252 77.0360293,66.250575" id="Oval-5-Copy-5" stroke="#404F54" stroke-width="2" stroke-linecap="round" fill="#F5F6F7" transform="translate(72.135387, 68.700896) rotate(-180.000000) translate(-72.135387, -68.700896) "/>
                            <path d="M31.2895521,66.250575 C31.2895521,68.9571252 33.4836445,71.1512177 36.1901948,71.1512177 C38.896745,71.1512177 41.0908375,68.9571252 41.0908375,66.250575" id="Oval-5-Copy-6" stroke="#404F54" stroke-width="2" stroke-linecap="round" fill="#F5F6F7" transform="translate(36.190195, 68.700896) rotate(-180.000000) translate(-36.190195, -68.700896) "/>
                        </g>
                    </g>
                    <g id="mouse" transform="translate(3.000000, 194.000000)">
                        <path d="M25.4192728,13.1080845 C25.2682678,6.33646549 19.7316666,0.893494871 12.9237915,0.893494871 C6.11591638,0.893494871 0.579315188,6.33646549 0.428310119,13.1080845 L25.4192728,13.1080845 L25.4192728,13.1080845 Z" id="Combined-Shape-Copy-3" fill="#F5F6F7"/>
                        <path d="M15.8840433,3.78720178 C10.6889931,3.78720178 6.46404478,7.94070119 6.34881368,13.1080845 L25.4192728,13.1080845 C25.3040418,7.94070119 21.0790934,3.78720178 15.8840433,3.78720178 Z" id="Combined-Shape" fill="#FF8F5C"/>
                        <path d="M25.4192728,13.1080845 C25.2682678,6.33646549 19.7316666,0.893494871 12.9237915,0.893494871 C6.11591638,0.893494871 0.579315188,6.33646549 0.428310119,13.1080845 L25.4192728,13.1080845 L25.4192728,13.1080845 Z" id="Combined-Shape-Copy-2" stroke="#404F54" stroke-width="2" stroke-linecap="round"/>
                    </g>
                    <g id="hand" transform="translate(0.000000, 187.000000)" stroke="#404F54" stroke-width="2" fill="#F5F6F7" stroke-linecap="round">
                        <rect id="Rectangle-14" transform="translate(28.286329, 12.593495) rotate(29.000000) translate(-28.286329, -12.593495) " x="24.398366" y="6.84349462" width="7.77592691" height="11.5" rx="3.88796346"/>
                        <rect id="Rectangle-14-Copy-3" x="13.4553639" y="0.126539322" width="6.0001508" height="15" rx="3.0000754"/>
                        <rect id="Rectangle-14-Copy" x="6.45536393" y="1.12653932" width="6.0001508" height="15" rx="3.0000754"/>
                        <rect id="Rectangle-14-Copy-2" x="0.455363928" y="5.62653932" width="6.0001508" height="11.5" rx="3.0000754"/>
                    </g>
                    <g id="laptop" transform="translate(38.000000, 133.000000)">
                        <path d="M111.096486,43.6560517 L111.096486,64.7680008 C111.096486,68.0818514 108.405312,70.7682582 105.084065,70.7682582 L6.01242056,70.7682582 C2.69185238,70.7682582 0,68.0860686 0,64.7646229 L0,6.71104665 L0,6.71104665 C0,3.39533046 2.69117313,0.707411405 6.01242056,0.707411405 L105.084065,0.707411405 C108.404633,0.707411405 111.096486,3.40460791 111.096486,6.70650973 L111.096486,26.3638506 L111.096486,36.2745613" id="Rectangle-3" stroke="#404F54" stroke-width="2" stroke-linecap="round" fill="#F5F6F7"/>
                        <ellipse id="Oval-9" stroke="#4d90cc" stroke-width="2" stroke-linecap="round" cx="55.5913385" cy="32.1325544" rx="7.5065193" ry="7.5065193"/>
                        <path d="M1.00086924,49.4004097 L110.102278,49.4004097 L110.102278,64.7469594 C110.102278,67.5108624 107.873497,69.7514485 105.094966,69.7514485 L6.00818128,69.7514485 C3.2427192,69.7514485 1.00086924,67.5153161 1.00086924,64.7469594 L1.00086924,49.4004097 Z" id="Rectangle-9" fill="#E1EBF0"/>
                        <ellipse id="Oval" fill="#E6EDF1" cx="8.50738854" cy="9.50825778" rx="1.50130386" ry="1.50130386"/>
                        <ellipse id="Oval-Copy" fill="#E6EDF1" cx="101.588228" cy="9.50825778" rx="1.50130386" ry="1.50130386"/>
                        <ellipse id="Oval-Copy-3" fill="#C4D3DA" cx="8.50738854" cy="62.5543275" rx="1.50130386" ry="1.50130386"/>
                        <ellipse id="Oval-Copy-2" fill="#C4D3DA" cx="101.588228" cy="62.5543275" rx="1.50130386" ry="1.50130386"/>
                        <rect id="Rectangle-4" stroke="#404F54" stroke-width="2" stroke-linecap="round" fill="#E0EAEF" x="0" y="69" width="111.096486" height="5" rx="2.5"/>
                    </g>
                </g>
                <g id="Group-7" transform="translate(331.000000, 97.000000)">
                    <circle id="Oval-3" fill="#FFAF8B" cx="29" cy="28" r="26"/>
                    <circle id="Oval-3-Copy-3" fill="#FF8F5C" cx="32.6626089" cy="30.6626089" r="20.3373911"/>
                    <path d="M5.76582647,9.9955256 C4.96033272,11.0061101 4.22717354,12.0769027 3.57418584,13.2000665 M1.11378304,18.8737348 C0.389275293,21.2888745 0,23.8489772 0,26.5 C0,41.1355459 11.8644541,53 26.5,53 L26.5,53 C41.1355459,53 53,41.1355459 53,26.5 C53,11.8644541 41.1355459,0 26.5,0 C21.7564661,0 17.3040288,1.24633251 13.4522901,3.42939553" id="Oval-2" stroke="#404F54" stroke-width="2" stroke-linecap="round"/>
                    <text id="€" font-family="ProximaNova-Semibold, Proxima Nova" font-size="24" font-weight="500" line-spacing="40" letter-spacing="0.342857242" fill="#FFFFFF">
                        <tspan x="19" y="31">€</tspan>
                    </text>
                    <path d="M45.1092555,55.2431613 C49.1958936,52.7924978 52.567308,49.2715807 54.8360245,45.067884" id="Oval-2-Copy" stroke="#404F54" stroke-width="2" stroke-linecap="round"/>
                </g>
                <g id="Group-5" transform="translate(101.000000, 44.000000)">
                    <circle id="Oval-3" fill="#FFB08B" cx="29" cy="28" r="26"/>
                    <circle id="Oval-3-Copy" fill="#FF8F5C" cx="33.4924557" cy="31.4924557" r="18.7859301"/>
                    <path d="M5.76582647,9.9955256 C4.96033272,11.0061101 4.22717354,12.0769027 3.57418584,13.2000665 M1.11378304,18.8737348 C0.389275293,21.2888745 0,23.8489772 0,26.5 C0,41.1355459 11.8644541,53 26.5,53 L26.5,53 C41.1355459,53 53,41.1355459 53,26.5 C53,11.8644541 41.1355459,0 26.5,0 C21.7564661,0 17.3040288,1.24633251 13.4522901,3.42939553" id="Oval-2" stroke="#404F54" stroke-width="2" stroke-linecap="round"/>
                    <text id="£" font-family="ProximaNova-Semibold, Proxima Nova" font-size="24" font-weight="500" line-spacing="40" letter-spacing="0.342857242" fill="#FFFFFF">
                        <tspan x="21" y="31">£</tspan>
                    </text>
                    <path d="M45.1092555,55.2431613 C49.1958936,52.7924978 52.567308,49.2715807 54.8360245,45.067884" id="Oval-2-Copy" stroke="#404F54" stroke-width="2" stroke-linecap="round"/>
                </g>
                <g id="Group-6" transform="translate(238.000000, 0.000000)">
                    <circle id="Oval-3" fill="#FFAF8B" cx="29" cy="28" r="26"/>
                    <circle id="Oval-3-Copy-2" fill="#FF8F5C" cx="32.2529071" cy="30.2529071" r="20.7470929"/>
                    <path d="M5.76582647,9.9955256 C4.96033272,11.0061101 4.22717354,12.0769027 3.57418584,13.2000665 M1.11378304,18.8737348 C0.389275293,21.2888745 0,23.8489772 0,26.5 C0,41.1355459 11.8644541,53 26.5,53 L26.5,53 C41.1355459,53 53,41.1355459 53,26.5 C53,11.8644541 41.1355459,0 26.5,0 C21.7564661,0 17.3040288,1.24633251 13.4522901,3.42939553" id="Oval-2" stroke="#404F54" stroke-width="2" stroke-linecap="round"/>
                    <path d="M31.925,23.693 C31.8329995,23.5856661 31.6605013,23.4553341 31.4075,23.302 C31.1544987,23.1486659 30.8555017,22.9915008 30.5105,22.8305 C30.1654983,22.6694992 29.7860021,22.523834 29.372,22.3935 C28.9579979,22.263166 28.5286689,22.1750002 28.084,22.129 L28.084,26.108 L28.659,26.246 C29.4563373,26.4606677 30.1808301,26.6906654 30.8325,26.936 C31.4841699,27.1813346 32.0361644,27.4879982 32.4885,27.856 C32.9408356,28.2240018 33.2896654,28.6648308 33.535,29.1785 C33.7803346,29.6921692 33.903,30.3246629 33.903,31.076 C33.903,31.9193376 33.7535015,32.639997 33.4545,33.238 C33.1554985,33.836003 32.7491692,34.3266647 32.2355,34.71 C31.7218308,35.0933352 31.1238367,35.3808324 30.4415,35.5725 C29.7591633,35.7641676 29.0423371,35.8753332 28.291,35.906 L28.291,38.436 L26.911,38.436 L26.911,35.883 C25.8376613,35.8063329 24.7911718,35.5878351 23.7715,35.2275 C22.7518282,34.8671649 21.8280041,34.3956696 21,33.813 L22.403,31.076 C22.5256673,31.1986673 22.7364985,31.3596657 23.0355,31.559 C23.3345015,31.7583343 23.6948312,31.9538324 24.1165,32.1455 C24.5381688,32.3371676 25.0058308,32.5173325 25.5195,32.686 C26.0331692,32.8546675 26.5659972,32.9696664 27.118,33.031 L27.118,29.075 C26.9799993,29.0443332 26.8420007,29.0098335 26.704,28.9715 C26.5659993,28.9331665 26.4280007,28.8910002 26.29,28.845 C25.5079961,28.6303323 24.8295029,28.3965013 24.2545,28.1435 C23.6794971,27.8904987 23.2003352,27.5915017 22.817,27.2465 C22.4336647,26.9014983 22.1461676,26.5028356 21.9545,26.0505 C21.7628324,25.5981644 21.667,25.0576698 21.667,24.429 C21.667,23.6623295 21.8011653,22.9761697 22.0695,22.3705 C22.3378347,21.7648303 22.705831,21.2473355 23.1735,20.818 C23.641169,20.3886645 24.1969968,20.0513346 24.841,19.806 C25.4850032,19.5606654 26.1749963,19.4073336 26.911,19.346 L26.911,17 L28.291,17 L28.291,19.323 C29.3030051,19.399667 30.2344957,19.606665 31.0855,19.944 C31.9365043,20.281335 32.6839968,20.6723311 33.328,21.117 L31.925,23.693 Z M30.522,31.398 C30.522,30.8766641 30.3073355,30.4703348 29.878,30.179 C29.4486645,29.8876652 28.8506705,29.6193346 28.084,29.374 L28.084,33.077 C29.7093415,33.0309998 30.522,32.4713387 30.522,31.398 L30.522,31.398 Z M24.933,23.923 C24.933,24.4443359 25.1131649,24.8391653 25.4735,25.1075 C25.8338351,25.3758347 26.3819963,25.6173323 27.118,25.832 L27.118,22.106 C25.661326,22.1980005 24.933,22.8036611 24.933,23.923 L24.933,23.923 Z" id="$" fill="#FFFFFF"/>
                    <path d="M45.1092555,55.2431613 C49.1958936,52.7924978 52.567308,49.2715807 54.8360245,45.067884" id="Oval-2-Copy" stroke="#404F54" stroke-width="2" stroke-linecap="round"/>
                </g>
                <g id="bills" transform="translate(307.000000, 242.000000)">
                    <g id="Group-4" transform="translate(69.000000, 17.000000)">
                        <mask id="mask-2" fill="white">
                            <use xlink:href="#path-1"/>
                        </mask>
                        <use id="Path-26" fill="#E0EAEF" xlink:href="#path-1"/>
                        <path d="M5.16073815,33.2358425 L10.3861475,8.7051496 C10.3861475,8.7051496 11.6062092,3.36993234 16.0851512,8.7051496 C20.5640931,14.0403669 10.8221213,-3.90722041 10.8221213,-3.90722041 L1.32330693,2.21208476 L-1.57226184,25.4948893 L-3.2192739,31.8701747 L5.16073815,33.2358425 Z" id="Path-29" fill="#BACED7" mask="url(#mask-2)"/>
                        <path d="M3.89823646,23.2891736 C3.89823646,23.2891736 15.3655163,24.8820623 19.5625914,23.6454694 C23.7596664,22.4088764 32.4031602,14.0609245 32.4031602,14.0609245 L39.194296,23.5904112 L37.4178802,34.184988 L9.36164854,38.220053 L-1.34431024,35.9936793 L3.89823646,23.2891736 Z" id="Path-30" fill="#BACED7" mask="url(#mask-2)"/>
                        <path d="M3.89823646,23.2891736 C3.89823646,23.2891736 15.3655163,24.8820623 19.5625914,23.6454694 C23.7596664,22.4088764 32.4031602,14.0609245 32.4031602,14.0609245 L39.194296,23.5904112 L37.4178802,34.184988 L22.7533369,26.1404887 L3.89823646,26.1404887 L3.89823646,23.2891736 Z" id="Path-30-Copy" fill="#849FAA" mask="url(#mask-2)"/>
                    </g>
                    <g id="Group-3" transform="translate(41.000000, 0.000000)">
                        <mask id="mask-4" fill="white">
                            <use xlink:href="#path-3"/>
                        </mask>
                        <use id="Path-25" fill="#E0EAEF" xlink:href="#path-3"/>
                        <path d="M9.41539316,49.5203821 L13.0053886,15.1034784 C13.0053886,15.1034784 13.9504255,6.32124092 22.7557292,12.9733571 C31.561033,19.6254732 14.5110365,-8.1453316 14.5110365,-8.1453316 L5.16116782,0.115407247 L1.47056214,46.3031367 L-1.50398581,48.6187912 L-0.0598357589,52.2873335 L9.41539316,49.5203821 Z" id="Path-27" fill="#BACED7" mask="url(#mask-4)"/>
                    </g>
                    <path d="M0.269213477,37.2776695 C0.269213477,37.2776695 -0.967744117,47.6223404 6.47252856,47.6223404 C13.9128012,47.6223404 15.7251893,40.8773796 15.7251893,37.5414085 C15.7251893,34.2054374 18.6110604,8.02117029 18.6110604,8.02117029 C18.6110604,8.02117029 19.5284451,0.898038279 27.09975,0.898038279 C34.6710549,0.898038279 47.1977852,0.898038279 57.3949509,0.898038279" id="Path-22" stroke="#404F54" stroke-width="2" stroke-linecap="round"/>
                    <g id="Group-2" transform="translate(1.000000, 37.000000)">
                        <mask id="mask-6" fill="white">
                            <use xlink:href="#path-5"/>
                        </mask>
                        <use id="Path-24" fill="#E0EAEF" xlink:href="#path-5"/>
                        <rect id="Rectangle-4" fill="#BACED8" mask="url(#mask-6)" x="-3" y="6.43458791" width="50" height="10"/>
                    </g>
                    <path d="M85.4569331,39.9881648 L73.3308057,39.9881648" id="Path-31" stroke="#404F54" stroke-width="2" stroke-linecap="round"/>
                    <path d="M87.4569331,42.9881648 L72.3308057,42.9881648" id="Path-31-Copy" stroke="#404F54" stroke-width="2" stroke-linecap="round"/>
                    <path d="M24.5046456,10.1591364 L37.7176602,10.1591364" id="Path-33" stroke="#CDDDE1" stroke-width="2" stroke-linecap="round"/>
                    <path d="M45.06,9.132 C44.9719996,9.07599972 44.8760005,9.02400024 44.772,8.976 C44.6839996,8.93199978 44.5850005,8.89100019 44.475,8.853 C44.3649994,8.81499981 44.2540006,8.7860001 44.142,8.766 L44.142,9.306 C44.1780002,9.31400004 44.2159998,9.32499993 44.256,9.339 C44.2960002,9.35300007 44.3379998,9.36599994 44.382,9.378 C44.578001,9.4380003 44.7549992,9.50399964 44.913,9.576 C45.0710008,9.64800036 45.2059994,9.73299951 45.318,9.831 C45.4300006,9.92900049 45.5159997,10.0479993 45.576,10.188 C45.6360003,10.3280007 45.666,10.497999 45.666,10.698 C45.666,10.9340012 45.6250004,11.1349992 45.543,11.301 C45.4609996,11.4670008 45.3530007,11.6029995 45.219,11.709 C45.0849993,11.8150005 44.9320009,11.8949997 44.76,11.949 C44.5879991,12.0030003 44.4100009,12.0359999 44.226,12.048 L44.226,12.774 L43.746,12.774 L43.746,12.036 C43.4699986,12.0119999 43.1960014,11.9580004 42.924,11.874 C42.6519986,11.7899996 42.4080011,11.6840006 42.192,11.556 L42.696,10.53 C42.8040005,10.5980003 42.9199994,10.6619997 43.044,10.722 C43.1480005,10.7740003 43.2689993,10.8249998 43.407,10.875 C43.5450007,10.9250003 43.6859993,10.9599999 43.83,10.98 L43.83,10.452 C43.7059994,10.4199998 43.5820006,10.3820002 43.458,10.338 C43.2699991,10.2739997 43.1080007,10.2050004 42.972,10.131 C42.8359993,10.0569996 42.7240004,9.97300047 42.636,9.879 C42.5479996,9.78499953 42.4830002,9.6780006 42.441,9.558 C42.3989998,9.4379994 42.378,9.30000078 42.378,9.144 C42.378,8.92799892 42.4139996,8.73700083 42.486,8.571 C42.5580004,8.40499917 42.6559994,8.2620006 42.78,8.142 C42.9040006,8.0219994 43.0489992,7.92600036 43.215,7.854 C43.3810008,7.78199964 43.5579991,7.7360001 43.746,7.716 L43.746,7.11 L44.226,7.11 L44.226,7.722 C44.3580007,7.73800008 44.4859994,7.76199984 44.61,7.794 C44.7340006,7.82600016 44.8529994,7.86299979 44.967,7.905 C45.0810006,7.94700021 45.1879995,7.99099977 45.288,8.037 C45.3880005,8.08300023 45.4799996,8.1259998 45.564,8.166 L45.06,9.132 Z M44.406,10.812 C44.406,10.7559997 44.3820002,10.7070002 44.334,10.665 C44.2859998,10.6229998 44.2220004,10.5860002 44.142,10.554 L44.142,10.998 C44.2380005,10.99 44.3059998,10.9700002 44.346,10.938 C44.3860002,10.9059998 44.406,10.8640003 44.406,10.812 L44.406,10.812 Z M43.59,8.952 C43.59,9.0120003 43.6099998,9.06099981 43.65,9.099 C43.6900002,9.13700019 43.7499996,9.17199984 43.83,9.204 L43.83,8.748 C43.6699992,8.7680001 43.59,8.83599942 43.59,8.952 L43.59,8.952 Z" id="$" fill="#4d90cc"/>
                    <path d="M43.06,21.132 C42.9719996,21.0759997 42.8760005,21.0240002 42.772,20.976 C42.6839996,20.9319998 42.5850005,20.8910002 42.475,20.853 C42.3649994,20.8149998 42.2540006,20.7860001 42.142,20.766 L42.142,21.306 C42.1780002,21.314 42.2159998,21.3249999 42.256,21.339 C42.2960002,21.3530001 42.3379998,21.3659999 42.382,21.378 C42.578001,21.4380003 42.7549992,21.5039996 42.913,21.576 C43.0710008,21.6480004 43.2059994,21.7329995 43.318,21.831 C43.4300006,21.9290005 43.5159997,22.0479993 43.576,22.188 C43.6360003,22.3280007 43.666,22.497999 43.666,22.698 C43.666,22.9340012 43.6250004,23.1349992 43.543,23.301 C43.4609996,23.4670008 43.3530007,23.6029995 43.219,23.709 C43.0849993,23.8150005 42.9320009,23.8949997 42.76,23.949 C42.5879991,24.0030003 42.4100009,24.0359999 42.226,24.048 L42.226,24.774 L41.746,24.774 L41.746,24.036 C41.4699986,24.0119999 41.1960014,23.9580004 40.924,23.874 C40.6519986,23.7899996 40.4080011,23.6840006 40.192,23.556 L40.696,22.53 C40.8040005,22.5980003 40.9199994,22.6619997 41.044,22.722 C41.1480005,22.7740003 41.2689993,22.8249998 41.407,22.875 C41.5450007,22.9250003 41.6859993,22.9599999 41.83,22.98 L41.83,22.452 C41.7059994,22.4199998 41.5820006,22.3820002 41.458,22.338 C41.2699991,22.2739997 41.1080007,22.2050004 40.972,22.131 C40.8359993,22.0569996 40.7240004,21.9730005 40.636,21.879 C40.5479996,21.7849995 40.4830002,21.6780006 40.441,21.558 C40.3989998,21.4379994 40.378,21.3000008 40.378,21.144 C40.378,20.9279989 40.4139996,20.7370008 40.486,20.571 C40.5580004,20.4049992 40.6559994,20.2620006 40.78,20.142 C40.9040006,20.0219994 41.0489992,19.9260004 41.215,19.854 C41.3810008,19.7819996 41.5579991,19.7360001 41.746,19.716 L41.746,19.11 L42.226,19.11 L42.226,19.722 C42.3580007,19.7380001 42.4859994,19.7619998 42.61,19.794 C42.7340006,19.8260002 42.8529994,19.8629998 42.967,19.905 C43.0810006,19.9470002 43.1879995,19.9909998 43.288,20.037 C43.3880005,20.0830002 43.4799996,20.1259998 43.564,20.166 L43.06,21.132 Z M42.406,22.812 C42.406,22.7559997 42.3820002,22.7070002 42.334,22.665 C42.2859998,22.6229998 42.2220004,22.5860002 42.142,22.554 L42.142,22.998 C42.2380005,22.99 42.3059998,22.9700002 42.346,22.938 C42.3860002,22.9059998 42.406,22.8640003 42.406,22.812 L42.406,22.812 Z M41.59,20.952 C41.59,21.0120003 41.6099998,21.0609998 41.65,21.099 C41.6900002,21.1370002 41.7499996,21.1719998 41.83,21.204 L41.83,20.748 C41.6699992,20.7680001 41.59,20.8359994 41.59,20.952 L41.59,20.952 Z" id="$-copy" fill="#4d90cc"/>
                    <path d="M42.06,30.132 C41.9719996,30.0759997 41.8760005,30.0240002 41.772,29.976 C41.6839996,29.9319998 41.5850005,29.8910002 41.475,29.853 C41.3649994,29.8149998 41.2540006,29.7860001 41.142,29.766 L41.142,30.306 C41.1780002,30.314 41.2159998,30.3249999 41.256,30.339 C41.2960002,30.3530001 41.3379998,30.3659999 41.382,30.378 C41.578001,30.4380003 41.7549992,30.5039996 41.913,30.576 C42.0710008,30.6480004 42.2059994,30.7329995 42.318,30.831 C42.4300006,30.9290005 42.5159997,31.0479993 42.576,31.188 C42.6360003,31.3280007 42.666,31.497999 42.666,31.698 C42.666,31.9340012 42.6250004,32.1349992 42.543,32.301 C42.4609996,32.4670008 42.3530007,32.6029995 42.219,32.709 C42.0849993,32.8150005 41.9320009,32.8949997 41.76,32.949 C41.5879991,33.0030003 41.4100009,33.0359999 41.226,33.048 L41.226,33.774 L40.746,33.774 L40.746,33.036 C40.4699986,33.0119999 40.1960014,32.9580004 39.924,32.874 C39.6519986,32.7899996 39.4080011,32.6840006 39.192,32.556 L39.696,31.53 C39.8040005,31.5980003 39.9199994,31.6619997 40.044,31.722 C40.1480005,31.7740003 40.2689993,31.8249998 40.407,31.875 C40.5450007,31.9250003 40.6859993,31.9599999 40.83,31.98 L40.83,31.452 C40.7059994,31.4199998 40.5820006,31.3820002 40.458,31.338 C40.2699991,31.2739997 40.1080007,31.2050004 39.972,31.131 C39.8359993,31.0569996 39.7240004,30.9730005 39.636,30.879 C39.5479996,30.7849995 39.4830002,30.6780006 39.441,30.558 C39.3989998,30.4379994 39.378,30.3000008 39.378,30.144 C39.378,29.9279989 39.4139996,29.7370008 39.486,29.571 C39.5580004,29.4049992 39.6559994,29.2620006 39.78,29.142 C39.9040006,29.0219994 40.0489992,28.9260004 40.215,28.854 C40.3810008,28.7819996 40.5579991,28.7360001 40.746,28.716 L40.746,28.11 L41.226,28.11 L41.226,28.722 C41.3580007,28.7380001 41.4859994,28.7619998 41.61,28.794 C41.7340006,28.8260002 41.8529994,28.8629998 41.967,28.905 C42.0810006,28.9470002 42.1879995,28.9909998 42.288,29.037 C42.3880005,29.0830002 42.4799996,29.1259998 42.564,29.166 L42.06,30.132 Z M41.406,31.812 C41.406,31.7559997 41.3820002,31.7070002 41.334,31.665 C41.2859998,31.6229998 41.2220004,31.5860002 41.142,31.554 L41.142,31.998 C41.2380005,31.99 41.3059998,31.9700002 41.346,31.938 C41.3860002,31.9059998 41.406,31.8640003 41.406,31.812 L41.406,31.812 Z M40.59,29.952 C40.59,30.0120003 40.6099998,30.0609998 40.65,30.099 C40.6900002,30.1370002 40.7499996,30.1719998 40.83,30.204 L40.83,29.748 C40.6699992,29.7680001 40.59,29.8359994 40.59,29.952 L40.59,29.952 Z" id="$-copy-2" fill="#4d90cc"/>
                    <path d="M23.1882736,22.1591364 L26.4012883,22.1591364" id="Path-33-Copy-2" stroke="#CDDDE1" stroke-width="2" stroke-linecap="round"/>
                    <path d="M31.1882736,22.1591364 L33.4012883,22.1591364" id="Path-33-Copy-4" stroke="#CDDDE1" stroke-width="2" stroke-linecap="round"/>
                    <path d="M21.994128,30.477118 L31.2071426,30.477118" id="Path-33-Copy-3" stroke="#CDDDE1" stroke-width="2" stroke-linecap="round"/>
                    <path d="M32.2692135,37.2776695 C32.2692135,37.2776695 31.0322559,47.6223404 38.4725286,47.6223404 C45.9128012,47.6223404 47.7251893,40.8773796 47.7251893,37.5414085 C47.7251893,34.2054374 50.6110604,8.02117029 50.6110604,8.02117029 C50.6110604,8.02117029 52.4445004,-0.660202144 59.4717274,1.18706052 C66.4989543,3.03432318 63.5004855,11.6219702 63.5004855,11.6219702 C63.5004855,11.6219702 57.5769725,41.6869328 60.4781012,45.453387 C63.37923,49.2198411 66.907262,48.4566542 68.2519583,48.0394973 C69.5966547,47.6223404 72.2414942,49.6461124 75.0409198,22.1709685 C75.0409198,22.1709685 75.2792119,17.1209316 80.2023397,17.1209316 C85.1254675,17.1209316 84.7096377,22.4970169 84.7096377,22.4970169 L83.5127769,33.5792861 C83.5127769,33.5792861 82.2061404,40.7390732 87.1420942,40.1481993 C92.0780479,39.5573253 96.7505006,37.2776695 96.7505006,37.2776695 C96.7505006,37.2776695 102.295851,35.1779632 102.295851,38.0218182 C102.295851,40.8656733 98.6045514,41.750031 98.6045514,41.750031 C95.0788933,43.1293772 88.875964,42.2809109 87.1420942,43.4558001 C84.7870449,45.0516073 85.966318,47.0192986 87.7350335,47.6223404 C89.5037489,48.2253822 97.2461531,45.4525647 100.810783,46.5374526" id="Path-22-Copy" stroke="#404F54" stroke-width="2" stroke-linecap="round"/>
                    <path d="M0.569460342,37.2294873 L31.9071897,37.2294873" id="Path-23" stroke="#404F54" stroke-width="2" stroke-linecap="round" fill="#404F54"/>
                    <path d="M79.7875722,17.061945 L63.2325065,17.061945" id="Path-28" stroke="#404F54" stroke-width="2" stroke-linecap="round"/>
                </g>
                <g id="cash" transform="translate(30.358941, 220.855391)">
                    <path d="M34.6147458,18.5814588 C34.6147458,18.5814588 37.6518547,3.41652258 47.6577511,1.1617802 C57.6636474,-1.09296217 53.0618053,7.31995946 53.0618053,7.31995946 C53.0618053,7.31995946 59.3314241,5.66057898 59.3314241,17.4907253 C59.3314241,29.3208715 52.5816993,23.5130399 52.5816993,23.5130399 L34.6147458,18.5814588 Z" id="Path-57" stroke="#404F54" stroke-width="2" stroke-linecap="round" stroke-linejoin="round" fill="#6aace6"/>
                    <path d="M34.6147458,20.0223079 C34.6147458,20.0223079 36.9634876,8.29453659 44.7015263,6.55083634 C52.4395651,4.80713609 48.8807402,11.3132512 48.8807402,11.3132512 C48.8807402,11.3132512 53.7293366,10.0299729 53.7293366,19.1787914 C53.7293366,28.32761 48.5094513,23.8361357 48.5094513,23.8361357 L34.6147458,20.0223079 Z" id="Path-57-Copy" fill="#4d90cc"/>
                    <rect id="Rectangle-5" stroke="#404F54" stroke-width="2" stroke-linecap="round" fill="#FF8F5C" x="30.1775193" y="17.0865074" width="15.2879277" height="11.6907682" rx="5.84538411"/>
                    <path d="M25.1919482,70.1446093 C11.2788194,70.1446093 0,58.8657899 0,44.9526611 C0,31.0395323 11.2788194,19.7607129 25.1919482,19.7607129 C29.5350056,19.7607129 33.6213734,20.8597319 37.188114,22.7948321 C40.7548546,20.8597319 44.8412224,19.7607129 49.1842798,19.7607129 C63.0974086,19.7607129 74.376228,31.0395323 74.376228,44.9526611 C74.376228,58.8657899 63.0974086,70.1446093 49.1842798,70.1446093 L25.1919482,70.1446093 Z" id="Combined-Shape" stroke="#404F54" stroke-width="2" stroke-linecap="round" fill="#4d90cc"/>
                    <path d="M24.7326978,59.9578407 C14.4589097,59.9578407 6.13035878,51.6292899 6.13035878,41.3555017 C6.13035878,31.0817135 14.4589097,22.7531626 24.7326978,22.7531626 C27.9397157,22.7531626 30.9571877,23.5647046 33.5909545,24.993629 C36.2247214,23.5647046 39.2421934,22.7531626 42.4492112,22.7531626 C52.7229994,22.7531626 61.0515503,31.0817135 61.0515503,41.3555017 C61.0515503,51.6292899 52.7229994,59.9578407 42.4492112,59.9578407 L24.7326978,59.9578407 Z" id="Combined-Shape-Copy-4" fill="#6aace6"/>
                    <path d="M36.8034376,41.9905416 C36.7207026,41.8940173 36.5655766,41.776811 36.3380551,41.6389192 C36.1105337,41.5010274 35.8416487,41.3596905 35.5313921,41.2149041 C35.2211356,41.0701177 34.8798585,40.9391224 34.5075506,40.8219144 C34.1352428,40.7047064 33.7491515,40.6254198 33.3492653,40.5840522 L33.3492653,44.1623266 L33.866357,44.2864286 C34.5833943,44.4794771 35.2349233,44.6863117 35.8209635,44.9069386 C36.4070036,45.1275655 36.9034067,45.403345 37.3101875,45.7342853 C37.7169683,46.0652256 38.0306674,46.4616586 38.2512943,46.9235961 C38.4719212,47.3855337 38.582233,47.9543288 38.582233,48.6299986 C38.582233,49.3884035 38.4477905,50.0364853 38.1789015,50.5742633 C37.9100125,51.1120413 37.5446047,51.5532885 37.0826672,51.898018 C36.6207296,52.2427475 36.0829597,52.5012908 35.4693411,52.6736555 C34.8557226,52.8460203 34.2110881,52.9459903 33.5354183,52.9735687 L33.5354183,55.248772 L32.2943983,55.248772 L32.2943983,52.952885 C31.3291557,52.8839391 30.3880582,52.6874462 29.4710777,52.3634005 C28.5540973,52.0393548 27.7233116,51.6153438 26.9786959,51.091355 L28.2403996,48.6299986 C28.350713,48.7403121 28.5403114,48.8850963 28.8092004,49.0643556 C29.0780894,49.243615 29.4021303,49.4194244 29.7813328,49.5917891 C30.1605352,49.7641539 30.5810989,49.9261743 31.0430364,50.0778553 C31.504974,50.2295363 31.9841408,50.3329536 32.4805513,50.3881103 L32.4805513,46.8305196 C32.3564487,46.8029413 32.2323479,46.7719161 32.1082453,46.7374431 C31.9841427,46.7029702 31.8600419,46.6650505 31.7359393,46.623683 C31.0326911,46.4306344 30.422529,46.2203526 29.9054348,45.9928311 C29.3883405,45.7653096 28.9574351,45.4964247 28.6127056,45.1861681 C28.2679761,44.8759116 28.0094328,44.5173982 27.8370681,44.1106174 C27.6647033,43.7038366 27.5785222,43.2177753 27.5785222,42.6524189 C27.5785222,41.9629599 27.6991757,41.3459034 27.9404864,40.8012307 C28.1817971,40.2565581 28.5127324,39.7911803 28.9333024,39.4050832 C29.3538724,39.0189862 29.8537227,38.7156288 30.4328683,38.4950019 C31.0120138,38.274375 31.6325176,38.1364853 32.2943983,38.0813285 L32.2943983,35.9715945 L33.5354183,35.9715945 L33.5354183,38.0606449 C34.4455042,38.1295908 35.2831843,38.3157419 36.0484838,38.6191039 C36.8137833,38.9224658 37.4859958,39.2740847 38.0651413,39.6739709 L36.8034376,41.9905416 Z M35.541734,48.91957 C35.541734,48.4507378 35.3486883,48.0853301 34.9625913,47.8233356 C34.5764943,47.5613412 34.0387243,47.3200342 33.3492653,47.0994073 L33.3492653,50.4294777 C34.8109184,50.3881101 35.541734,49.8848126 35.541734,48.91957 L35.541734,48.91957 Z M30.5156029,42.1973782 C30.5156029,42.6662104 30.6776234,43.0212764 31.0016691,43.2625871 C31.3257148,43.5038977 31.8186706,43.7210741 32.4805513,43.9141226 L32.4805513,40.5633686 C31.1705792,40.6461036 30.5156029,41.1907681 30.5156029,42.1973782 L30.5156029,42.1973782 Z" id="$" fill="#FFFFFF"/>
                    <path d="M33.1777409,27.654872 C33.1777409,27.654872 34.7349687,24.5372681 37.8214832,22.6404174" id="Path-56" stroke="#404F54" stroke-width="2" stroke-linecap="round"/>
                    <path d="M53.4318325,7.06236146 C53.4318325,7.06236146 49.053027,8.00993175 44.743612,12.6593894" id="Path-58" stroke="#404F54" stroke-width="2" stroke-linecap="round" fill="#85DAD2"/>
                </g>
                <g id="cash-copy" transform="translate(52.000000, 213.000000)">
                    <path d="M38.4911997,20.6623688 C38.4911997,20.6623688 41.8684301,3.79913387 52.9948719,1.29188624 C64.1213137,-1.21536139 59.0041181,8.13971085 59.0041181,8.13971085 C59.0041181,8.13971085 65.9758622,6.29449882 65.9758622,19.4494856 C65.9758622,32.6044724 58.4702458,26.1462303 58.4702458,26.1462303 L38.4911997,20.6623688 Z" id="Path-57" stroke="#404F54" stroke-width="2" stroke-linecap="round" stroke-linejoin="round" fill="#6aace6"/>
                    <path d="M38.4911997,22.2645765 C38.4911997,22.2645765 41.1029737,9.22342942 49.7075839,7.28445477 C58.3121942,5.34548012 54.3548217,12.5802054 54.3548217,12.5802054 C54.3548217,12.5802054 59.7464053,11.1532146 59.7464053,21.3265958 C59.7464053,31.499977 53.9419527,26.5055092 53.9419527,26.5055092 L38.4911997,22.2645765 Z" id="Path-57-Copy" fill="#4d90cc"/>
                    <rect id="Rectangle-5" stroke="#404F54" stroke-width="2" stroke-linecap="round" fill="#FF8F5C" x="33.5570549" y="19" width="17" height="13" rx="6.5"/>
                    <rect id="Rectangle-5-Copy" stroke="#404F54" stroke-width="2" stroke-linecap="round" fill="#FF8F5C" x="33.5570549" y="22" width="17" height="13" rx="6.5"/>
                    <path d="M28.0131571,78 C12.5419176,78 0,65.4580824 0,49.9868429 C0,34.5156035 12.5419176,21.9736858 28.0131571,21.9736858 C32.8425871,21.9736858 37.3865811,23.1957823 41.3527557,25.3475916 C45.3189303,23.1957823 49.8629243,21.9736858 54.6923543,21.9736858 C70.1635937,21.9736858 82.7055114,34.5156035 82.7055114,49.9868429 C82.7055114,65.4580824 70.1635937,78 54.6923543,78 L28.0131571,78 Z" id="Combined-Shape" stroke="#404F54" stroke-width="2" stroke-linecap="round" fill="#4d90cc"/>
                    <path d="M27.502476,66.6724303 C16.0781415,66.6724303 6.81688855,57.4111774 6.81688855,45.9868429 C6.81688855,34.5625085 16.0781415,25.3012555 27.502476,25.3012555 C31.068643,25.3012555 34.4240372,26.2036808 37.3527557,27.7926285 C40.2814742,26.2036808 43.6368684,25.3012555 47.2030354,25.3012555 C58.6273699,25.3012555 67.8886228,34.5625085 67.8886228,45.9868429 C67.8886228,57.4111774 58.6273699,66.6724303 47.2030354,66.6724303 L27.502476,66.6724303 Z" id="Combined-Shape-Copy-4" fill="#6aace6"/>
                    <path d="M40.925,46.693 C40.8329995,46.5856661 40.6605013,46.4553341 40.4075,46.302 C40.1544987,46.1486659 39.8555017,45.9915008 39.5105,45.8305 C39.1654983,45.6694992 38.7860021,45.523834 38.372,45.3935 C37.9579979,45.263166 37.5286689,45.1750002 37.084,45.129 L37.084,49.108 L37.659,49.246 C38.4563373,49.4606677 39.1808301,49.6906654 39.8325,49.936 C40.4841699,50.1813346 41.0361644,50.4879982 41.4885,50.856 C41.9408356,51.2240018 42.2896654,51.6648308 42.535,52.1785 C42.7803346,52.6921692 42.903,53.3246629 42.903,54.076 C42.903,54.9193376 42.7535015,55.639997 42.4545,56.238 C42.1554985,56.836003 41.7491692,57.3266647 41.2355,57.71 C40.7218308,58.0933352 40.1238367,58.3808324 39.4415,58.5725 C38.7591633,58.7641676 38.0423371,58.8753332 37.291,58.906 L37.291,61.436 L35.911,61.436 L35.911,58.883 C34.8376613,58.8063329 33.7911718,58.5878351 32.7715,58.2275 C31.7518282,57.8671649 30.8280041,57.3956696 30,56.813 L31.403,54.076 C31.5256673,54.1986673 31.7364985,54.3596657 32.0355,54.559 C32.3345015,54.7583343 32.6948312,54.9538324 33.1165,55.1455 C33.5381688,55.3371676 34.0058308,55.5173325 34.5195,55.686 C35.0331692,55.8546675 35.5659972,55.9696664 36.118,56.031 L36.118,52.075 C35.9799993,52.0443332 35.8420007,52.0098335 35.704,51.9715 C35.5659993,51.9331665 35.4280007,51.8910002 35.29,51.845 C34.5079961,51.6303323 33.8295029,51.3965013 33.2545,51.1435 C32.6794971,50.8904987 32.2003352,50.5915017 31.817,50.2465 C31.4336647,49.9014983 31.1461676,49.5028356 30.9545,49.0505 C30.7628324,48.5981644 30.667,48.0576698 30.667,47.429 C30.667,46.6623295 30.8011653,45.9761697 31.0695,45.3705 C31.3378347,44.7648303 31.705831,44.2473355 32.1735,43.818 C32.641169,43.3886645 33.1969968,43.0513346 33.841,42.806 C34.4850032,42.5606654 35.1749963,42.4073336 35.911,42.346 L35.911,40 L37.291,40 L37.291,42.323 C38.3030051,42.399667 39.2344957,42.606665 40.0855,42.944 C40.9365043,43.281335 41.6839968,43.6723311 42.328,44.117 L40.925,46.693 Z M39.522,54.398 C39.522,53.8766641 39.3073355,53.4703348 38.878,53.179 C38.4486645,52.8876652 37.8506705,52.6193346 37.084,52.374 L37.084,56.077 C38.7093415,56.0309998 39.522,55.4713387 39.522,54.398 L39.522,54.398 Z M33.933,46.923 C33.933,47.4443359 34.1131649,47.8391653 34.4735,48.1075 C34.8338351,48.3758347 35.3819963,48.6173323 36.118,48.832 L36.118,45.106 C34.661326,45.1980005 33.933,45.8036611 33.933,46.923 L33.933,46.923 Z" id="$" fill="#FFFFFF"/>
                    <path d="M36.8932668,30.7519001 C36.8932668,30.7519001 38.6248863,27.2851603 42.0570549,25.1758842" id="Path-56" stroke="#404F54" stroke-width="2" stroke-linecap="round"/>
                    <path d="M59.4155841,7.85326483 C59.4155841,7.85326483 54.5464026,8.90695212 49.7543827,14.0770956" id="Path-58" stroke="#404F54" stroke-width="2" stroke-linecap="round" fill="#85DAD2"/>
                </g>
            </g>
        </g>
    </g>
<div xmlns="" id="screen-shader" style="&#10;            transition: opacity 0.1s ease 0s; &#10;            z-index: 2147483647;&#10;            margin: 0; &#10;            border-radius: 0; &#10;            padding: 0; &#10;            background: #fac563; &#10;            pointer-events: none; &#10;            position: fixed; &#10;            top: -10%; &#10;            right: -10%; &#10;            width: 120%; &#10;            height: 120%; &#10;            opacity: 0.5840;&#10;            mix-blend-mode: multiply; &#10;            display: none;&#10;        "/></svg>
