<svg xmlns="http://www.w3.org/2000/svg" xmlns:xlink="http://www.w3.org/1999/xlink" height="221" viewBox="0 0 1456 221" width="1456">
    <defs><path id="a" d="m.636 0h1455.364v220.597h-1455.364z"/><path id="b" d="m-5.867 207h1468.205v27h-1468.205z"/>
        <mask id="c" fill="#fff" height="27" width="1468.205" x="0" y="0"><use xlink:href="#b"/></mask>
        <mask id="d" fill="#fff"><use fill="#fff" fill-rule="evenodd" xlink:href="#a"/></mask>
    </defs>
    <g fill="none" fill-rule="evenodd"><use fill="#fff" xlink:href="#a"/><path
        d="m-8.051 198.553s28.333-87.317 53.42-87.317c25.089 0 27.685 21.639 84.352 21.639s84.699-50.297 144.159-50.297 120.376 88.834 187.232 88.834 48.923 27.903 93.076 27.903 376.818 46.32 414.91-35.209c38.092-81.528 86.027-13.382 103.333-13.382 17.307 0 36.546-38.024 66.275-38.024 29.73 0 15.563 19.925 74.472 9.963 58.908-9.963 83.581-68.811 137.976-68.811s56.086 56.357 115.704 56.357 0 135.7 0 135.7h-1480.081z"
        fill="#d9e1e9"
        mask="url(#d)"
        opacity=".216"/><path
        d="m-16.376 183.394c19.206 0 63.933-39.158 91.969-36.441 28.036 2.716 30.676 20.83 78.032 20.83s133.641-72.637 185.907-72.637c52.265 0 97.363 91.057 202.946 93.043 105.583 1.985 146.404 25.925 210.135 25.925 63.73 0 128.868-26.798 162.545-26.798 33.676 0 66.01-45.992 101.726-45.992s57.55 19.969 86.836 19.969c29.285 0 72.458-60.175 107.127-61.62 34.669-1.446 47.585 15.016 122.694 17.313 75.108 2.296 79.707-43.047 117.877-46.102s22.07 164.754 22.07 164.754h-1486.561s-22.509-52.244-3.304-52.244z"
        fill="#4d90cc"
        mask="url(#d)"
        opacity=".313"/><path d="m.636 208.771h1455.364v11.825h-1455.364z" fill="#f5f6f7" mask="url(#d)"/>
        <g mask="url(#d)" opacity=".41">
            <g transform="matrix(.94551858 -.32556815 .32556815 .94551858 90.500042 49.826924)"><path d="m9.292 0h18.585v8.363h-18.585z" fill="#e0eaef"/><path
                d="m39.477 48.713h-30.184a9.288 9.288 0 0 1 -9.293-9.293v-30.129c0-5.131 4.162-9.291 9.3-9.291h57.552c5.136 0 9.3 4.153 9.3 9.292v30.13c0 5.131-4.164 9.29-9.291 9.29h-9.68m-6.732 0h-3.837"
                stroke="#e0eaef"
                stroke-linecap="round"
                stroke-width="2"/><ellipse cx="37.752" cy="26.601" fill="#e0eaef" rx="11.733" ry="11.733"/><path d="m42.76 27.778-5.89 3.313c-1.259.709-2.28.113-2.28-1.326v-6.539c0-1.441 1.021-2.035 2.28-1.326l5.89 3.313c1.26.708 1.26 1.857 0 2.565z" fill="#fff"/><path d="m9.292.688v35.079m0 5.742v6.815m55.755-47.636v47.636m-54.774-39.674h47.004m3.473 0h3.555m-17.313-8.351v7.566m-19.514-7.566v7.566" stroke="#e0eaef" stroke-linecap="round" stroke-width="2"/></g>
            <g transform="matrix(.83867057 .54463904 -.54463904 .83867057 444.099361 60.871684)"><path d="m12.284 0h22.716v50h-35v-37.519z" fill="#fff" stroke="#e0eaef" stroke-linecap="round" stroke-width="2"/><path d="m1.048 12.847 11.696-11.84.187 7.906a3.864 3.864 0 0 1 -3.91 3.976z" fill="#e0eaef"/><rect fill="#e0eaef" height="17" rx="1" width="21" x="6.989" y="22.197"/>
                <g fill="#fff"><path d="m11.184 32.376c-.57 1.552.313 2.81 1.96 2.81h7.649c1.652 0 1.993-.907.773-2.014l-5.788-5.254c-1.225-1.112-2.678-.762-3.25.796z" opacity=".728"/><path d="m22.95 32.302c.46 1.593-.51 2.884-2.157 2.884h-7.65c-1.651 0-1.91-.784-.56-1.765l6.403-4.65c1.342-.975 2.805-.47 3.265 1.119l.698 2.412z" opacity=".403"/></g>
            </g>
            <g transform="translate(1015 71.25)"><path
                d="m10.315 39.337a23.41 23.41 0 0 1 -5.588-15.215c0-12.98 10.523-23.504 23.504-23.504s23.504 10.523 23.504 23.504-10.523 23.504-23.504 23.504a23.397 23.397 0 0 1 -11.62-3.068c-1.946 1.133-5.002 2.51-8.368 2.51-5.725 0-7.91-1.093-7.91-1.093s-.565-.033 4.707-2.116c2.977-1.176 4.508-3.084 5.275-4.522z"
                fill="#fff"/><path
                d="m14.063 42.148a23.41 23.41 0 0 1 -5.588-15.215c0-12.98 10.523-23.504 23.504-23.504 12.98 0 23.504 10.523 23.504 23.504 0 12.98-10.523 23.504-23.504 23.504a23.397 23.397 0 0 1 -11.62-3.069c-1.946 1.134-5.002 2.51-8.368 2.51-5.725 0-7.911-1.092-7.911-1.092s-.565-.033 4.707-2.116c2.978-1.176 4.508-3.084 5.276-4.522z"/>
                <g stroke-linecap="round" stroke-width="2"><path
                    d="m16.08 4.028a23.395 23.395 0 0 1 13.158-4.025c12.98 0 23.504 10.523 23.504 23.504 0 12.98-10.523 23.504-23.504 23.504a23.397 23.397 0 0 1 -11.62-3.069c-1.946 1.134-5.002 2.51-8.368 2.51-5.726 0-7.911-1.092-7.911-1.092s-.565-.033 4.707-2.116c2.978-1.176 4.508-3.085 5.276-4.523a23.41 23.41 0 0 1 -5.588-15.214m.49-4.802a23.397 23.397 0 0 1 4.21-9.303"
                    stroke="#e0eaef"/><path d="m45.062 31.185a17.634 17.634 0 0 1 -10.668 9.139m-5.156.768c-1.377 0-2.716-.158-4.001-.457" stroke="#fff"/><circle cx="29.238" cy="23.507" fill="#fff" r="3.247" stroke="#e0eaef"/></g><circle cx="17.588" cy="23.507" fill="#fff" r="3.247"/><path d="m14.341 23.507a3.247 3.247 0 1 0 3.247-3.247" stroke="#e0eaef" stroke-linecap="round" stroke-width="2"/><ellipse cx="40.887" cy="23.507" fill="#fff" rx="3.247" ry="3.247" stroke="#e0eaef" stroke-linecap="round" stroke-width="2"/></g><path d="m1229.996 11.307 17.82 15.49-34.095 39.222-27.456-23.867 25.584-29.43z" fill="#fff" stroke="#e0eaef" stroke-linecap="round" stroke-width="2"/><path
                    d="m1212.423 13.723 17.248-1.312-5.343 6.448a3.86 3.86 0 0 1 -5.563.436zm-8.868 19.785 5.325-6.127 2.64 2.295c.3.26.522.562.668.906.145.344.223.693.231 1.05a2.99 2.99 0 0 1 -.165 1.052 2.71 2.71 0 0 1 -.516.908c-.235.27-.513.49-.833.662-.32.17-.655.28-1.003.325-.348.046-.698.02-1.05-.08-.353-.1-.68-.28-.979-.54l-1-.87-1.636 1.881zm4.593-1.886.888.773c.104.09.242.126.413.109.172-.018.365-.15.58-.397.22-.254.319-.471.295-.653-.023-.182-.087-.318-.19-.408l-.846-.735zm.782 6.559 5.326-6.127 2.356 2.048c.506.44.882.908 1.127 1.404.246.496.378.995.397 1.496.018.501-.067.995-.258 1.48-.19.487-.467.94-.832 1.36a4.584 4.584 0 0 1 -1.32 1.073c-.474.249-.962.39-1.465.422a3.715 3.715 0 0 1 -1.515-.226 4.63 4.63 0 0 1 -1.46-.883zm6.407.176c.205-.236.361-.48.468-.73.106-.25.16-.496.163-.737.002-.24-.05-.475-.155-.702a1.846 1.846 0 0 0 -.476-.62l-.673-.584-2.776 3.192.673.585c.219.19.45.32.692.39.243.07.485.083.728.042s.48-.134.71-.277.446-.33.646-.56zm-.228 5.194 5.325-6.126 4.203 3.653-1.276 1.467-2.52-2.19-.884 1.018 2.053 1.785-1.185 1.363-2.053-1.785-1.98 2.278z"
                    fill="#e0eaef"/>
            <g transform="translate(22.164 9.63)">
                <g fill="#dae2e6"><path
                    d="m938.82 79.017s1.266 1.994 2.068 2.795c.827.827 2.816 2.09 2.816 2.09s-2.024 1.335-2.816 2.126c-.837.837-2.068 2.758-2.068 2.758s-1.241-1.982-2.017-2.758c-.852-.852-2.868-2.127-2.868-2.127s2.029-1.249 2.868-2.089c.789-.788 2.017-2.795 2.017-2.795zm458.404 42.787s.784 1.233 1.28 1.73c.51.51 1.741 1.291 1.741 1.291s-1.252.826-1.741 1.316c-.518.517-1.28 1.705-1.28 1.705s-.767-1.226-1.247-1.705c-.527-.528-1.774-1.316-1.774-1.316s1.255-.773 1.774-1.292c.488-.488 1.247-1.729 1.247-1.729zm-1279.192-3.458s1 1.574 1.633 2.207c.653.652 2.223 1.65 2.223 1.65s-1.598 1.053-2.223 1.678c-.66.66-1.633 2.177-1.633 2.177s-.98-1.564-1.592-2.177c-.673-.673-2.264-1.679-2.264-1.679s1.602-.986 2.264-1.65c.623-.622 1.592-2.206 1.592-2.206zm280.135 32.216s1 1.574 1.633 2.207c.653.652 2.224 1.65 2.224 1.65s-1.599 1.053-2.224 1.678c-.66.66-1.633 2.177-1.633 2.177s-.98-1.564-1.591-2.177c-.674-.673-2.265-1.679-2.265-1.679s1.602-.986 2.265-1.65c.622-.622 1.591-2.206 1.591-2.206zm471.823 14.234s.634.997 1.035 1.398c.413.413 1.409 1.044 1.409 1.044s-1.013.668-1.409 1.064c-.418.419-1.034 1.38-1.034 1.38s-.62-.992-1.009-1.38c-.426-.426-1.434-1.064-1.434-1.064s1.014-.624 1.434-1.044c.395-.395 1.009-1.398 1.009-1.398zm36.013-14.168s.748 1.178 1.221 1.651c.488.488 1.663 1.234 1.663 1.234s-1.195.788-1.663 1.256c-.494.494-1.221 1.628-1.221 1.628s-.733-1.17-1.19-1.628c-.504-.504-1.695-1.256-1.695-1.256s1.198-.738 1.694-1.234c.466-.466 1.19-1.651 1.19-1.651zm367.174-124.522s.748 1.177 1.222 1.65c.488.489 1.663 1.235 1.663 1.235s-1.196.788-1.663 1.256c-.494.494-1.222 1.628-1.222 1.628s-.732-1.17-1.19-1.628c-.504-.504-1.694-1.256-1.694-1.256s1.198-.738 1.694-1.234c.465-.466 1.19-1.651 1.19-1.651zm-59.122 18.113s.748 1.177 1.221 1.651c.489.488 1.664 1.234 1.664 1.234s-1.196.788-1.664 1.256c-.494.494-1.221 1.628-1.221 1.628s-.733-1.17-1.19-1.628c-.504-.504-1.695-1.256-1.695-1.256s1.198-.738 1.694-1.234c.466-.466 1.19-1.651 1.19-1.651zm-202.79-4.302s.594.935.97 1.31c.388.388 1.32.98 1.32.98s-.949.626-1.32.998c-.392.392-.97 1.293-.97 1.293s-.582-.93-.945-1.293c-.4-.4-1.345-.998-1.345-.998s.951-.586 1.345-.98c.37-.369.945-1.31.945-1.31zm116.737 47.077s.594.935.97 1.311c.388.388 1.32.98 1.32.98s-.949.626-1.32.997c-.392.392-.97 1.293-.97 1.293s-.581-.93-.945-1.293c-.4-.4-1.345-.997-1.345-.997s.951-.586 1.345-.98c.37-.37.945-1.31.945-1.31z"/><path d="m16.981 44.528v-10.138m9.515 15.752 6.304-6.304m-26.904 5.146-5.196-5.197m131.09 47.472 4.916-3.944m983.15-8.952-5.519-5.519m-151.362 38.468-9.519-5.518" stroke="#dae2e6" stroke-linecap="round" stroke-width="2"/><path
                    d="m178.82 19.017s1.266 1.994 2.068 2.795c.827.827 2.816 2.09 2.816 2.09s-2.024 1.335-2.816 2.126c-.837.837-2.068 2.758-2.068 2.758s-1.241-1.982-2.017-2.758c-.852-.852-2.868-2.127-2.868-2.127s2.029-1.249 2.868-2.089c.789-.788 2.017-2.795 2.017-2.795z"/><path d="m202.975 51.312-9.519-5.518m722.559 136.351-7.267 4.27m364.58-1.349h4.787" stroke="#dae2e6" stroke-linecap="round" stroke-width="2"/></g><path
                    d="m917.71 167.798a14.601 14.601 0 0 0 2.064-7.508c0-8.101-6.568-14.67-14.67-14.67-6.288 0-11.653 3.959-13.739 9.52m519.998-14.124a14.601 14.601 0 0 0 2.064-7.508c0-8.102-6.568-14.67-14.67-14.67-6.289 0-11.654 3.958-13.74 9.519"
                    stroke="#dae2e6"
                    stroke-linecap="round"
                    stroke-linejoin="round"
                    stroke-width="2"/><path
                    d="m277.224 31.804s.784 1.233 1.28 1.73c.51.51 1.741 1.291 1.741 1.291s-1.252.826-1.741 1.316c-.518.517-1.28 1.705-1.28 1.705s-.767-1.226-1.247-1.705c-.527-.528-1.774-1.316-1.774-1.316s1.255-.773 1.774-1.292c.488-.488 1.247-1.729 1.247-1.729z"
                    fill="#dae2e6"/><path d="m291.363 51.016a14.601 14.601 0 0 0 2.064-7.508c0-8.102-6.568-14.67-14.67-14.67-6.289 0-11.654 3.958-13.74 9.519m807.352 6.223a3.98 3.98 0 1 0 3.98-3.98" stroke="#dae2e6" stroke-linecap="round" stroke-linejoin="round" stroke-width="2"/><ellipse cx="1312.013" cy="138.566" rx="3.981" ry="3.981" stroke="#dae2e6" stroke-linecap="round" stroke-linejoin="round" stroke-width="2"/><ellipse cx="1298.733" cy="3.727" rx="2.768" ry="2.768" stroke="#dae2e6" stroke-linecap="round" stroke-linejoin="round" stroke-width="2"/><path
                    d="m333.177 46.106s.748 1.177 1.222 1.65c.488.489 1.663 1.235 1.663 1.235s-1.196.788-1.663 1.256c-.494.494-1.222 1.628-1.222 1.628s-.732-1.17-1.19-1.628c-.504-.504-1.694-1.256-1.694-1.256s1.198-.738 1.694-1.234c.465-.466 1.19-1.651 1.19-1.651z"
                    fill="#dae2e6"/><ellipse cx="492.013" cy="138.566" rx="3.981" ry="3.981" stroke="#dae2e6" stroke-linecap="round" stroke-linejoin="round" stroke-width="2"/><ellipse cx="358.733" cy="23.727" rx="2.768" ry="2.768" stroke="#dae2e6" stroke-linecap="round" stroke-linejoin="round" stroke-width="2"/><path
                    d="m135.836 114.355a6.515 6.515 0 1 0 -13.029 0m783.196 61.508c0-3.948-1.037-7.654-2.854-10.86m-3.755-4.886a21.992 21.992 0 0 0 -15.454-6.317c-11.445 0-20.854 8.714-21.955 19.869m-452.945-8.359a22.22 22.22 0 0 0 .288-3.576c0-12.185-9.878-22.063-22.063-22.063-9.964 0-18.386 6.606-21.124 15.677"
                    stroke="#dae2e6"
                    stroke-linecap="round"
                    stroke-linejoin="round"
                    stroke-width="2"/><path
                    d="m265.167 47.562s1 1.574 1.633 2.207c.653.652 2.224 1.65 2.224 1.65s-1.599 1.053-2.224 1.678c-.66.66-1.633 2.177-1.633 2.177s-.98-1.564-1.591-2.177c-.674-.673-2.265-1.679-2.265-1.679s1.602-.986 2.265-1.65c.622-.622 1.591-2.206 1.591-2.206z"
                    fill="#dae2e6"/><path
                    d="m276.04 62.31a22.22 22.22 0 0 0 .288-3.576c0-12.185-9.878-22.063-22.063-22.063-9.964 0-18.386 6.606-21.124 15.677m180.239 118.69a5.561 5.561 0 0 0 -11.121 0m468.735 7.338a9.25 9.25 0 0 0 -17.059 4.958m-708.088-54.741a9.21 9.21 0 0 0 1.973-5.71 9.25 9.25 0 0 0 -17.223-4.689"
                    stroke="#dae2e6"
                    stroke-linecap="round"
                    stroke-linejoin="round"
                    stroke-width="2"/></g>
        </g><use mask="url(#c)" opacity=".276" stroke="#404f54" stroke-width="3" xlink:href="#b"/>
        <g mask="url(#d)"><path d="m31 100h22v108h-22z" fill="#f3f8f8" stroke="#404f54" stroke-linecap="round" stroke-width="1.5"/><path d="m31 100h18v108h-18z" fill="#f3f8f8" stroke="#404f54" stroke-linecap="round" stroke-width="1.5"/><path d="m38 101h10v106h-10z" fill="#cfdde4"/>
            <g stroke="#404f54" stroke-linecap="round" stroke-width="1.5"><path d="m24 92h7v116h-7z" fill="#6aace6"/><path d="m21 92h7v116h-7z" fill="#6aace6"/><path d="m53 123h14v85h-14z" fill="#e0eaef"/><path d="m64 119.932h14v88.068h-14z" fill="#fff"/><path d="m64 119.932h11v88.068h-11z" fill="#fff"/></g>
        </g>
        <g mask="url(#d)" transform="translate(1116.827 122.957)"><path
            d="m0 26.473v-4.215m0-15.398c0-3.79 3.06-6.86 6.87-6.86h31.817c3.794 0 6.87 3.08 6.87 6.875v70.695a6.862 6.862 0 0 1 -6.87 6.875h-31.817c-3.794 0-6.87-3.071-6.87-6.852v-43.76"
            fill="#fff"
            stroke="#404f54"
            stroke-linecap="round"
            stroke-width="1.5"/><rect fill="#6aace6" height="57.119" rx="3" stroke="#404f54" stroke-linecap="round" stroke-width="1.5" width="35.065" x="5.246" y="13.186"/><rect fill="#4d90cc" height="22.472" rx="3" width="33.576" x="5.99" y="46.619"/>
            <g stroke-linecap="round"><path d="m19.11 7.24h8.983" stroke="#ff8f5c" stroke-linejoin="round" stroke-width="1.5"/><path d="m21.673 76.98h1.362" stroke="#ff8f5c" stroke-linejoin="round" stroke-width="3"/>
                <g stroke-width="1.5" transform="translate(13 29)"><rect fill="#fff" height="26" rx="5" stroke="#404f54" width="20"/><path d="m5.397 13.002 3.479 3.106 6.219-5.854" stroke="#ff8f5c" stroke-linejoin="round"/></g>
            </g>
        </g>
        <g mask="url(#d)" transform="translate(1192.238 88.025)"><path
            d="m.14 18.314v-9.774c0-4.42 3.58-8.005 7.994-8.005h77.55a7.991 7.991 0 0 1 7.996 7.995v103.397a7.996 7.996 0 0 1 -7.995 7.996h-77.55c-4.416 0-7.996-3.59-7.996-8.009v-53.012m0-17.922v-9.847"
            fill="#fff"
            stroke="#404f54"
            stroke-linecap="round"
            stroke-width="1.5"/><rect fill="#e0eaef" height="116.388" rx="8" width="89.541" x="7.139" y="6.535"/><path
            d="m.14 18.314v-9.774c0-4.42 3.58-8.005 7.994-8.005h77.55a7.991 7.991 0 0 1 7.996 7.995v103.397a7.996 7.996 0 0 1 -7.995 7.996h-77.55c-4.416 0-7.996-3.59-7.996-8.009v-53.012m0-17.922v-9.847"
            stroke="#404f54"
            stroke-linecap="round"
            stroke-width="1.5"/><rect fill="#fff" height="91.476" rx="8" stroke="#404f54" stroke-linecap="round" stroke-width="1.5" width="71.044" x="11.388" y="14.491"/>
            <g transform="translate(19.689 84.281)"><path
                d="m37.714 4.32a3.996 3.996 0 0 1 3.996-3.997h3.923c4.374 0 7.92 3.54 7.92 7.923v13.808h-15.84v-17.733zm-37.714 3.925c0-4.376 3.555-7.923 7.92-7.923 4.374 0 7.92 3.54 7.92 7.923v13.808h-15.84z"
                fill="#f5f6f7"
                stroke="#404f54"
                stroke-linecap="round"
                stroke-width="1.5"/><rect fill="#ff8f5c" height="21.731" rx="4" width="38.468" x="7.543" y=".322"/><path d="m19.918.322h14.9v1.886c0 4.11-3.344 7.442-7.45 7.442a7.445 7.445 0 0 1 -7.45-7.442z" fill="#f5f6f7"/><path d="m34.697 15.086a3.753 3.753 0 1 0 7.506 0" stroke="#f5f6f7" stroke-linecap="round" stroke-width="2"/><path d="m36.96 15.086a.754.754 0 1 0 0-1.509.754.754 0 0 0 0 1.509zm3.017 0a.754.754 0 1 0 0-1.509.754.754 0 0 0 0 1.509z" fill="#f5f6f7"/><path d="m46.01 6.364v14.405c0 .71-1.346 1.284-3.018 1.284h-32.43c-1.668 0-3.02-.575-3.02-1.286v-14.834m0-4.324c0-.71 1.347-1.287 3.02-1.287h32.43c1.667 0 3.019.574 3.019 1.289" stroke="#404f54" stroke-linecap="round" stroke-width="1.5"/></g>
            <g transform="translate(23.46 21.676)">
                <g stroke="#404f54"><ellipse cx="4.848" cy="38.88" fill="#f5f6f7" rx="4.31" ry="4.31" stroke-linecap="round" stroke-width="1.5"/><ellipse cx="42.388" cy="38.88" fill="#f5f6f7" rx="4.31" ry="4.31" stroke-linecap="round" stroke-width="1.5"/><path d="m20.668 67.696v16.602" fill="#f5f6f7" stroke-linecap="round" stroke-width="1.5"/><rect fill="#f5f6f7" height="14.882" rx="4.15" stroke-linecap="round" stroke-width="1.5" width="8.3" x="19.447" y="52.964"/><rect fill="#f5f6f7" height="50.984" rx="17.326" stroke-linecap="round" stroke-width="1.5" width="34.652" x="6.271" y="9.158"/><path d="m21.25 38.265v8.62h3.518" fill="#f5f6f7" stroke-linecap="round" stroke-linejoin="round" stroke-width="1.5"/></g><ellipse cx="31.523" cy="40.233" fill="#404f54" rx="1.573" ry="1.573"/><ellipse cx="15.352" cy="40.233" fill="#404f54" rx="1.573" ry="1.573"/><path d="m21.664 52.626a3.653 3.653 0 0 0 5.707-3.022" fill="#f5f6f7" stroke="#1ea69a" stroke-linecap="round" stroke-width="1.5"/><path d="m35.345 35.755a3.553 3.553 0 1 0 -7.105 0m-9.643 0a3.553 3.553 0 0 0 -7.105 0" fill="#f5f6f7" stroke="#404f54" stroke-linecap="round" stroke-width="1.5"/><path
                    d="m12.644 21.058s6.9 1.817 11.1 1.817 10.909-1.817 10.909-1.817 1.754 3.906 2.51 5.393c.754 1.488 4.225 7.695 4.225 7.695l2.929.287 1.096-11.558s.088-3.674-1.096-6.19c-.92-1.955-4.12-4.536-5.175-5.422-.96-.807-3.205-2.13-5.756-4.124-3.856-3.013-8.198-6.817-8.198-6.817s-.226 2.772 0 3.911c.224 1.133 1.35 2.906 1.35 2.906s-5.093-3.66-7.94-4.946c-1.785-.805-5.954-1.325-5.954-1.325l4.069 7.107s-3.707-2.359-6.301-3.034c-2.202-.572-8.087 0-8.087 0l4.916 5.62s-4.269 3.582-4.916 5.329c-.563 1.517 0 6.236 0 6.236l1.182 11.933 2.937.078 3.968-7.686z"
                    fill="#6aace6"
                    stroke="#404f54"
                    stroke-linecap="round"
                    stroke-width="1.5"/><path
                    d="m5.98 33.473s5.251-9.398 6.288-13.453c0 0 11.376 3.961 22.75.027l6.78 13.335 1.778.204s.364-13.946-4.096-16.204c-4.461-2.258-9.151-5.126-9.151-5.126l-.255 2.29-7.295-3.444-1.113 3.569-9.392-3.86.703 3.48s-7.208-1.8-7.102 13.423l.106 5.76z"
                    fill="#4d90cc"/></g>
        </g>
        <g mask="url(#d)"><path d="m1021.31 189.158h61.907m-89.469 6.402h89.205m-20.696 6.264h20.96" stroke="#e0eaef" stroke-linecap="round" stroke-linejoin="round" stroke-width="2"/><path d="m1069.116 188.863h9.554v12.054l-4.722-5.358-4.832 5.358z" fill="#ff8f5c"/><path d="m990.444 167.453h93.686v17.392h-93.686z" fill="#6aace6"/>
            <g stroke-linecap="round"><path d="m1007.397 174.13h75.556" stroke="#4d90cc" stroke-linejoin="round" stroke-width="2"/><path d="m983.128 183.506h101.002v24.107h-101.002zm0-18.751h101.002v18.75h-101.002z" stroke="#404f54" stroke-width="1.5"/>
                <g><path d="m1007.397 156.533h70.514" stroke="#4d90cc" stroke-linejoin="round" stroke-width="2"/><path d="m1000.076 150.998h78.594v13.758h-78.594z" stroke="#404f54" stroke-width="1.5"/></g>
                <g><path d="m950.218 202.185 28.686-38.068" stroke="#4d90cc" stroke-linejoin="round" stroke-width="2"/><path d="m943.54 203.267 31.624-41.967 8.99 6.774-31.625 41.968z" stroke="#404f54" stroke-width="1.5"/></g>
            </g>
        </g>
        <g mask="url(#d)" stroke-linecap="round" stroke-width="1.485" transform="matrix(0 1 -1 0 571.163 187.397)"><path d="m9.41 37.662a2.476 2.476 0 0 1 3.502.005l5.876 5.875c.968.969 1.106 2.662.316 3.768l-6.135 8.592c-.794 1.112-2.087 1.124-2.893.021l-6.533-8.948c-.804-1.1-.666-2.78.294-3.74z" stroke="#404f54"/><rect fill="#ff8f5c" height="45.754" rx="7.92" stroke="#404f54" width="16.842" x="3.287" y=".504"/><path d="m6.893 9.136c0-2.568 2.154-4.65 4.815-4.65m2.703 40.642v-36.082m-6.781 36.082v-30.763" stroke="#fff"/><rect height="45.754" rx="7.92" stroke="#404f54" width="16.842" x="3.287" y=".504"/></g>
        <g mask="url(#d)" transform="translate(186.07 85.771)"><path
            d="m195.352 76.165v35.453c0 5.565-4.564 10.076-10.196 10.076h-167.993c-5.63 0-10.195-4.504-10.195-10.082v-101.216c0-3.483 1.786-6.554 4.503-8.365a10.229 10.229 0 0 1 5.692-1.717h167.993c5.631 0 10.196 4.53 10.196 10.075v36.737m0 13.177v3.466"
            fill="#f5f6f7"
            stroke="#404f54"
            stroke-linecap="round"
            stroke-width="1.5"/><path d="m8.665 87.675h185v24.175c0 5.523-4.48 10-9.995 10h-165.01a9.992 9.992 0 0 1 -9.995-10z" fill="#e1ebf0"/><path d="m16.936 11.406h168.419v90.384h-168.419z" fill="#fff" stroke="#404f54" stroke-linecap="round" stroke-width="1.5"/><rect fill="#9cbbca" height="1.864" rx=".932" width="18.818" x="92.207" y="106.45"/><rect fill="#fff" height="9.318" rx="4.659" stroke="#404f54" stroke-linecap="round" stroke-width="1.5" width="206.054" y="112.972"/>
            <g transform="translate(39.095 19.145)">
                <g stroke-linecap="round"><rect fill="#fff" height="73.823" rx="5" stroke="#404f54" width="122.343" x=".659"/><rect fill="#f3f8f8" height="30.697" rx="2" width="21.994" x="42.022" y="12.51"/><rect fill="#f3f8f8" height="30.697" rx="2" width="21.994" x="68.034" y="12.442"/><rect fill="#f3f8f8" height="30.697" rx="2" width="21.994" x="94.045" y="12.442"/><path d="m94.045 49.732c0-1.104.89-1.999 1.99-1.999h18.013c1.1 0 1.99.892 1.99 2v23.48h-21.992v-23.48z" fill="#f3f8f8"/><rect fill="#e0eaef" height="15.766" rx="2" width="21.994" x="42.022" y="12.442"/><rect fill="#e0eaef" height="15.766" rx="2" width="21.994" x="68.034" y="12.442"/><rect fill="#e0eaef" height="15.766" rx="2" width="21.994" x="94.045" y="12.442"/><rect fill="#e0eaef" height="15.766" rx="2" width="21.994" x="94.045" y="47.733"/></g><ellipse cx="47.016" cy="27.892" fill="#ffa47b" rx="2.488" ry="2.488"/><ellipse cx="73.028" cy="27.892" fill="#ffa47b" rx="2.488" ry="2.488"/><ellipse cx="99.039" cy="27.892" fill="#ffa47b" rx="2.488" ry="2.488"/><ellipse cx="99.039" cy="63.183" fill="#ffa47b" rx="2.488" ry="2.488"/><path d="m67.917 49.732c0-1.104.89-1.999 1.99-1.999h18.013c1.1 0 1.99.892 1.99 2v23.48h-21.992v-23.48z" fill="#f3f8f8" stroke-linecap="round"/><rect fill="#e0eaef" height="15.766" rx="2" stroke-linecap="round" width="21.994" x="67.917" y="47.733"/><ellipse cx="72.911" cy="63.183" fill="#ffa47b" rx="2.488" ry="2.488"/><path d="m41.789 49.732c0-1.104.89-1.999 1.99-1.999h18.013c1.1 0 1.99.892 1.99 2v23.48h-21.992v-23.48z" fill="#f3f8f8" stroke-linecap="round"/><rect fill="#e0eaef" height="15.766" rx="2" stroke-linecap="round" width="21.994" x="41.789" y="47.733"/><ellipse cx="46.783" cy="63.183" fill="#ffa47b" rx="2.488" ry="2.488"/><path d="m34.889 0h-29.863a4.997 4.997 0 0 0 -4.992 5.002v63.82a4.99 4.99 0 0 0 4.992 5.001h29.864v-73.823z" fill="#6aace6" stroke="#e0eaef" stroke-linecap="round"/><path d="m34.889 43.126h-34.855v25.697c0 2.768 2.235 5 4.992 5h29.864v-30.697z" fill="#fff" stroke="#e0eaef" stroke-linecap="round"/><rect fill="#e0eaef" height="2.996" rx="1.498" width="20.749" x="8.437" y="51.466"/><rect fill="#e0eaef" height="2.996" rx="1.498" width="14.528" x="8.437" y="56.442"/>
                <g transform="translate(7.193 15.76)"><ellipse cx="10.111" cy="9.831" fill="#fff" rx="9.787" ry="9.787"/><ellipse cx="11.48" cy="11.2" fill="#fff" rx="9.787" ry="9.787"/><ellipse cx="10.111" cy="9.831" rx="9.787" ry="9.787" stroke="#404f54" stroke-linecap="round" stroke-width=".825"/>
                    <g transform="translate(5.068 2.363)">
                        <g stroke="#404f54"><ellipse cx="1.063" cy="8.767" fill="#f5f6f7" rx=".945" ry=".94" stroke-linecap="round" stroke-width=".55"/><ellipse cx="9.296" cy="8.767" fill="#f5f6f7" rx=".945" ry=".94" stroke-linecap="round" stroke-width=".55"/><rect fill="#ff8f5c" height="3.247" rx="1.623" stroke-linecap="round" stroke-width=".55" width="7.6" x="1.375" y="10.444"/><ellipse cx="5.266" cy="2.135" fill="#ffa47b" rx="1.904" ry="1.904" stroke-width=".55"/></g><path d="m7.077 1.545a1.904 1.904 0 0 1 -3.053 2.033 1.904 1.904 0 0 1 3.053-2.033z" fill="#ff8f5c"/><ellipse cx="5.266" cy="2.135" rx="1.904" ry="1.904" stroke="#404f54" stroke-width=".55"/><rect fill="#f5f6f7" height="3.247" rx=".91" stroke="#404f54" stroke-linecap="round" stroke-width=".55" width="1.82" x="4.265" y="11.555"/><rect fill="#fff" height="10.101" rx="3.8" stroke="#404f54" stroke-linecap="round" stroke-width=".55" width="7.6" x="1.375" y="3.02"/><path d="m4.834 9.152v1.077h.315" stroke="#404f54" stroke-linecap="round" stroke-linejoin="round" stroke-width=".5"/><path d="m4.475 11.026a.631.631 0 1 0 1.262 0" fill="#f5f6f7" stroke="#ff8f5c" stroke-linecap="round" stroke-width=".55"/><path
                            d="m3.99 3.209a3.796 3.796 0 0 0 -2.616 3.601v1.246c.3-.066 1.58-.347 3.249-.71 1.914-.417 2.669-1.054 2.669-1.054s.357.928.62 1.398c.226.403.785.998.785.998v-1.172s.12.043.277.057v-.763a3.796 3.796 0 0 0 -2.434-3.537c-.692-.092-1.492-.066-2.413-.066-.047 0-.093 0-.139.002z"
                            fill="#dae2e6"/><path d="m7.238 9.249a.44.44 0 0 0 -.442-.439.44.44 0 0 0 -.44.439m-2.353 0a.44.44 0 0 0 -.441-.439.44.44 0 0 0 -.441.439" fill="#f5f6f7" stroke="#404f54" stroke-linecap="round" stroke-width=".5"/><path d="m4.287 8.11a.724.724 0 0 0 -.725-.722.724.724 0 0 0 -.726.722m4.582 0a.724.724 0 0 0 -.725-.722.724.724 0 0 0 -.726.722" stroke="#404f54" stroke-linecap="round" stroke-width=".5"/><path
                            d="m7.5 5.36s-.94.781-2.854 1.198c-1.914.416-3.225.623-3.225.623l-.09.883h-.817s-.368-2.548.264-3.664c.632-1.117 1.645-2.047 3.35-2.047 1.704 0 2.993-.09 3.949.648.956.739 1.586 2.078 1.586 3.043v1.933h-.693s-.666-.721-.892-1.124c-.264-.47-.576-1.494-.576-1.494z"
                            fill="#ffa47b"
                            stroke="#404f54"
                            stroke-width=".55"/><path
                            d="m1.477 7.172a64.608 64.608 0 0 0 3.169-.614c1.914-.418 2.855-1.199 2.855-1.199s.312 1.024.576 1.494c.11.197.325.47.517.697v-1.415c0-.742-.485-1.771-1.22-2.34-.735-.567-1.726-.498-3.036-.498s-2.09.715-2.576 1.574c-.231.408-.288 1.386-.285 2.3z"
                            fill="#ff8f5c"/><path
                            d="m7.5 5.36s-.94.781-2.854 1.198c-1.914.416-3.225.623-3.225.623l-.068.883h-.84s-.366-2.548.266-3.664c.632-1.117 1.645-2.047 3.35-2.047 1.704 0 2.993-.09 3.949.648.956.739 1.586 2.078 1.586 3.043v1.933h-.694s-.666-.721-.892-1.124c-.264-.47-.576-1.494-.576-1.494z"
                            stroke="#404f54"
                            stroke-width=".55"/><path
                            d="m7.5 6.213s-.94.782-2.854 1.199c-1.914.416-3.225.623-3.225.623l-.068.883h-.84s-.366-2.548.266-3.665c.632-1.116 1.645-2.046 3.35-2.046 1.704 0 2.993-.09 3.949.648.956.739 1.586 2.078 1.586 3.043v1.932h-.694s-.666-.721-.892-1.124c-.264-.47-.576-1.494-.576-1.494z"/></g>
                </g><path d="m123.002 8.048v-3.046a4.99 4.99 0 0 0 -4.992-5.002h-112.054a4.997 4.997 0 0 0 -4.993 5.002v3.046h122.04z" fill="#f3fffd" stroke="#e0eaef" stroke-linecap="round"/><rect height="73.823" rx="5" stroke="#404f54" stroke-linecap="round" width="122.343" x=".659"/></g>
        </g>
        <g mask="url(#d)" transform="translate(95 141)"><rect fill="#e0eaef" height="54" rx="8" stroke="#404f54" stroke-linecap="round" stroke-width="1.5" width="60" y="12.957"/><rect fill="#fff" height="54" rx="8" stroke="#404f54" stroke-linecap="round" stroke-width="1.5" width="56" x="2" y="6.957"/>
            <text font-family="TeachableSans-Bold, TeachableSans" font-size="30" font-weight="bold" letter-spacing="1.071">
                <tspan fill="#ff8f5c" x="12" y="44.63">08</tspan>
            </text>
            <g fill="#6aace6" stroke="#404f54" stroke-linecap="round" stroke-width="1.5"><rect height="15" rx="3.5" width="7" x="9" y=".957"/><rect height="15" rx="3.5" width="7" x="44" y=".957"/></g>
        </g>
        <g mask="url(#d)" transform="translate(1305.738 45.43)">
            <g stroke="#404f54" stroke-linecap="round" stroke-width="1.5"><rect fill="#fff" height="22.697" rx="11.349" width="34.637" x="31.721" y="130.764"/><rect fill="#e0eaef" height="21.509" rx="10.754" width="23.937" x="31.721" y="130.764"/><rect fill="#fff" height="22.588" rx="11.294" width="108.186" x="17.455" y="139.564"/></g><path d="m18.078 152.324a3.998 3.998 0 0 1 3.997-4.003l98.945.078a4.006 4.006 0 0 1 3.997 4.01v8.993l-106.94-.084v-8.994z" fill="#e0eaef"/><rect fill="#ff8f5c" height="13.191" rx="6.596" stroke="#404f54" stroke-linecap="round" stroke-width="1.5" transform="matrix(.96592583 -.25881905 .25881905 .96592583 -10.701489 26.156124)" width="60.46" x="63.758" y="47.125"/><path d="m132.194 16.872a21.549 21.549 0 0 1 1.46 3.902l5.549 20.707-107.723 28.865-3.407-12.716c-2.696-10.06 3.275-20.402 13.337-23.098l75.407-20.205a18.818 18.818 0 0 1 15.377 2.545z" fill="#e0eaef"/><path
                d="m36.129 24.712 11.499-3.081m10.847-2.907 48.928-13.11c11.434-3.064 23.186 3.721 26.251 15.16l5.549 20.707-127.137 34.067-5.549-20.708c-3.064-11.436 3.727-23.192 15.16-26.256l8.99-2.409"
                stroke="#404f54"
                stroke-linecap="round"
                stroke-width="1.5"/><rect fill="#6aace6" height="9.972" rx="4.986" stroke="#404f54" stroke-linecap="round" stroke-width="1.5" transform="matrix(.70710678 .70710678 -.70710678 .70710678 94.515424 -17.502418)" width="144.784" x="-4.007" y="100.353"/></g>
        <g mask="url(#d)"><path
            d="m481 198.209c7.14 0 12.928-5.789 12.928-12.929s-5.789-12.928-12.929-12.928c-.699 0-1.384.055-2.053.162m.054 25.541c.652.101 1.32.154 2 .154m0-4.716a8.213 8.213 0 1 0 -1.974-16.187m-.12 15.918c.669.175 1.37.269 2.093.269"
            stroke="#404f54"
            stroke-linecap="round"
            stroke-width="1.5"/><path d="m453.805 167.703h25.061v30.306c0 4.966-4.03 8.991-8.997 8.991h-20.562.562c4.966 0 8.997-4.025 8.997-8.99v-30.307h-5.06z" fill="#e0eaef"/>
            <g stroke="#404f54" stroke-linecap="round" stroke-width="1.5"><path d="m459 176h11v13.092h-11z" fill="#ff8f5c"/><path d="m435 175.95v-8.247h43.866v30.306c0 4.966-4.028 8.991-9.01 8.991h-25.846c-4.975 0-9.009-4.025-9.009-9v-6.318m0-5.073v-5.265m29.749-6.574v-7.041"/></g>
        </g>
    </g><div
        xmlns=""
        id="screen-shader"
        style="&#10;            transition: opacity 0.1s ease 0s; &#10;            z-index: 2147483647;&#10;            margin: 0; &#10;            border-radius: 0; &#10;            padding: 0; &#10;            background: #fac563; &#10;            pointer-events: none; &#10;            position: fixed; &#10;            top: -10%; &#10;            right: -10%; &#10;            width: 120%; &#10;            height: 120%; &#10;            opacity: 0.5840;&#10;            mix-blend-mode: multiply; &#10;            display: none;&#10;        "/></svg>
